<svg width="217" height="159" viewBox="0 0 217 159" fill="none" xmlns="http://www.w3.org/2000/svg">
<path d="M216.76 43.0001C220.475 104.683 180.915 159 106.81 159C32.7058 159 -4.25371 103.762 0.389434 43C55.5883 42.9999 42.907 43.0001 106.81 43.0001C170.714 43.0001 144.163 43 216.76 43.0001Z" fill="#FFF0EE"/>
<path d="M182.645 43C190.958 88.604 160.479 137 105.987 137C51.4955 137 23.7878 91.396 31.1765 43C70.3903 43 60.5898 43 105.987 43C151.385 43 131.072 42.9999 182.645 43Z" fill="#F95B4D"/>
<path d="M170 62C170 96.2417 142.466 124 108.5 124C74.5345 124 47 96.2417 47 62C47 27.7583 74.5345 0 108.5 0C142.466 0 170 27.7583 170 62Z" fill="#D32719"/>
<circle cx="176.5" cy="83.5" r="7.2" stroke="#7E0000" stroke-width="0.6"/>
<circle cx="62.5" cy="66.5" r="4.2" stroke="#7E0000" stroke-width="0.6"/>
<circle cx="194" cy="103" r="4.75" stroke="#7E0000" stroke-opacity="0.494118" stroke-width="0.5"/>
<circle cx="72" cy="137" r="4.75" stroke="#7E0000" stroke-width="0.5"/>
<rect x="24.6261" y="72.6854" width="8.58702" height="8.58702" transform="rotate(31.6454 24.6261 72.6854)" stroke="#7E0000" stroke-width="0.4"/>
<path d="M131.311 81.9863C131.53 82.2046 131.703 82.4638 131.821 82.7491C131.939 83.0343 132 83.3401 132 83.6488C132 83.9576 131.939 84.2633 131.821 84.5486C131.703 84.8338 131.53 85.093 131.311 85.3114C131.093 85.5297 130.834 85.7029 130.549 85.821C130.263 85.9392 129.958 86 129.649 86C129.34 86 129.034 85.9392 128.749 85.821C128.464 85.7029 128.205 85.5297 127.986 85.3114L108.5 65.8221L89.0137 85.3114C88.5728 85.7523 87.9747 86 87.3512 86C86.7276 86 86.1296 85.7523 85.6886 85.3114C85.2477 84.8704 85 84.2724 85 83.6488C85 83.0253 85.2477 82.4272 85.6886 81.9863L105.178 62.5L85.6886 43.0137C85.2477 42.5728 85 41.9747 85 41.3512C85 40.7276 85.2477 40.1296 85.6886 39.6886C86.1296 39.2477 86.7276 39 87.3512 39C87.9747 39 88.5728 39.2477 89.0137 39.6886L108.5 59.1779L127.986 39.6886C128.427 39.2477 129.025 39 129.649 39C130.272 39 130.87 39.2477 131.311 39.6886C131.752 40.1296 132 40.7276 132 41.3512C132 41.9747 131.752 42.5728 131.311 43.0137L111.822 62.5L131.311 81.9863Z" fill="white"/>
</svg>
