<svg width="241" height="157" viewBox="0 0 241 157" fill="none" xmlns="http://www.w3.org/2000/svg">
<rect width="240" height="150" rx="20" fill="#00C1CF"/>
<path d="M116.759 -4.76837e-07C133.845 -4.76837e-07 122.946 -4.76837e-07 153 -4.76837e-07C153 14.9117 139.149 27 122.063 27C104.976 27 91.125 14.9117 91.125 -4.76837e-07C111.013 -4.76837e-07 99.6726 -4.76837e-07 116.759 -4.76837e-07Z" fill="#00B8C6"/>
<path d="M118.214 0.000216246C130.541 0.000216246 122.678 0.000216246 144.36 0.000216246C144.36 11.1342 134.367 20.1602 122.04 20.1602C109.713 20.1602 99.72 11.1342 99.72 0.000216246C114.069 0.000216246 105.887 0.000216246 118.214 0.000216246Z" fill="#00C1CF"/>
<circle cx="24.5" cy="39.082" r="5.5" transform="rotate(-90 24.5 39.082)" fill="#00B8C6"/>
<circle cx="34.6589" cy="23.5" r="4.5" transform="rotate(-90 34.6589 23.5)" fill="#01C7D5"/>
<circle cx="104.5" cy="118.282" r="3.5" transform="rotate(-90 104.5 118.282)" fill="#01C7D5"/>
<circle cx="118.456" cy="108" r="6" transform="rotate(-90 118.456 108)" fill="#01C7D5"/>
<circle cx="130.955" cy="125.84" r="7.5" transform="rotate(-90 130.955 125.84)" fill="#00B8C6"/>
<path d="M61.3571 150C48.9307 150 56.8571 150 35 150C35 139.507 45.0736 131 57.5 131C69.9264 131 80 139.507 80 150C65.5357 150 73.7835 150 61.3571 150Z" fill="#00B8C6"/>
<path d="M179.518 142.098C179.754 142.459 179.837 142.899 179.751 143.321C179.664 143.743 179.415 144.114 179.056 144.354L175.028 147.023C174.669 147.259 174.23 147.343 173.809 147.257C173.388 147.17 173.018 146.92 172.781 146.56L156.188 121.306C155.953 120.945 155.869 120.506 155.956 120.083C156.043 119.661 156.293 119.29 156.652 119.051L160.684 116.388C160.861 116.271 161.061 116.19 161.27 116.149C161.479 116.109 161.694 116.11 161.903 116.153C162.112 116.196 162.31 116.28 162.486 116.399C162.662 116.519 162.814 116.672 162.931 116.85L179.518 142.098ZM212.296 105.349C212.532 105.71 212.615 106.15 212.528 106.572C212.441 106.994 212.192 107.365 211.833 107.604L186.485 124.381C186.126 124.617 185.687 124.701 185.266 124.615C184.845 124.528 184.475 124.278 184.238 123.919L179.959 117.397C179.723 117.036 179.64 116.596 179.727 116.174C179.814 115.752 180.064 115.381 180.422 115.142L205.765 98.3643C205.943 98.2471 206.142 98.166 206.351 98.1257C206.56 98.0855 206.775 98.0868 206.984 98.1297C207.192 98.1726 207.39 98.2562 207.566 98.3757C207.743 98.4952 207.894 98.6483 208.011 98.8262L212.296 105.349ZM188.143 136.387C188.633 137.133 188.425 138.148 187.679 138.642L183.647 141.308C183.469 141.426 183.27 141.507 183.06 141.547C182.851 141.587 182.636 141.586 182.427 141.543C182.219 141.5 182.021 141.416 181.844 141.297C181.668 141.177 181.517 141.024 181.4 140.846L164.818 115.594C164.582 115.233 164.499 114.794 164.585 114.371C164.671 113.949 164.921 113.578 165.28 113.339L169.306 110.673C169.665 110.436 170.103 110.352 170.525 110.439C170.946 110.525 171.316 110.776 171.553 111.135L188.143 136.387ZM227.506 108.714C227.741 109.075 227.824 109.515 227.737 109.937C227.65 110.359 227.399 110.73 227.04 110.969L223.01 113.636C222.65 113.872 222.211 113.957 221.79 113.87C221.368 113.784 220.998 113.534 220.761 113.175L204.175 87.9268C203.939 87.566 203.855 87.1264 203.941 86.704C204.028 86.2815 204.278 85.9104 204.637 85.6714L208.679 82.9983C208.856 82.881 209.055 82.8 209.264 82.7597C209.474 82.7195 209.688 82.7208 209.897 82.7637C210.106 82.8066 210.304 82.8902 210.48 83.0097C210.656 83.1292 210.807 83.2823 210.924 83.4602L227.506 108.714ZM236.117 103.012C236.352 103.373 236.435 103.813 236.349 104.235C236.262 104.658 236.012 105.029 235.653 105.269L231.629 107.935C231.452 108.052 231.253 108.133 231.043 108.174C230.834 108.214 230.619 108.213 230.411 108.17C230.202 108.127 230.004 108.044 229.828 107.925C229.652 107.805 229.5 107.652 229.383 107.474L212.802 82.2175C212.567 81.8561 212.484 81.4165 212.57 80.9941C212.657 80.5716 212.906 80.2002 213.265 79.9604L217.293 77.2884C217.47 77.1708 217.669 77.0894 217.878 77.0489C218.087 77.0084 218.302 77.0095 218.511 77.0523C218.719 77.095 218.917 77.1785 219.093 77.298C219.27 77.4174 219.42 77.5705 219.537 77.7484L236.117 103.012Z" fill="#00B8C6"/>
</svg>
