<svg width="240" height="150" viewBox="0 0 240 150" fill="none" xmlns="http://www.w3.org/2000/svg">
<g clip-path="url(#clip0_4868_692)">
<rect width="240" height="150" fill="white"/>
<rect width="240" height="150" fill="#4C7EFF"/>
<path d="M76.7286 150C59.8839 150 70.6286 150 41 150C41 135.088 54.6553 123 71.5 123C88.3447 123 102 135.088 102 150C82.3929 150 93.5733 150 76.7286 150Z" fill="#5B89FF"/>
<path d="M75.3571 150C62.9307 150 70.8571 150 49 150C49 139.507 59.0736 131 71.5 131C83.9264 131 94 139.507 94 150C79.5357 150 87.7835 150 75.3571 150Z" fill="#4C7EFF"/>
<path d="M132.571 4.76837e-07C143.617 4.76837e-07 136.571 4.76837e-07 156 4.76837e-07C156 9.38884 147.046 17 136 17C124.954 17 116 9.38884 116 4.76837e-07C128.857 4.76837e-07 121.526 4.76837e-07 132.571 4.76837e-07Z" fill="#5B89FF"/>
<circle cx="31.5" cy="40.082" r="5.5" transform="rotate(-90 31.5 40.082)" fill="#3D73FF"/>
<path d="M209.347 114.883C218.01 114.85 225.04 107.019 225.004 97.5229C224.969 88.1344 217.919 80.7238 209.219 80.7563C200.593 80.7885 193.524 88.3617 193.559 97.7135C193.63 107.173 200.72 114.915 209.347 114.883ZM167.422 115.849C174.919 115.821 181.044 108.987 181.013 100.631C180.982 92.4583 174.88 85.8919 167.31 85.9201C159.813 85.9481 153.651 92.672 153.717 100.806C153.785 109.127 159.924 115.877 167.422 115.849ZM209.326 109.324C204.012 109.344 199.442 104.207 199.418 97.6916C199.394 91.2837 203.853 86.3366 209.24 86.3165C214.663 86.2963 219.121 91.1387 219.145 97.5429C219.17 104.061 214.713 109.304 209.326 109.324ZM167.401 110.363C162.961 110.38 159.16 106.088 159.14 100.786C159.121 95.5956 162.852 91.422 167.33 91.4053C171.915 91.3882 175.607 95.4608 175.626 100.651C175.646 106.026 171.877 110.347 167.401 110.363ZM147.311 149.683L175.883 149.576C174.131 148.588 172.776 146.384 173.023 144.138L146.382 144.237C145.655 144.24 145.29 143.949 145.287 143.247C145.253 134.119 155.52 125.54 167.423 125.495C172.008 125.478 176.125 126.567 179.664 128.652C180.829 127.147 182.21 125.826 183.762 124.735C179.055 121.622 173.409 120.024 167.403 120.047C152.151 120.104 139.818 131.34 139.864 143.599C139.879 147.685 142.361 149.701 147.311 149.683ZM184.5 150L221 150C223 150 226.897 149.035 229.5 147.5C234.388 144.618 236.803 141.393 238 139C234.5 131 229 122 209.366 119.961C189.602 120.035 177.608 134.035 177.644 143.68C177.659 147.729 178.422 150.023 184.5 150ZM184.851 143.984C183.904 143.988 183.503 143.733 183.5 142.958C183.478 136.92 192.68 125.586 209.387 125.524C226.057 125.461 234.477 136.462 234.5 142.5C234.503 143.273 234.448 143.496 233.5 143.5L184.851 143.984Z" fill="#3D73FF"/>
<circle cx="183.5" cy="30.5" r="3.5" transform="rotate(-90 183.5 30.5)" fill="#3D73FF"/>
<circle cx="101.5" cy="115.5" r="3.5" transform="rotate(-90 101.5 115.5)" fill="#3D73FF"/>
<circle cx="199" cy="44" r="6" transform="rotate(-90 199 44)" fill="#5B89FF"/>
</g>
<defs>
<clipPath id="clip0_4868_692">
<rect width="240" height="150" fill="white"/>
</clipPath>
</defs>
</svg>
