<svg width="240" height="150" viewBox="0 0 240 150" fill="none" xmlns="http://www.w3.org/2000/svg">
<g clip-path="url(#clip0_4868_692)">
<rect width="240" height="150" fill="white"/>
<rect width="240" height="150" fill="#005C6D"/>
<path d="M116.759 -4.76837e-07C133.845 -4.76837e-07 122.946 -4.76837e-07 153 -4.76837e-07C153 14.9117 139.149 27 122.063 27C104.976 27 91.125 14.9117 91.125 -4.76837e-07C111.013 -4.76837e-07 99.6726 -4.76837e-07 116.759 -4.76837e-07Z" fill="#006578"/>
<path d="M118.214 0.000216246C130.541 0.000216246 122.678 0.000216246 144.36 0.000216246C144.36 11.1342 134.367 20.1602 122.04 20.1602C109.713 20.1602 99.72 11.1342 99.72 0.000216246C114.069 0.000216246 105.887 0.000216246 118.214 0.000216246Z" fill="#005C6D"/>
<circle cx="24.5" cy="39.082" r="5.5" transform="rotate(-90 24.5 39.082)" fill="#005261"/>
<circle cx="34.6589" cy="23.5" r="4.5" transform="rotate(-90 34.6589 23.5)" fill="#006578"/>
<circle cx="104.5" cy="118.282" r="3.5" transform="rotate(-90 104.5 118.282)" fill="#006578"/>
<circle cx="118.456" cy="108" r="6" transform="rotate(-90 118.456 108)" fill="#005261"/>
<circle cx="130.955" cy="125.84" r="7.5" transform="rotate(-90 130.955 125.84)" fill="#006578"/>
</g>
<defs>
<clipPath id="clip0_4868_692">
<rect width="240" height="150" fill="white"/>
</clipPath>
</defs>
</svg>
