<svg width="240" height="150" viewBox="0 0 240 150" fill="none" xmlns="http://www.w3.org/2000/svg">
<g clip-path="url(#clip0_4868_692)">
<rect width="240" height="150" fill="white"/>
<rect width="240" height="150" fill="#A0C340"/>
<path d="M76.7286 150C59.8839 150 70.6286 150 41 150C41 135.088 54.6553 123 71.5 123C88.3447 123 102 135.088 102 150C82.3929 150 93.5733 150 76.7286 150Z" fill="#93B636"/>
<path d="M75.3571 150C62.9307 150 70.8571 150 49 150C49 139.507 59.0736 131 71.5 131C83.9264 131 94 139.507 94 150C79.5357 150 87.7835 150 75.3571 150Z" fill="#A0C340"/>
<path d="M132.571 4.76837e-07C143.617 4.76837e-07 136.571 4.76837e-07 156 4.76837e-07C156 9.38884 147.046 17 136 17C124.954 17 116 9.38884 116 4.76837e-07C128.857 4.76837e-07 121.526 4.76837e-07 132.571 4.76837e-07Z" fill="#AECC5C"/>
<circle cx="31.5" cy="40.082" r="5.5" transform="rotate(-90 31.5 40.082)" fill="#94B636"/>
<circle cx="119.011" cy="113.914" r="3.5" transform="rotate(-169.636 119.011 113.914)" fill="#AECC5C"/>
<circle cx="193.5" cy="29.5" r="5.5" transform="rotate(-90 193.5 29.5)" fill="#AECC5C"/>
<circle cx="135.08" cy="101.096" r="6" transform="rotate(-169.636 135.08 101.096)" fill="#93B636"/>
<path d="M222.855 69.9514L213.198 71.2953L212.681 67.5811C212.599 66.9901 212.285 66.4559 211.809 66.0962C211.333 65.7364 210.733 65.5805 210.142 65.6627C209.551 65.745 209.017 66.0587 208.657 66.5347C208.297 67.0108 208.141 67.6103 208.224 68.2014L208.741 71.9156L177.541 76.2574L177.024 72.5432C176.942 71.9521 176.628 71.418 176.152 71.0582C175.676 70.6984 175.077 70.5425 174.486 70.6248C173.895 70.707 173.361 71.0207 173.001 71.4968C172.641 71.9729 172.485 72.5724 172.567 73.1634L173.084 76.8776L163.427 78.2215C162.048 78.4135 160.802 79.1454 159.962 80.2562C159.123 81.3671 158.759 82.766 158.951 84.1451L167.221 143.572C167.413 144.951 168.145 146.198 169.256 147.037C170.367 147.877 171.766 148.241 173.145 148.049L232.572 139.779C233.951 139.587 235.197 138.855 236.037 137.744C236.876 136.633 237.24 135.234 237.048 133.855L228.778 74.4277C228.586 73.0486 227.854 71.8022 226.743 70.9628C225.633 70.1233 224.234 69.7595 222.855 69.9514ZM164.048 82.6786L173.704 81.3347L174.221 85.0489C174.304 85.6399 174.617 86.1741 175.093 86.5339C175.569 86.8936 176.169 87.0496 176.76 86.9673C177.351 86.885 177.885 86.5714 178.245 86.0953C178.605 85.6192 178.761 85.0197 178.678 84.4286L178.162 80.7144L209.361 76.3726L209.878 80.0868C209.96 80.6779 210.274 81.212 210.75 81.5718C211.226 81.9316 211.825 82.0875 212.416 82.0052C213.007 81.923 213.542 81.6093 213.901 81.1332C214.261 80.6571 214.417 80.0576 214.335 79.4666L213.818 75.7524L223.475 74.4085C223.672 74.3811 223.872 74.433 224.03 74.553C224.189 74.6729 224.294 74.8509 224.321 75.048L226.078 87.6763L165.165 96.1531L163.408 83.5248C163.381 83.3278 163.433 83.128 163.553 82.9693C163.672 82.8106 163.851 82.706 164.048 82.6786ZM231.952 135.321L172.524 143.592C172.327 143.619 172.128 143.567 171.969 143.447C171.81 143.327 171.706 143.149 171.678 142.952L165.786 100.61L226.699 92.1333L232.591 134.475C232.619 134.672 232.567 134.872 232.447 135.031C232.327 135.19 232.149 135.294 231.952 135.321ZM190.901 106.959L194.209 130.73C194.291 131.321 194.135 131.921 193.775 132.397C193.415 132.873 192.881 133.186 192.29 133.269C191.699 133.351 191.1 133.195 190.624 132.835C190.147 132.475 189.834 131.941 189.752 131.35L186.945 111.186L184.416 112.924C184.172 113.091 183.898 113.208 183.609 113.269C183.319 113.331 183.021 113.334 182.731 113.28C182.44 113.226 182.163 113.115 181.915 112.954C181.668 112.793 181.454 112.584 181.287 112.341C181.12 112.097 181.002 111.823 180.941 111.533C180.88 111.244 180.876 110.946 180.93 110.655C180.984 110.365 181.095 110.088 181.256 109.84C181.418 109.592 181.626 109.379 181.87 109.212L187.399 105.413C187.715 105.196 188.082 105.064 188.463 105.028C188.845 104.993 189.23 105.055 189.581 105.21C189.931 105.365 190.237 105.607 190.468 105.913C190.699 106.219 190.848 106.579 190.901 106.959ZM214.538 114.744L208.012 126.537L215.441 125.504C216.032 125.421 216.631 125.577 217.108 125.937C217.584 126.297 217.897 126.831 217.98 127.422C218.062 128.013 217.906 128.612 217.546 129.089C217.186 129.565 216.652 129.878 216.061 129.961L204.176 131.615C203.762 131.672 203.34 131.613 202.958 131.445C202.575 131.276 202.248 131.005 202.011 130.66C201.774 130.316 201.638 129.912 201.618 129.495C201.598 129.077 201.694 128.663 201.897 128.297L210.609 112.546C210.86 112.098 211.018 111.604 211.07 111.093C211.123 110.582 211.07 110.066 210.915 109.576C210.76 109.087 210.507 108.634 210.17 108.247C209.833 107.859 209.42 107.545 208.956 107.324C208.493 107.103 207.989 106.979 207.476 106.96C206.963 106.942 206.451 107.029 205.973 107.216C205.495 107.403 205.06 107.687 204.696 108.049C204.332 108.411 204.046 108.844 203.856 109.321C203.762 109.616 203.607 109.889 203.402 110.122C203.197 110.355 202.947 110.544 202.666 110.675C202.384 110.806 202.079 110.878 201.769 110.886C201.459 110.894 201.15 110.837 200.863 110.72C200.576 110.603 200.316 110.428 200.1 110.205C199.883 109.983 199.715 109.718 199.606 109.428C199.497 109.137 199.449 108.827 199.466 108.518C199.482 108.208 199.562 107.905 199.702 107.627C200.128 106.588 200.762 105.646 201.565 104.861C202.368 104.075 203.323 103.462 204.371 103.058C205.42 102.655 206.54 102.469 207.662 102.514C208.785 102.559 209.886 102.832 210.9 103.317C211.913 103.803 212.816 104.49 213.554 105.337C214.292 106.184 214.85 107.173 215.192 108.243C215.535 109.313 215.655 110.441 215.546 111.56C215.436 112.678 215.1 113.762 214.557 114.745L214.538 114.744Z" fill="#93B636"/>
</g>
<defs>
<clipPath id="clip0_4868_692">
<rect width="240" height="150" fill="white"/>
</clipPath>
</defs>
</svg>
