<svg width="300" height="210" viewBox="0 0 300 210" fill="none" xmlns="http://www.w3.org/2000/svg">
<g filter="url(#filter0_d_4867_633)">
<rect x="30" y="10" width="240" height="150" fill="#4C7EFF"/>
</g>
<path d="M106.729 160C89.8839 160 100.629 160 71 160C71 145.088 84.6553 133 101.5 133C118.345 133 132 145.088 132 160C112.393 160 123.573 160 106.729 160Z" fill="#5B89FF"/>
<path d="M105.186 160C93.3116 160 100.886 160 80 160C80 149.507 89.6259 141 101.5 141C113.374 141 123 149.507 123 160C109.179 160 117.06 160 105.186 160Z" fill="#4C7EFF"/>
<path d="M149.226 10.0001C169.373 10.0001 156.522 10.0001 191.96 10.0001C191.96 27.6732 175.627 42 155.48 42C135.333 42 119 27.6732 119 10.0001C142.451 10.0001 129.079 10.0001 149.226 10.0001Z" fill="#3D73FF"/>
<path d="M150.762 10.0001C165.961 10.0001 156.266 10.0001 183 10.0001C183 22.7247 170.679 33.04 155.48 33.04C140.281 33.04 127.96 22.7247 127.96 10.0001C145.651 10.0001 135.563 10.0001 150.762 10.0001Z" fill="#4C7EFF"/>
<path d="M152.079 9.99998C163.036 9.99998 156.047 9.99998 175.32 9.99998C175.32 19.8969 166.437 27.9199 155.48 27.9199C144.523 27.9199 135.64 19.8969 135.64 9.99998C148.394 9.99998 141.121 9.99998 152.079 9.99998Z" fill="#3D73FF"/>
<path d="M227.413 80.1866C227.587 80.2114 227.761 80.2376 227.933 80.2669C228.719 80.4012 229.49 80.5816 230.246 80.8085C236.29 82.6231 241.46 87.4122 245.372 93.2938C249.285 99.1754 251.915 106.117 252.953 111.924C253.471 114.827 253.586 117.447 253.316 119.455C253.045 121.464 252.381 122.768 251.628 123.336L232.444 137.827C231.691 138.395 230.259 138.67 228.272 138.366C226.535 138.101 224.439 137.419 222.192 136.37C222.409 133.464 221.553 130.519 219.795 128.181C217.877 125.629 214.968 123.906 211.812 123.449C209.917 123.174 207.98 123.366 206.182 123.973C205.994 123.755 205.807 123.534 205.623 123.312C201.129 117.87 198.024 111.517 198 105.157C197.976 98.7975 200.907 92.2888 209.046 86.1432C215.944 80.9334 222.036 79.4214 227.413 80.1866ZM249.88 128.156C249.197 132.584 250.751 136.484 253.201 139.912C256.261 144.194 260.595 148.056 264 152.452C262.828 154.983 262.172 156.216 261.458 156.764C260.742 157.312 259.415 157.601 256.67 158C253.473 153.477 251.157 148.096 248.012 143.859C246.362 141.636 244.443 139.712 241.981 138.521C240.697 137.9 239.272 137.504 237.707 137.347L249.88 128.156ZM211.417 126.22C213.828 126.569 216.124 127.933 217.582 129.872C219.04 131.812 219.702 134.378 219.361 136.765C219.02 139.151 217.67 141.427 215.729 142.873C213.789 144.319 211.205 144.972 208.795 144.623C206.385 144.274 204.088 142.913 202.629 140.974C201.171 139.036 200.512 136.468 200.851 134.082C201.19 131.695 202.541 129.421 204.482 127.974C206.423 126.527 209.007 125.87 211.417 126.22Z" fill="#3D73FF"/>
<circle cx="61.5" cy="48.082" r="5.5" transform="rotate(-90 61.5 48.082)" fill="#5B89FF"/>
<circle cx="71.6589" cy="32.5" r="4.5" transform="rotate(-90 71.6589 32.5)" fill="#3D73FF"/>
<circle cx="177.456" cy="119" r="6" transform="rotate(-90 177.456 119)" fill="#5B89FF"/>
<circle cx="163.5" cy="129.283" r="3.5" transform="rotate(-90 163.5 129.283)" fill="#4478FF"/>
<defs>
<filter id="filter0_d_4867_633" x="0" y="0" width="300" height="210" filterUnits="userSpaceOnUse" color-interpolation-filters="sRGB">
<feFlood flood-opacity="0" result="BackgroundImageFix"/>
<feColorMatrix in="SourceAlpha" type="matrix" values="0 0 0 0 0 0 0 0 0 0 0 0 0 0 0 0 0 0 127 0" result="hardAlpha"/>
<feOffset dy="20"/>
<feGaussianBlur stdDeviation="15"/>
<feComposite in2="hardAlpha" operator="out"/>
<feColorMatrix type="matrix" values="0 0 0 0 0.541176 0 0 0 0 0.584314 0 0 0 0 0.619608 0 0 0 0.2 0"/>
<feBlend mode="normal" in2="BackgroundImageFix" result="effect1_dropShadow_4867_633"/>
<feBlend mode="normal" in="SourceGraphic" in2="effect1_dropShadow_4867_633" result="shape"/>
</filter>
</defs>
</svg>
