<svg width="545" height="832" viewBox="0 0 545 832" fill="none" xmlns="http://www.w3.org/2000/svg">
<rect width="545" height="832" fill="#E6EFF0"/>
<ellipse cx="20" cy="-8.5" rx="115" ry="113.5" fill="#005261"/>
<ellipse cx="18.5" cy="-8.5" rx="84.5" ry="83.5" fill="#E6EFF0"/>
<g filter="url(#filter0_d_4958_610)">
<path d="M420.116 414.856L434.717 414.639C434.151 420.134 432.646 424.978 430.204 429.172C427.797 433.365 424.523 436.619 420.382 438.933C416.275 441.246 411.426 442.331 405.833 442.186C401.161 442.078 397.321 441.048 394.312 439.095C391.303 437.107 388.985 434.504 387.356 431.287C385.728 428.033 384.719 424.436 384.33 420.496C383.941 416.519 383.994 412.47 384.489 408.349L386.507 394.955C387.144 390.581 388.224 386.351 389.746 382.266C391.268 378.145 393.285 374.475 395.799 371.258C398.312 368.004 401.391 365.456 405.037 363.612C408.718 361.768 412.966 360.901 417.78 361.009C423.337 361.117 427.726 362.437 430.947 364.968C434.204 367.462 436.54 370.806 437.956 375C439.372 379.193 440.097 383.838 440.133 388.936L424.948 388.882C425.089 386.423 425.054 384.092 424.841 381.886C424.629 379.645 423.921 377.819 422.718 376.409C421.55 374.963 419.514 374.186 416.612 374.078C413.78 373.969 411.444 374.548 409.603 375.813C407.798 377.078 406.347 378.759 405.249 380.856C404.188 382.953 403.373 385.23 402.807 387.689C402.276 390.147 401.851 392.533 401.533 394.846L399.674 408.403C399.427 410.283 399.197 412.38 398.984 414.693C398.807 417.007 398.86 419.248 399.143 421.418C399.427 423.587 400.152 425.394 401.32 426.84C402.488 428.286 404.382 429.082 407.002 429.226C410.081 429.335 412.488 428.756 414.222 427.491C415.957 426.226 417.249 424.49 418.098 422.285C418.983 420.044 419.656 417.567 420.116 414.856Z" fill="url(#paint0_linear_4958_610)"/>
<path d="M373.658 427.979L371.375 441.102H338.774L340.951 427.979H373.658ZM356.88 362.148L343.5 441.102H328.314L341.641 362.148H356.88ZM375.038 394.142L372.861 406.885H344.562L346.685 394.142H375.038ZM384.701 362.148L382.418 375.325H349.871L352.154 362.148H384.701Z" fill="url(#paint1_linear_4958_610)"/>
<path d="M314.457 362.148L301.024 441.102H285.892L299.325 362.148H314.457ZM333.04 362.148L330.81 375.325H278.83L281.06 362.148H333.04Z" fill="url(#paint2_linear_4958_610)"/>
<path d="M208.798 362.148L195.365 441.102H180.232L193.665 362.148H208.798Z" fill="#005C6D"/>
<path d="M175.772 399.618L170.941 432.154C168.817 434.577 166.322 436.529 163.454 438.011C160.587 439.493 157.561 440.56 154.375 441.21C151.189 441.897 148.057 442.223 144.977 442.186C140.234 442.114 136.287 441.12 133.137 439.204C129.987 437.288 127.527 434.739 125.757 431.558C124.022 428.34 122.89 424.743 122.359 420.767C121.863 416.79 121.881 412.651 122.412 408.349L124.43 394.901C125.067 390.454 126.146 386.188 127.668 382.103C129.19 378.018 131.208 374.367 133.721 371.149C136.234 367.932 139.314 365.419 142.96 363.612C146.641 361.768 150.942 360.901 155.862 361.009C161.242 361.154 165.543 362.329 168.764 364.534C171.985 366.703 174.339 369.758 175.826 373.698C177.312 377.602 178.091 382.121 178.162 387.255H163.454C163.49 385.013 163.331 382.917 162.977 380.964C162.623 378.976 161.862 377.367 160.693 376.138C159.525 374.873 157.649 374.186 155.065 374.078C152.269 373.969 149.933 374.548 148.057 375.813C146.216 377.078 144.712 378.741 143.544 380.802C142.376 382.862 141.473 385.14 140.836 387.634C140.234 390.093 139.809 392.479 139.562 394.792L137.65 408.403C137.402 410.464 137.208 412.669 137.066 415.019C136.96 417.369 137.137 419.61 137.597 421.743C138.093 423.84 139.031 425.575 140.411 426.949C141.792 428.286 143.845 428.973 146.57 429.009C147.809 429.009 148.942 428.901 149.968 428.684C151.03 428.431 152.039 428.087 152.995 427.654C153.986 427.184 154.977 426.678 155.968 426.135L158.782 411.603H147.951L150.021 399.618H175.772Z" fill="url(#paint3_linear_4958_610)"/>
<path fill-rule="evenodd" clip-rule="evenodd" d="M223.293 441.102L232.213 388.502L225.238 362.148H221.434L208.107 441.102H223.293Z" fill="#005C6D"/>
<path d="M260.618 441.102L274.051 362.148H258.919L249.999 414.802L252.978 427.952L255.957 441.102H260.618Z" fill="url(#paint4_linear_4958_610)"/>
<path d="M232.213 388.502L245.805 441.102H255.957L252.978 427.952L249.999 414.802L236.301 362.148H225.238L232.213 388.502Z" fill="url(#paint5_linear_4958_610)"/>
<ellipse cx="252.5" cy="458.441" rx="12.5" ry="13" fill="#FFC24C"/>
<path d="M253.5 452.441L254.735 456.241H258.731L255.498 458.59L256.733 462.391L253.5 460.042L250.267 462.391L251.502 458.59L248.269 456.241H252.265L253.5 452.441Z" fill="white"/>
</g>
<ellipse cx="122" cy="848.5" rx="123" ry="113.5" fill="#005261"/>
<ellipse cx="122" cy="847.5" rx="94" ry="84.5" fill="#E6EFF0"/>
<ellipse cx="121.5" cy="854" rx="71.5" ry="66" fill="#005261"/>
<defs>
<filter id="filter0_d_4958_610" x="112" y="355" width="338.133" height="130.441" filterUnits="userSpaceOnUse" color-interpolation-filters="sRGB">
<feFlood flood-opacity="0" result="BackgroundImageFix"/>
<feColorMatrix in="SourceAlpha" type="matrix" values="0 0 0 0 0 0 0 0 0 0 0 0 0 0 0 0 0 0 127 0" result="hardAlpha"/>
<feOffset dy="4"/>
<feGaussianBlur stdDeviation="5"/>
<feComposite in2="hardAlpha" operator="out"/>
<feColorMatrix type="matrix" values="0 0 0 0 0 0 0 0 0 0 0 0 0 0 0 0 0 0 0.2 0"/>
<feBlend mode="normal" in2="BackgroundImageFix" result="effect1_dropShadow_4958_610"/>
<feBlend mode="normal" in="SourceGraphic" in2="effect1_dropShadow_4958_610" result="shape"/>
</filter>
<linearGradient id="paint0_linear_4958_610" x1="399.012" y1="408.573" x2="440.133" y2="384.977" gradientUnits="userSpaceOnUse">
<stop stop-color="#005C6D"/>
<stop offset="1" stop-color="#004854"/>
</linearGradient>
<linearGradient id="paint1_linear_4958_610" x1="344.914" y1="386.282" x2="356.508" y2="441.102" gradientUnits="userSpaceOnUse">
<stop stop-color="#005C6D"/>
<stop offset="1" stop-color="#004854"/>
</linearGradient>
<linearGradient id="paint2_linear_4958_610" x1="305.768" y1="378.398" x2="305.935" y2="441.102" gradientUnits="userSpaceOnUse">
<stop stop-color="#005C6D"/>
<stop offset="1" stop-color="#004854"/>
</linearGradient>
<linearGradient id="paint3_linear_4958_610" x1="150.081" y1="361" x2="119.825" y2="440.107" gradientUnits="userSpaceOnUse">
<stop offset="0.318242" stop-color="#005C6D"/>
<stop offset="1" stop-color="#004854"/>
</linearGradient>
<linearGradient id="paint4_linear_4958_610" x1="241.079" y1="362.148" x2="241.079" y2="441.102" gradientUnits="userSpaceOnUse">
<stop offset="0.405" stop-color="#FF4CA2"/>
<stop offset="1" stop-color="#4D1780"/>
</linearGradient>
<linearGradient id="paint5_linear_4958_610" x1="241.079" y1="362.148" x2="241.079" y2="441.102" gradientUnits="userSpaceOnUse">
<stop offset="0.09" stop-color="#4C7EFF"/>
<stop offset="1" stop-color="#00C1CF"/>
</linearGradient>
</defs>
</svg>
