<svg width="850" height="832" viewBox="0 0 850 832" fill="none" xmlns="http://www.w3.org/2000/svg">
<g clip-path="url(#clip0_3205_625)">
<rect width="850" height="832" fill="white"/>
<rect y="-4" width="850" height="832" fill="#E6EFF0"/>
<ellipse cx="20" cy="-12.5" rx="115" ry="113.5" fill="#005261"/>
<ellipse cx="18.5" cy="-12.5" rx="84.5" ry="83.5" fill="#E6EFF0"/>
<g filter="url(#filter0_d_3205_625)">
<path d="M516.116 410.856L530.717 410.639C530.151 416.134 528.646 420.978 526.204 425.172C523.797 429.365 520.523 432.619 516.382 434.933C512.275 437.246 507.426 438.331 501.833 438.186C497.161 438.078 493.321 437.048 490.312 435.095C487.303 433.107 484.985 430.504 483.356 427.287C481.728 424.033 480.719 420.436 480.33 416.496C479.941 412.519 479.994 408.47 480.489 404.349L482.507 390.955C483.144 386.581 484.224 382.351 485.746 378.266C487.268 374.145 489.285 370.475 491.799 367.258C494.312 364.004 497.391 361.456 501.037 359.612C504.718 357.768 508.966 356.901 513.78 357.009C519.337 357.117 523.726 358.437 526.947 360.968C530.204 363.462 532.54 366.806 533.956 371C535.372 375.193 536.097 379.838 536.133 384.936L520.948 384.882C521.089 382.423 521.054 380.092 520.841 377.886C520.629 375.645 519.921 373.819 518.718 372.409C517.55 370.963 515.514 370.186 512.612 370.078C509.78 369.969 507.444 370.548 505.603 371.813C503.798 373.078 502.347 374.759 501.249 376.856C500.188 378.953 499.373 381.23 498.807 383.689C498.276 386.147 497.851 388.533 497.533 390.846L495.674 404.403C495.427 406.283 495.197 408.38 494.984 410.693C494.807 413.007 494.86 415.248 495.143 417.418C495.427 419.587 496.152 421.394 497.32 422.84C498.488 424.286 500.382 425.082 503.002 425.226C506.081 425.335 508.488 424.756 510.222 423.491C511.957 422.226 513.249 420.49 514.098 418.285C514.983 416.044 515.656 413.567 516.116 410.856Z" fill="url(#paint0_linear_3205_625)"/>
<path d="M469.658 423.979L467.375 437.102H434.774L436.951 423.979H469.658ZM452.88 358.148L439.5 437.102H424.314L437.641 358.148H452.88ZM471.038 390.142L468.861 402.885H440.562L442.685 390.142H471.038ZM480.701 358.148L478.418 371.325H445.871L448.154 358.148H480.701Z" fill="url(#paint1_linear_3205_625)"/>
<path d="M410.457 358.148L397.024 437.102H381.892L395.325 358.148H410.457ZM429.04 358.148L426.81 371.325H374.83L377.06 358.148H429.04Z" fill="url(#paint2_linear_3205_625)"/>
<path d="M304.798 358.148L291.365 437.102H276.232L289.665 358.148H304.798Z" fill="#005C6D"/>
<path d="M271.772 395.618L266.941 428.154C264.817 430.577 262.322 432.529 259.454 434.011C256.587 435.493 253.561 436.56 250.375 437.21C247.189 437.897 244.057 438.223 240.977 438.186C236.234 438.114 232.287 437.12 229.137 435.204C225.987 433.288 223.527 430.739 221.757 427.558C220.022 424.34 218.89 420.743 218.359 416.767C217.863 412.79 217.881 408.651 218.412 404.349L220.43 390.901C221.067 386.454 222.146 382.188 223.668 378.103C225.19 374.018 227.208 370.367 229.721 367.149C232.234 363.932 235.314 361.419 238.96 359.612C242.641 357.768 246.942 356.901 251.862 357.009C257.242 357.154 261.543 358.329 264.764 360.534C267.985 362.703 270.339 365.758 271.826 369.698C273.312 373.602 274.091 378.121 274.162 383.255H259.454C259.49 381.013 259.331 378.917 258.977 376.964C258.623 374.976 257.862 373.367 256.693 372.138C255.525 370.873 253.649 370.186 251.065 370.078C248.269 369.969 245.933 370.548 244.057 371.813C242.216 373.078 240.712 374.741 239.544 376.802C238.376 378.862 237.473 381.14 236.836 383.634C236.234 386.093 235.809 388.479 235.562 390.792L233.65 404.403C233.402 406.464 233.208 408.669 233.066 411.019C232.96 413.369 233.137 415.61 233.597 417.743C234.093 419.84 235.031 421.575 236.411 422.949C237.792 424.286 239.845 424.973 242.57 425.009C243.809 425.009 244.942 424.901 245.968 424.684C247.03 424.431 248.039 424.087 248.995 423.654C249.986 423.184 250.977 422.678 251.968 422.135L254.782 407.603H243.951L246.021 395.618H271.772Z" fill="url(#paint3_linear_3205_625)"/>
<path fill-rule="evenodd" clip-rule="evenodd" d="M319.293 437.102L328.213 384.502L321.238 358.148H317.434L304.107 437.102H319.293Z" fill="#005C6D"/>
<path d="M356.618 437.102L370.051 358.148H354.919L345.999 410.802L348.978 423.952L351.957 437.102H356.618Z" fill="url(#paint4_linear_3205_625)"/>
<path d="M328.213 384.502L341.805 437.102H351.957L348.978 423.952L345.999 410.802L332.301 358.148H321.238L328.213 384.502Z" fill="url(#paint5_linear_3205_625)"/>
<ellipse cx="348.5" cy="454.441" rx="12.5" ry="13" fill="#FFC24C"/>
<path d="M349.5 448.441L350.735 452.241H354.731L351.498 454.59L352.733 458.391L349.5 456.042L346.267 458.391L347.502 454.59L344.269 452.241H348.265L349.5 448.441Z" fill="white"/>
</g>
<ellipse cx="122" cy="844.5" rx="123" ry="113.5" fill="#005261"/>
<ellipse cx="122" cy="843.5" rx="94" ry="84.5" fill="#E6EFF0"/>
<ellipse cx="121.5" cy="850" rx="71.5" ry="66" fill="#005261"/>
</g>
<defs>
<filter id="filter0_d_3205_625" x="208" y="351" width="338.133" height="130.441" filterUnits="userSpaceOnUse" color-interpolation-filters="sRGB">
<feFlood flood-opacity="0" result="BackgroundImageFix"/>
<feColorMatrix in="SourceAlpha" type="matrix" values="0 0 0 0 0 0 0 0 0 0 0 0 0 0 0 0 0 0 127 0" result="hardAlpha"/>
<feOffset dy="4"/>
<feGaussianBlur stdDeviation="5"/>
<feComposite in2="hardAlpha" operator="out"/>
<feColorMatrix type="matrix" values="0 0 0 0 0 0 0 0 0 0 0 0 0 0 0 0 0 0 0.2 0"/>
<feBlend mode="normal" in2="BackgroundImageFix" result="effect1_dropShadow_3205_625"/>
<feBlend mode="normal" in="SourceGraphic" in2="effect1_dropShadow_3205_625" result="shape"/>
</filter>
<linearGradient id="paint0_linear_3205_625" x1="495.012" y1="404.573" x2="536.133" y2="380.977" gradientUnits="userSpaceOnUse">
<stop stop-color="#005C6D"/>
<stop offset="1" stop-color="#004854"/>
</linearGradient>
<linearGradient id="paint1_linear_3205_625" x1="440.914" y1="382.282" x2="452.508" y2="437.102" gradientUnits="userSpaceOnUse">
<stop stop-color="#005C6D"/>
<stop offset="1" stop-color="#004854"/>
</linearGradient>
<linearGradient id="paint2_linear_3205_625" x1="401.768" y1="374.398" x2="401.935" y2="437.102" gradientUnits="userSpaceOnUse">
<stop stop-color="#005C6D"/>
<stop offset="1" stop-color="#004854"/>
</linearGradient>
<linearGradient id="paint3_linear_3205_625" x1="246.081" y1="357" x2="215.825" y2="436.107" gradientUnits="userSpaceOnUse">
<stop offset="0.318242" stop-color="#005C6D"/>
<stop offset="1" stop-color="#004854"/>
</linearGradient>
<linearGradient id="paint4_linear_3205_625" x1="337.079" y1="358.148" x2="337.079" y2="437.102" gradientUnits="userSpaceOnUse">
<stop offset="0.405" stop-color="#FF4CA2"/>
<stop offset="1" stop-color="#4D1780"/>
</linearGradient>
<linearGradient id="paint5_linear_3205_625" x1="337.079" y1="358.148" x2="337.079" y2="437.102" gradientUnits="userSpaceOnUse">
<stop offset="0.09" stop-color="#4C7EFF"/>
<stop offset="1" stop-color="#00C1CF"/>
</linearGradient>
<clipPath id="clip0_3205_625">
<rect width="850" height="832" fill="white"/>
</clipPath>
</defs>
</svg>
