<svg width="240" height="150" viewBox="0 0 240 150" fill="none" xmlns="http://www.w3.org/2000/svg">
<g clip-path="url(#clip0_4868_692)">
<rect width="240" height="150" fill="white"/>
<rect width="240" height="150" fill="#FF4CA2"/>
<path d="M76.7286 150C59.8839 150 70.6286 150 41 150C41 135.088 54.6553 123 71.5 123C88.3447 123 102 135.088 102 150C82.3929 150 93.5733 150 76.7286 150Z" fill="#FF3A99"/>
<path d="M75.3571 150C62.9307 150 70.8571 150 49 150C49 139.507 59.0736 131 71.5 131C83.9264 131 94 139.507 94 150C79.5357 150 87.7835 150 75.3571 150Z" fill="#FF4CA2"/>
<path d="M132.571 4.76837e-07C143.617 4.76837e-07 136.571 4.76837e-07 156 4.76837e-07C156 9.38884 147.046 17 136 17C124.954 17 116 9.38884 116 4.76837e-07C128.857 4.76837e-07 121.526 4.76837e-07 132.571 4.76837e-07Z" fill="#FF5EAB"/>
<circle cx="119.5" cy="98.5" r="3.5" transform="rotate(-90 119.5 98.5)" fill="#FF5EAB"/>
<circle cx="193.5" cy="29.5" r="5.5" transform="rotate(-90 193.5 29.5)" fill="#FF5EAB"/>
<circle cx="135" cy="112" r="6" transform="rotate(-90 135 112)" fill="#FF3A99"/>
<path d="M235.777 80.0764L199.177 73.5351C198.551 73.4232 197.905 73.5164 197.336 73.8009L164.081 90.427C163.529 90.7029 163.078 91.1445 162.792 91.6891C162.506 92.2338 162.4 92.854 162.487 93.4618L166.668 122.421C166.779 123.189 167.192 123.882 167.816 124.346C168.441 124.81 169.225 125.008 169.997 124.897C170.769 124.785 171.465 124.373 171.933 123.752C172.4 123.13 172.6 122.349 172.489 121.581L168.889 96.6395L181.694 98.9259C179.201 104.614 179.076 111.051 181.348 116.823C183.619 122.596 188.101 127.233 193.809 129.715C187.629 133.216 182.635 138.656 179.407 145.574C179.238 145.923 179.14 146.303 179.119 146.69C179.099 147.077 179.155 147.465 179.286 147.83C179.417 148.195 179.62 148.53 179.883 148.816C180.145 149.103 180.462 149.334 180.816 149.497C181.169 149.66 181.552 149.751 181.941 149.766C182.33 149.781 182.719 149.718 183.084 149.582C183.449 149.446 183.783 149.239 184.068 148.973C184.352 148.707 184.58 148.388 184.739 148.034C189.014 138.873 196.981 132.826 206.597 131.438C216.213 130.05 225.564 133.596 232.255 141.174C232.773 141.744 233.496 142.087 234.267 142.13C235.039 142.174 235.796 141.913 236.377 141.405C236.957 140.897 237.314 140.182 237.37 139.415C237.425 138.648 237.175 137.891 236.674 137.306C231.621 131.584 225.271 127.782 218.375 126.168C223.143 122.174 226.127 116.463 226.673 110.288C227.22 104.113 225.283 97.978 221.289 93.2282L236.572 85.5895C237.124 85.3137 237.575 84.8722 237.861 84.3275C238.148 83.7828 238.254 83.1625 238.167 82.5546C238.079 81.9467 237.801 81.382 237.373 80.9404C236.944 80.4989 236.387 80.2029 235.779 80.0945L235.777 80.0764ZM220.716 105.75C221.113 108.496 220.85 111.299 219.949 113.927C219.047 116.555 217.532 118.934 215.529 120.868C213.526 122.802 211.091 124.237 208.424 125.055C205.758 125.872 202.935 126.049 200.188 125.571C197.441 125.093 194.848 123.973 192.622 122.304C190.396 120.634 188.6 118.463 187.382 115.968C186.164 113.472 185.557 110.725 185.613 107.949C185.669 105.174 186.385 102.45 187.703 100.002L201.472 102.449C202.098 102.561 202.744 102.468 203.313 102.183L215.827 95.942C218.469 98.6057 220.182 102.043 220.716 105.75Z" fill="#FF3A99"/>
</g>
<defs>
<clipPath id="clip0_4868_692">
<rect width="240" height="150" fill="white"/>
</clipPath>
</defs>
</svg>
