<svg width="17" height="20" viewBox="0 0 17 20" fill="none" xmlns="http://www.w3.org/2000/svg">
<path d="M1 19H15.4" stroke="#005261" stroke-width="1.4" stroke-linecap="round"/>
<path d="M13.903 6.50014L14.5708 5.83414C14.8338 5.57123 15.0424 5.2591 15.1847 4.91556C15.3271 4.57203 15.4004 4.20382 15.4004 3.83196C15.4005 3.46011 15.3273 3.09188 15.185 2.74831C15.0427 2.40475 14.8342 2.09257 14.5713 1.82959C14.3084 1.56662 13.9962 1.35801 13.6527 1.21567C13.3092 1.07333 12.9409 1.00004 12.5691 1C12.1972 0.999958 11.829 1.07316 11.4854 1.21542C11.1419 1.35769 10.8297 1.56623 10.5667 1.82914L9.89892 2.49694C9.89892 2.49694 9.98262 3.91534 11.2336 5.16634C12.4846 6.41734 13.903 6.50104 13.903 6.50104L7.76772 12.6363C7.35192 13.0521 7.14492 13.2591 6.91542 13.4382C6.64542 13.6488 6.35292 13.8297 6.04332 13.9773C5.78142 14.1024 5.50242 14.1951 4.94532 14.3805L2.58192 15.1689M9.89892 2.49604L3.76362 8.63224C3.34782 9.04804 3.13992 9.25504 2.96172 9.48454C2.75087 9.75479 2.5701 10.0472 2.42262 10.3566C2.29752 10.6185 2.20482 10.8975 2.01852 11.4546L1.23103 13.818M1.23103 13.818L1.03933 14.3949C0.994388 14.5295 0.98782 14.6738 1.02036 14.8119C1.0529 14.9499 1.12325 15.0761 1.22354 15.1764C1.32382 15.2767 1.45006 15.3471 1.5881 15.3796C1.72614 15.4121 1.87051 15.4056 2.00502 15.3606L2.58192 15.1689M1.23103 13.818L2.58192 15.1689" stroke="#005261" stroke-width="1.4"/>
</svg>
