<svg width="18" height="22" viewBox="0 0 18 22" fill="none" xmlns="http://www.w3.org/2000/svg">
<path d="M1 21.0002H17" stroke="#005261" stroke-width="1.4" stroke-linecap="round"/>
<path d="M15.3372 7.11127L16.0792 6.37127C16.3714 6.07915 16.6032 5.73233 16.7613 5.35062C16.9195 4.96892 17.0009 4.5598 17.001 4.14663C17.001 3.73345 16.9197 3.32431 16.7616 2.94257C16.6035 2.56083 16.3718 2.21396 16.0797 1.92177C15.7876 1.62958 15.4407 1.39779 15.059 1.23963C14.6773 1.08147 14.2682 1.00005 13.855 1C13.4419 0.999954 13.0327 1.08129 12.651 1.23936C12.2692 1.39743 11.9224 1.62915 11.6302 1.92127L10.8882 2.66327C10.8882 2.66327 10.9812 4.23927 12.3712 5.62927C13.7612 7.01927 15.3372 7.11227 15.3372 7.11227L8.52018 13.9293C8.05818 14.3913 7.82818 14.6213 7.57318 14.8203C7.27318 15.0543 6.94818 15.2553 6.60418 15.4193C6.31318 15.5583 6.00318 15.6613 5.38418 15.8673L2.75818 16.7433M10.8882 2.66227L4.07118 9.48027C3.60918 9.94227 3.37818 10.1723 3.18018 10.4273C2.94589 10.7275 2.74504 11.0525 2.58118 11.3963C2.44218 11.6873 2.33918 11.9973 2.13218 12.6163L1.25718 15.2423M1.25718 15.2423L1.04418 15.8833C0.994253 16.0327 0.986955 16.1931 1.02311 16.3465C1.05926 16.4999 1.13744 16.6402 1.24886 16.7516C1.36029 16.863 1.50056 16.9412 1.65393 16.9773C1.80731 17.0135 1.96772 17.0062 2.11718 16.9563L2.75818 16.7433M1.25718 15.2423L2.75818 16.7433" stroke="#005261" stroke-width="1.4"/>
</svg>
