<svg width="20" height="20" viewBox="0 0 20 20" fill="none" xmlns="http://www.w3.org/2000/svg">
<path d="M11.8 19H8.2C4.8061 19 3.1087 19 2.0548 17.9182C1 16.8372 1 15.0963 1 11.6154V9.76923C1 6.28831 1 4.54738 2.0548 3.46646C3.1087 2.38462 4.8061 2.38462 8.2 2.38462H11.8C15.1939 2.38462 16.8913 2.38462 17.9452 3.46646C19 4.54738 19 6.28831 19 9.76923V11.6154C19 15.0963 19 16.8372 17.9452 17.9182C17.3575 18.5218 16.57 18.7886 15.4 18.9058M5.5 2.38462V1M14.5 2.38462V1M18.55 7H8.875M1 7H4.4875" stroke="#005261" stroke-width="1.5" stroke-linecap="round"/>
<path d="M15.2693 14.3849C15.2693 14.4971 15.2247 14.6047 15.1454 14.6841C15.066 14.7634 14.9584 14.808 14.8462 14.808C14.734 14.808 14.6264 14.7634 14.5471 14.6841C14.4677 14.6047 14.4232 14.4971 14.4232 14.3849C14.4232 14.2727 14.4677 14.1651 14.5471 14.0858C14.6264 14.0064 14.734 13.9618 14.8462 13.9618C14.9584 13.9618 15.066 14.0064 15.1454 14.0858C15.2247 14.1651 15.2693 14.2727 15.2693 14.3849ZM5.91462 14.0858L6.26817 13.7322L5.91462 14.0858C5.99396 14.1651 6.03854 14.2727 6.03854 14.3849C6.03854 14.4971 5.99396 14.6047 5.91462 14.6841C5.83528 14.7634 5.72767 14.808 5.61546 14.808C5.50325 14.808 5.39564 14.7634 5.3163 14.6841C5.23696 14.6047 5.19238 14.4971 5.19238 14.3849C5.19238 14.2727 5.23696 14.1651 5.3163 14.0858C5.39564 14.0064 5.50325 13.9618 5.61546 13.9618C5.72767 13.9618 5.83528 14.0064 5.91462 14.0858ZM15.1454 10.9918L15.4989 11.3453L15.1454 10.9918C15.066 11.0711 14.9584 11.1157 14.8462 11.1157C14.734 11.1157 14.6264 11.0711 14.5471 10.9918L14.1935 11.3453L14.5471 10.9918C14.4677 10.9124 14.4232 10.8048 14.4232 10.6926C14.4232 10.5804 14.4677 10.4728 14.5471 10.3934C14.6264 10.3141 14.734 10.2695 14.8462 10.2695C14.9584 10.2695 15.066 10.3141 15.1454 10.3934C15.2247 10.4728 15.2693 10.5804 15.2693 10.6926C15.2693 10.8048 15.2247 10.9124 15.1454 10.9918ZM10.6539 14.3849C10.6539 14.4971 10.6093 14.6047 10.53 14.6841C10.4507 14.7634 10.3431 14.808 10.2308 14.808C10.1186 14.808 10.011 14.7634 9.93168 14.6841C9.85234 14.6047 9.80777 14.4971 9.80777 14.3849C9.80777 14.2727 9.85234 14.1651 9.93168 14.0858C10.011 14.0064 10.1186 13.9618 10.2308 13.9618C10.3431 13.9618 10.4507 14.0064 10.53 14.0858C10.6093 14.1651 10.6539 14.2727 10.6539 14.3849ZM10.6539 10.6926C10.6539 10.8048 10.6093 10.9124 10.53 10.9918C10.4507 11.0711 10.3431 11.1157 10.2308 11.1157C10.1186 11.1157 10.011 11.0711 9.93168 10.9918C9.85234 10.9124 9.80777 10.8048 9.80777 10.6926C9.80777 10.5804 9.85234 10.4728 9.93168 10.3934C10.011 10.3141 10.1186 10.2695 10.2308 10.2695C10.3431 10.2695 10.4507 10.3141 10.53 10.3934C10.6093 10.4728 10.6539 10.5804 10.6539 10.6926ZM6.03854 10.6926C6.03854 10.8048 5.99396 10.9124 5.91462 10.9918C5.83528 11.0711 5.72767 11.1157 5.61546 11.1157C5.50325 11.1157 5.39564 11.0711 5.3163 10.9918C5.23696 10.9124 5.19238 10.8048 5.19238 10.6926C5.19238 10.5804 5.23696 10.4728 5.3163 10.3934C5.39564 10.3141 5.50325 10.2695 5.61546 10.2695C5.72767 10.2695 5.83528 10.3141 5.91462 10.3934C5.99396 10.4728 6.03854 10.5804 6.03854 10.6926Z" fill="white" stroke="#005261"/>
</svg>
