<svg width="20" height="20" viewBox="0 0 20 20" fill="none" xmlns="http://www.w3.org/2000/svg">
<path d="M11.8 19H8.2C4.8061 19 3.1087 19 2.0548 17.9182C1 16.8372 1 15.0963 1 11.6154V9.76923C1 6.28831 1 4.54738 2.0548 3.46646C3.1087 2.38462 4.8061 2.38462 8.2 2.38462H11.8C15.1939 2.38462 16.8913 2.38462 17.9452 3.46646C19 4.54738 19 6.28831 19 9.76923V11.6154C19 15.0963 19 16.8372 17.9452 17.9182C17.3575 18.5218 16.57 18.7886 15.4 18.9058M5.5 2.38462V1M14.5 2.38462V1M18.55 7H8.875M1 7H4.4875" stroke="#005261" stroke-width="1.5" stroke-linecap="round"/>
<path d="M15.2693 14.3844C15.2693 14.4966 15.2247 14.6042 15.1454 14.6836C15.066 14.7629 14.9584 14.8075 14.8462 14.8075C14.734 14.8075 14.6264 14.7629 14.5471 14.6836C14.4677 14.6042 14.4232 14.4966 14.4232 14.3844C14.4232 14.2722 14.4677 14.1646 14.5471 14.0853C14.6264 14.0059 14.734 13.9614 14.8462 13.9614C14.9584 13.9614 15.066 14.0059 15.1454 14.0853C15.2247 14.1646 15.2693 14.2722 15.2693 14.3844ZM5.91462 14.0853L6.26817 13.7317L5.91462 14.0853C5.99396 14.1646 6.03854 14.2722 6.03854 14.3844C6.03854 14.4966 5.99396 14.6042 5.91462 14.6836C5.83528 14.7629 5.72767 14.8075 5.61546 14.8075C5.50325 14.8075 5.39564 14.7629 5.3163 14.6836C5.23696 14.6042 5.19238 14.4966 5.19238 14.3844C5.19238 14.2722 5.23696 14.1646 5.3163 14.0853C5.39564 14.0059 5.50325 13.9614 5.61546 13.9614C5.72767 13.9614 5.83528 14.0059 5.91462 14.0853ZM15.1454 10.9913L15.4989 11.3448L15.1454 10.9913C15.066 11.0706 14.9584 11.1152 14.8462 11.1152C14.734 11.1152 14.6264 11.0706 14.5471 10.9913L14.1935 11.3448L14.5471 10.9913C14.4677 10.9119 14.4232 10.8043 14.4232 10.6921C14.4232 10.5799 14.4677 10.4723 14.5471 10.393C14.6264 10.3136 14.734 10.269 14.8462 10.269C14.9584 10.269 15.066 10.3136 15.1454 10.393C15.2247 10.4723 15.2693 10.5799 15.2693 10.6921C15.2693 10.8043 15.2247 10.9119 15.1454 10.9913ZM10.6539 14.3844C10.6539 14.4966 10.6093 14.6042 10.53 14.6836C10.4507 14.7629 10.3431 14.8075 10.2308 14.8075C10.1186 14.8075 10.011 14.7629 9.93168 14.6836C9.85234 14.6042 9.80777 14.4966 9.80777 14.3844C9.80777 14.2722 9.85234 14.1646 9.93168 14.0853C10.011 14.0059 10.1186 13.9614 10.2308 13.9614C10.3431 13.9614 10.4507 14.0059 10.53 14.0853C10.6093 14.1646 10.6539 14.2722 10.6539 14.3844ZM10.6539 10.6921C10.6539 10.8043 10.6093 10.9119 10.53 10.9913C10.4507 11.0706 10.3431 11.1152 10.2308 11.1152C10.1186 11.1152 10.011 11.0706 9.93168 10.9913C9.85234 10.9119 9.80777 10.8043 9.80777 10.6921C9.80777 10.5799 9.85234 10.4723 9.93168 10.393C10.011 10.3136 10.1186 10.269 10.2308 10.269C10.3431 10.269 10.4507 10.3136 10.53 10.393C10.6093 10.4723 10.6539 10.5799 10.6539 10.6921ZM6.03854 10.6921C6.03854 10.8043 5.99396 10.9119 5.91462 10.9913C5.83528 11.0706 5.72767 11.1152 5.61546 11.1152C5.50325 11.1152 5.39564 11.0706 5.3163 10.9913C5.23696 10.9119 5.19238 10.8043 5.19238 10.6921C5.19238 10.5799 5.23696 10.4723 5.3163 10.393C5.39564 10.3136 5.50325 10.269 5.61546 10.269C5.72767 10.269 5.83528 10.3136 5.91462 10.393C5.99396 10.4723 6.03854 10.5799 6.03854 10.6921Z" fill="white" stroke="#005261"/>
</svg>
