<svg width="32" height="32" viewBox="0 0 32 32" fill="none" xmlns="http://www.w3.org/2000/svg">
<path d="M11.3248 21.1102L21.0199 11.2361M1.68457 10.635L10.3759 1.78314C10.6516 1.50236 11.1027 1.49823 11.3835 1.77392L30.6519 20.693C30.9327 20.9687 30.9368 21.4198 30.6611 21.7006L21.9698 30.5524C21.6941 30.8332 21.243 30.8373 20.9622 30.5616L1.69379 11.6426C1.413 11.3669 1.40888 10.9157 1.68457 10.635ZM10.9181 8.67631C12.221 8.66439 13.2868 9.71092 13.2988 11.0138C13.3107 12.3167 12.2642 13.3825 10.9613 13.3944C9.6584 13.4064 8.59255 12.3598 8.58063 11.057C8.56871 9.75408 9.61524 8.68823 10.9181 8.67631ZM21.3199 15.4689C22.6227 15.457 23.6886 16.5036 23.7005 17.8064C23.7124 19.1093 22.6659 20.1752 21.363 20.1871C20.0601 20.199 18.9943 19.1525 18.9824 17.8496C18.9705 16.5467 20.017 15.4809 21.3199 15.4689ZM21.3831 22.3799C22.686 22.368 23.7518 23.4145 23.7637 24.7174C23.7756 26.0203 22.7291 27.0861 21.4262 27.098C20.1234 27.11 19.0575 26.0634 19.0456 24.7606C19.0337 23.4577 20.0802 22.3918 21.3831 22.3799Z" stroke="white" stroke-width="2" stroke-linecap="round" stroke-linejoin="round"/>
</svg>
