<svg width="22" height="22" viewBox="0 0 22 22" fill="none" xmlns="http://www.w3.org/2000/svg">
<path d="M11 7L14.804 9.764M11 7L7.196 9.764M11 7V4M14.804 9.764L13.351 14.236H8.65M14.804 9.764L17.5 8.5M7.196 9.764L8.65 14.236M7.196 9.764L4.5 8.5M11 4L7.624 1.584M11 4L14.376 1.584M17.5 8.5L20.95 12M17.5 8.5L18.5 4.385M8.65 14.236L7 16.5M13.352 14.236L15 16.5M15 16.5L19.662 16M15 16.5L12.5 20.888M7 16.5L2.338 16M7 16.5L9.5 20.888M4.5 8.5L1.05 12M4.5 8.5L3.5 4.385M21 11C21 16.523 16.523 21 11 21C5.477 21 1 16.523 1 11C1 5.477 5.477 1 11 1C16.523 1 21 5.477 21 11Z" stroke="white" stroke-width="1.5" stroke-linecap="round" stroke-linejoin="round"/>
</svg>
