<svg width="108" height="114" viewBox="0 0 108 114" fill="none" xmlns="http://www.w3.org/2000/svg">
<circle cx="46" cy="2" r="2" fill="#FF8282"/>
<circle cx="58" cy="2" r="2" fill="#FF8282"/>
<circle cx="70" cy="2" r="2" fill="#FF8282"/>
<circle cx="82" cy="2" r="2" fill="#FF8282"/>
<circle cx="94" cy="2" r="2" fill="#FF8282"/>
<circle cx="106" cy="2" r="2" fill="#FF8282"/>
<circle cx="46" cy="12" r="2" fill="#FF8282"/>
<circle cx="58" cy="12" r="2" fill="#FF8282"/>
<circle cx="70" cy="12" r="2" fill="#FF8282"/>
<circle cx="82" cy="12" r="2" fill="#FF8282"/>
<circle cx="94" cy="12" r="2" fill="#FF8282"/>
<circle cx="106" cy="12" r="2" fill="#FF8282"/>
<circle cx="94" cy="22" r="2" fill="#FF8282"/>
<circle cx="106" cy="22" r="2" fill="#FF8282"/>
<circle cx="94" cy="32" r="2" fill="#FF8282"/>
<circle cx="106" cy="32" r="2" fill="#FF8282"/>
<circle cx="94" cy="42" r="2" fill="#FF8282"/>
<circle cx="106" cy="42" r="2" fill="#FF8282"/>
<circle cx="94" cy="52" r="2" fill="#FF8282"/>
<circle cx="106" cy="52" r="2" fill="#FF8282"/>
<circle cx="94" cy="62" r="2" fill="#FF8282"/>
<circle cx="106" cy="62" r="2" fill="#FF8282"/>
<circle cx="94" cy="72" r="2" fill="#FF8282"/>
<circle cx="106" cy="72" r="2" fill="#FF8282"/>
<circle cx="94" cy="82" r="2" fill="#FF8282"/>
<circle cx="106" cy="82" r="2" fill="#FF8282"/>
<circle cx="94" cy="92" r="2" fill="#FF8282"/>
<circle cx="106" cy="92" r="2" fill="#FF8282"/>
<circle cx="46" cy="102" r="2" fill="#FF8282"/>
<circle cx="58" cy="102" r="2" fill="#FF8282"/>
<circle cx="70" cy="102" r="2" fill="#FF8282"/>
<circle cx="82" cy="102" r="2" fill="#FF8282"/>
<circle cx="94" cy="102" r="2" fill="#FF8282"/>
<circle cx="106" cy="102" r="2" fill="#FF8282"/>
<circle cx="46" cy="112" r="2" fill="#FF8282"/>
<circle cx="58" cy="112" r="2" fill="#FF8282"/>
<circle cx="70" cy="112" r="2" fill="#FF8282"/>
<circle cx="82" cy="112" r="2" fill="#FF8282"/>
<circle cx="94" cy="112" r="2" fill="#FF8282"/>
<circle cx="106" cy="112" r="2" fill="#FF8282"/>
<g filter="url(#filter0_d_1591_746)">
<rect x="10" y="19" width="77" height="77" rx="7" fill="#FF4C4D"/>
</g>
<path d="M48.5 57.1246C51.5229 57.1246 54.1227 54.455 54.1227 50.9785C54.1227 47.5442 51.5087 45 48.5 45C45.4913 45 42.8763 47.6003 42.8763 51.0066C42.8763 54.455 45.4771 57.1246 48.5 57.1246ZM32.3189 57.4438C34.9339 57.4438 37.2119 55.1084 37.2119 52.0915C37.2119 49.1018 34.9197 46.8908 32.3189 46.8908C29.7039 46.8908 27.3984 49.157 27.4126 52.1187C27.4126 55.1084 29.6897 57.4448 32.3189 57.4448M64.6811 57.4448C67.3103 57.4448 69.5874 55.1093 69.5874 52.1196C69.5874 49.1579 67.2961 46.8918 64.6811 46.8918C62.0803 46.8918 59.7881 49.1027 59.7881 52.0915C59.7881 55.1093 62.0661 57.4448 64.6811 57.4448ZM24.474 70H35.1591C33.6969 67.9004 35.4819 63.6732 38.5048 61.3649C36.9432 60.3362 34.9339 59.5715 32.3057 59.5715C25.9636 59.5715 22 64.2012 22 68.053C22 69.3045 22.7032 70 24.474 70ZM72.526 70C74.311 70 75 69.3045 75 68.053C75 64.2012 71.0354 59.5715 64.6953 59.5715C62.0661 59.5715 60.0559 60.3362 58.4962 61.3649C61.5181 63.6732 63.304 67.9004 61.8418 70H72.526ZM39.6566 70H57.3283C59.5354 70 60.3228 69.3738 60.3228 68.1504C60.3228 64.5634 55.7818 59.6136 48.4858 59.6136C41.204 59.6136 36.663 64.5634 36.663 68.1504C36.663 69.3738 37.4495 70 39.6566 70Z" fill="white"/>
<defs>
<filter id="filter0_d_1591_746" x="0" y="16" width="97" height="97" filterUnits="userSpaceOnUse" color-interpolation-filters="sRGB">
<feFlood flood-opacity="0" result="BackgroundImageFix"/>
<feColorMatrix in="SourceAlpha" type="matrix" values="0 0 0 0 0 0 0 0 0 0 0 0 0 0 0 0 0 0 127 0" result="hardAlpha"/>
<feOffset dy="7"/>
<feGaussianBlur stdDeviation="5"/>
<feComposite in2="hardAlpha" operator="out"/>
<feColorMatrix type="matrix" values="0 0 0 0 1 0 0 0 0 0.298039 0 0 0 0 0.301961 0 0 0 0.3 0"/>
<feBlend mode="normal" in2="BackgroundImageFix" result="effect1_dropShadow_1591_746"/>
<feBlend mode="normal" in="SourceGraphic" in2="effect1_dropShadow_1591_746" result="shape"/>
</filter>
</defs>
</svg>
