<svg width="17" height="18" viewBox="0 0 17 18" fill="none" xmlns="http://www.w3.org/2000/svg">
<path fill-rule="evenodd" clip-rule="evenodd" d="M8.17868 5.62451C7.37954 5.62451 6.61313 5.94197 6.04806 6.50704C5.48298 7.07212 5.16553 7.83853 5.16553 8.63766C5.16553 9.4368 5.48298 10.2032 6.04806 10.7683C6.61313 11.3334 7.37954 11.6508 8.17868 11.6508C8.97782 11.6508 9.74422 11.3334 10.3093 10.7683C10.8744 10.2032 11.1918 9.4368 11.1918 8.63766C11.1918 7.83853 10.8744 7.07212 10.3093 6.50704C9.74422 5.94197 8.97782 5.62451 8.17868 5.62451ZM6.37079 8.63766C6.37079 8.15818 6.56126 7.69834 6.90031 7.35929C7.23935 7.02025 7.6992 6.82977 8.17868 6.82977C8.65816 6.82977 9.11801 7.02025 9.45705 7.35929C9.7961 7.69834 9.98657 8.15818 9.98657 8.63766C9.98657 9.11715 9.7961 9.57699 9.45705 9.91604C9.11801 10.2551 8.65816 10.4456 8.17868 10.4456C7.6992 10.4456 7.23935 10.2551 6.90031 9.91604C6.56126 9.57699 6.37079 9.11715 6.37079 8.63766Z" fill="#005261"/>
<path fill-rule="evenodd" clip-rule="evenodd" d="M8.1584 0C7.80084 0 7.50274 -1.49665e-08 7.25847 0.0160701C7.00879 0.0264673 6.76255 0.078051 6.52969 0.168737C6.26152 0.279692 6.01783 0.44239 5.81255 0.647536C5.60726 0.852682 5.4444 1.09626 5.33327 1.36435C5.21676 1.64558 5.18542 1.94288 5.17257 2.26589C5.17128 2.38402 5.14001 2.49989 5.08168 2.60263C5.02336 2.70537 4.93989 2.79161 4.83911 2.85325C4.73536 2.9099 4.61892 2.93925 4.50072 2.93855C4.38251 2.93785 4.26643 2.90712 4.16336 2.84924C3.87731 2.69818 3.60412 2.57685 3.302 2.53667C3.0143 2.49883 2.72196 2.51802 2.44168 2.59316C2.1614 2.6683 1.89866 2.79791 1.66847 2.97458C1.47384 3.13117 1.30634 3.31876 1.17271 3.52981C1.03611 3.7339 0.886659 3.99182 0.70828 4.30117L0.688192 4.33653C0.50901 4.64588 0.360361 4.9038 0.252692 5.12396C0.140201 5.35377 0.0518147 5.58036 0.0196745 5.83105C-0.0569799 6.41198 0.10025 6.99957 0.456782 7.46458C0.642393 7.70644 0.884248 7.8824 1.15744 8.05436C1.25929 8.11457 1.34415 8.19971 1.40403 8.30176C1.46391 8.40381 1.49685 8.51942 1.49973 8.6377C1.49685 8.75599 1.46391 8.87159 1.40403 8.97364C1.34415 9.07569 1.25929 9.16083 1.15744 9.22105C0.884248 9.393 0.643196 9.56897 0.456782 9.81082C0.280105 10.041 0.150497 10.3038 0.0753599 10.584C0.000222923 10.8643 -0.018972 11.1567 0.018871 11.4444C0.0518148 11.695 0.139397 11.9216 0.251888 12.1514C0.360362 12.3716 0.50901 12.6295 0.688192 12.9389L0.70828 12.9742C0.886659 13.2836 1.03611 13.5415 1.17271 13.7456C1.31493 13.9569 1.46759 14.1474 1.66847 14.3C1.8986 14.4768 2.16131 14.6066 2.4416 14.6819C2.72188 14.7571 3.01425 14.7765 3.302 14.7387C3.60412 14.6986 3.87731 14.578 4.16336 14.4262C4.2663 14.3684 4.38225 14.3377 4.50032 14.337C4.61838 14.3363 4.73468 14.3656 4.83831 14.4221C4.93964 14.4833 5.02364 14.5694 5.08229 14.6722C5.14094 14.775 5.17229 14.8912 5.17337 15.0095C5.18542 15.3325 5.21676 15.6298 5.33407 15.911C5.44503 16.1792 5.60772 16.4229 5.81287 16.6282C6.01802 16.8335 6.26159 16.9963 6.52969 17.1075C6.76271 17.2039 7.00376 17.2417 7.25847 17.2585C7.50274 17.2754 7.80084 17.2754 8.1584 17.2754H8.19857C8.55613 17.2754 8.85424 17.2754 9.0985 17.2593C9.35402 17.2417 9.59427 17.2039 9.82728 17.1067C10.0955 16.9957 10.3391 16.833 10.5444 16.6279C10.7497 16.4227 10.9126 16.1791 11.0237 15.911C11.1402 15.6298 11.1716 15.3325 11.1844 15.0095C11.1856 14.8912 11.2168 14.7752 11.2751 14.6723C11.3334 14.5694 11.417 14.4831 11.5179 14.4213C11.6217 14.3648 11.7382 14.3356 11.8564 14.3364C11.9746 14.3373 12.0906 14.3682 12.1936 14.4262C12.4797 14.5772 12.7529 14.6986 13.055 14.7379C13.6359 14.8146 14.2235 14.6574 14.6885 14.3008C14.8894 14.1465 15.042 13.9569 15.1843 13.7456C15.3209 13.5415 15.4703 13.2836 15.6487 12.9742L15.6688 12.9389C15.848 12.6295 15.9966 12.3716 16.1043 12.1514C16.2168 11.9216 16.3052 11.6942 16.3373 11.4444C16.414 10.8634 16.2567 10.2758 15.9002 9.81082C15.7146 9.56897 15.4727 9.393 15.1995 9.22105C15.0977 9.16083 15.0128 9.07569 14.9529 8.97364C14.8931 8.87159 14.8601 8.75599 14.8572 8.6377C14.8572 8.41433 14.9794 8.19256 15.1995 8.05436C15.4727 7.8824 15.7138 7.70644 15.9002 7.46458C16.0769 7.23439 16.2065 6.97165 16.2816 6.69137C16.3568 6.41109 16.3759 6.11875 16.3381 5.83105C16.2999 5.58414 16.2211 5.34523 16.1051 5.12396C15.9679 4.857 15.8224 4.59439 15.6688 4.33653L15.6487 4.30117C15.5019 4.0393 15.347 3.78205 15.1843 3.52981C15.0506 3.31898 14.8831 3.13166 14.6885 2.97539C14.4584 2.79857 14.1957 2.66882 13.9154 2.59354C13.6351 2.51827 13.3427 2.49894 13.055 2.53667C12.7529 2.57685 12.4797 2.69737 12.1936 2.84924C12.0906 2.90697 11.9747 2.93763 11.8567 2.93833C11.7386 2.93903 11.6223 2.90976 11.5187 2.85325C11.4176 2.7918 11.3338 2.70565 11.2752 2.6029C11.2166 2.50014 11.1851 2.38417 11.1836 2.26589C11.1715 1.94288 11.1402 1.64558 11.0229 1.36435C10.9119 1.09618 10.7492 0.852498 10.5441 0.647214C10.339 0.44193 10.0954 0.279069 9.82728 0.167933C9.59427 0.0715121 9.35321 0.0337473 9.0985 0.0168737C8.85424 2.24497e-08 8.55613 0 8.19857 0H8.1584ZM6.9909 1.28159C7.05277 1.25588 7.14678 1.23258 7.34043 1.21892C7.53889 1.20526 7.79602 1.20526 8.17849 1.20526C8.56096 1.20526 8.81808 1.20526 9.01654 1.21892C9.21019 1.23258 9.3042 1.25588 9.36607 1.28159C9.61275 1.38364 9.808 1.57889 9.91004 1.82557C9.94218 1.9027 9.9687 2.02403 9.97915 2.31089C10.0033 2.94726 10.3319 3.56034 10.9152 3.89701C11.4986 4.23448 12.1936 4.21198 12.7569 3.91469C13.0108 3.7805 13.1289 3.74274 13.2125 3.73229C13.4765 3.69741 13.7435 3.76879 13.9549 3.93076C14.0079 3.97174 14.0754 4.04164 14.1839 4.20234C14.2956 4.36786 14.4241 4.59044 14.6154 4.92148C14.8066 5.25253 14.9344 5.4759 15.022 5.65428C15.1079 5.82864 15.1344 5.92185 15.1425 5.98854C15.1774 6.25254 15.106 6.5196 14.944 6.73098C14.8926 6.79767 14.801 6.88123 14.5583 7.0339C14.0184 7.37298 13.652 7.96436 13.652 8.6377C13.652 9.31104 14.0184 9.90242 14.5583 10.2415C14.801 10.3942 14.8926 10.4777 14.944 10.5444C15.1063 10.7557 15.177 11.0225 15.1425 11.2869C15.1344 11.3536 15.1071 11.4476 15.022 11.6211C14.9344 11.8003 14.8066 12.0229 14.6154 12.3539C14.4241 12.685 14.2948 12.9075 14.1839 13.0731C14.0754 13.2338 14.0079 13.3037 13.9549 13.3446C13.7435 13.5066 13.4765 13.578 13.2125 13.5431C13.1289 13.5327 13.0116 13.4949 12.7569 13.3607C12.1944 13.0634 11.4986 13.0409 10.9152 13.3776C10.3319 13.7151 10.0033 14.3281 9.97915 14.9645C9.9687 15.2514 9.94218 15.3727 9.91004 15.4498C9.85957 15.5718 9.78554 15.6826 9.6922 15.776C9.59886 15.8693 9.48804 15.9433 9.36607 15.9938C9.3042 16.0195 9.21019 16.0428 9.01654 16.0565C8.81808 16.0701 8.56096 16.0701 8.17849 16.0701C7.79602 16.0701 7.53889 16.0701 7.34043 16.0565C7.14678 16.0428 7.05277 16.0195 6.9909 15.9938C6.86893 15.9433 6.75811 15.8693 6.66477 15.776C6.57143 15.6826 6.49741 15.5718 6.44693 15.4498C6.41479 15.3727 6.38827 15.2514 6.37783 14.9645C6.35372 14.3281 6.02509 13.7151 5.44174 13.3784C4.85839 13.0409 4.16336 13.0634 3.6001 13.3607C3.34619 13.4949 3.22808 13.5327 3.14451 13.5431C2.88051 13.578 2.61346 13.5066 2.40207 13.3446C2.34904 13.3037 2.28155 13.2338 2.17307 13.0731C2.02194 12.8378 1.87805 12.598 1.74159 12.3539C1.55036 12.0229 1.4226 11.7995 1.33502 11.6211C1.24904 11.4468 1.22252 11.3536 1.21449 11.2869C1.1796 11.0229 1.25099 10.7558 1.41296 10.5444C1.46438 10.4777 1.55598 10.3942 1.79864 10.2415C2.3386 9.90242 2.705 9.31104 2.705 8.6377C2.705 7.96436 2.3386 7.37298 1.79864 7.0339C1.55598 6.88123 1.46438 6.79767 1.41296 6.73098C1.25099 6.5196 1.1796 6.25254 1.21449 5.98854C1.22252 5.92185 1.24984 5.82784 1.33502 5.65428C1.4226 5.4751 1.55036 5.25253 1.74159 4.92148C1.93283 4.59044 2.06219 4.36786 2.17307 4.20234C2.28155 4.04164 2.34904 3.97174 2.40207 3.93076C2.61346 3.76879 2.88051 3.69741 3.14451 3.73229C3.22808 3.74274 3.34539 3.7805 3.6001 3.91469C4.16256 4.21198 4.85839 4.23448 5.44174 3.89701C6.02509 3.56034 6.35372 2.94726 6.37783 2.31089C6.38827 2.02403 6.41479 1.9027 6.44693 1.82557C6.54897 1.57889 6.74423 1.38364 6.9909 1.28159Z" fill="#005261"/>
</svg>
