<svg width="108" height="114" viewBox="0 0 108 114" fill="none" xmlns="http://www.w3.org/2000/svg">
<circle cx="46" cy="2" r="2" fill="#82A5FF"/>
<circle cx="58" cy="2" r="2" fill="#82A5FF"/>
<circle cx="70" cy="2" r="2" fill="#82A5FF"/>
<circle cx="82" cy="2" r="2" fill="#82A5FF"/>
<circle cx="94" cy="2" r="2" fill="#82A5FF"/>
<circle cx="106" cy="2" r="2" fill="#82A5FF"/>
<circle cx="46" cy="12" r="2" fill="#82A5FF"/>
<circle cx="58" cy="12" r="2" fill="#82A5FF"/>
<circle cx="70" cy="12" r="2" fill="#82A5FF"/>
<circle cx="82" cy="12" r="2" fill="#82A5FF"/>
<circle cx="94" cy="12" r="2" fill="#82A5FF"/>
<circle cx="106" cy="12" r="2" fill="#82A5FF"/>
<circle cx="94" cy="22" r="2" fill="#82A5FF"/>
<circle cx="106" cy="22" r="2" fill="#82A5FF"/>
<circle cx="94" cy="32" r="2" fill="#82A5FF"/>
<circle cx="106" cy="32" r="2" fill="#82A5FF"/>
<circle cx="94" cy="42" r="2" fill="#82A5FF"/>
<circle cx="106" cy="42" r="2" fill="#82A5FF"/>
<circle cx="94" cy="52" r="2" fill="#82A5FF"/>
<circle cx="106" cy="52" r="2" fill="#82A5FF"/>
<circle cx="94" cy="62" r="2" fill="#82A5FF"/>
<circle cx="106" cy="62" r="2" fill="#82A5FF"/>
<circle cx="94" cy="72" r="2" fill="#82A5FF"/>
<circle cx="106" cy="72" r="2" fill="#82A5FF"/>
<circle cx="94" cy="82" r="2" fill="#82A5FF"/>
<circle cx="106" cy="82" r="2" fill="#82A5FF"/>
<circle cx="94" cy="92" r="2" fill="#82A5FF"/>
<circle cx="106" cy="92" r="2" fill="#82A5FF"/>
<circle cx="46" cy="102" r="2" fill="#82A5FF"/>
<circle cx="58" cy="102" r="2" fill="#82A5FF"/>
<circle cx="70" cy="102" r="2" fill="#82A5FF"/>
<circle cx="82" cy="102" r="2" fill="#82A5FF"/>
<circle cx="94" cy="102" r="2" fill="#82A5FF"/>
<circle cx="106" cy="102" r="2" fill="#82A5FF"/>
<circle cx="46" cy="112" r="2" fill="#82A5FF"/>
<circle cx="58" cy="112" r="2" fill="#82A5FF"/>
<circle cx="70" cy="112" r="2" fill="#82A5FF"/>
<circle cx="82" cy="112" r="2" fill="#82A5FF"/>
<circle cx="94" cy="112" r="2" fill="#82A5FF"/>
<circle cx="106" cy="112" r="2" fill="#82A5FF"/>
<g filter="url(#filter0_d_1591_793)">
<rect x="10" y="19" width="77" height="77" rx="7" fill="#4C7EFF"/>
</g>
<path d="M30.1683 35.1461L30.6893 36.5411L26.9694 37.9306C26.4761 38.1148 26.0762 38.4875 25.8577 38.9666C25.6392 39.4457 25.6199 39.992 25.8042 40.4853L27.1937 44.2052L25.7987 44.7263C25.1821 44.9566 24.6822 45.4225 24.4091 46.0213C24.1359 46.6202 24.1118 47.3031 24.3422 47.9197C24.5725 48.5363 25.0383 49.0362 25.6372 49.3093C26.2361 49.5825 26.919 49.6066 27.5356 49.3762L28.9306 48.8552L30.3201 52.5751C30.5043 53.0684 30.877 53.4683 31.3561 53.6868C31.8352 53.9053 32.3815 53.9246 32.8748 53.7403L36.4087 52.4203L35.8877 51.0253C35.3666 49.6303 36.0657 48.0975 37.4607 47.5765C38.8557 47.0554 40.3885 47.7545 40.9096 49.1495L41.4307 50.5445L44.9646 49.2245C45.4579 49.0402 45.8578 48.6675 46.0763 48.1884C46.2948 47.7093 46.3141 47.163 46.1298 46.6697L44.8098 43.1358L43.4148 43.6568C42.0198 44.1779 40.487 43.4788 39.9659 42.0838C39.4449 40.6888 40.144 39.156 41.539 38.6349L42.934 38.1139L41.6139 34.5799C41.4297 34.0866 41.057 33.6867 40.5779 33.4682C40.0988 33.2497 39.5525 33.2304 39.0592 33.4147L35.3393 34.8042L34.8182 33.4092C34.5879 32.7926 34.122 32.2927 33.5232 32.0196C32.9243 31.7464 32.2414 31.7224 31.6248 31.9527C31.0082 32.183 30.5083 32.6488 30.2352 33.2477C29.962 33.8466 29.938 34.5295 30.1683 35.1461Z" fill="white"/>
<path d="M52.3394 56.6229L53.0502 58.526L47.9752 60.4215C47.3022 60.6728 46.7566 61.1812 46.4585 61.8348C46.1603 62.4885 46.1341 63.2337 46.3854 63.9067L48.2809 68.9817L46.3777 69.6925C45.5365 70.0067 44.8545 70.6422 44.4818 71.4592C44.1092 72.2762 44.0763 73.2078 44.3905 74.0491C44.7047 74.8903 45.3402 75.5723 46.1572 75.945C46.9742 76.3176 47.9058 76.3505 48.747 76.0363L50.6502 75.3255L52.5456 80.4005C52.797 81.0735 53.3054 81.6191 53.959 81.9172C54.6126 82.2154 55.3579 82.2417 56.0309 81.9903L60.8521 80.1896L60.1413 78.2865C59.4305 76.3834 60.3844 74.2922 62.2875 73.5814C64.1907 72.8706 66.2818 73.8245 66.9926 75.7276L67.7034 77.6308L72.5247 75.8301C73.1977 75.5787 73.7432 75.0703 74.0414 74.4167C74.3395 73.7631 74.3658 73.0178 74.1145 72.3449L72.3138 67.5236L70.4106 68.2344C68.5075 68.9452 66.4164 67.9913 65.7056 66.0882C64.9948 64.185 65.9487 62.0939 67.8518 61.3831L69.7549 60.6723L67.9542 55.851C67.7029 55.1781 67.1945 54.6325 66.5409 54.3343C65.8873 54.0362 65.142 54.0099 64.469 54.2613L59.394 56.1567L58.6832 54.2536C58.369 53.4123 57.7335 52.7304 56.9165 52.3577C56.0995 51.985 55.1679 51.9522 54.3266 52.2664C53.4854 52.5805 52.8034 53.216 52.4308 54.0331C52.0581 54.8501 52.0252 55.7817 52.3394 56.6229Z" fill="white"/>
<defs>
<filter id="filter0_d_1591_793" x="0" y="16" width="97" height="97" filterUnits="userSpaceOnUse" color-interpolation-filters="sRGB">
<feFlood flood-opacity="0" result="BackgroundImageFix"/>
<feColorMatrix in="SourceAlpha" type="matrix" values="0 0 0 0 0 0 0 0 0 0 0 0 0 0 0 0 0 0 127 0" result="hardAlpha"/>
<feOffset dy="7"/>
<feGaussianBlur stdDeviation="5"/>
<feComposite in2="hardAlpha" operator="out"/>
<feColorMatrix type="matrix" values="0 0 0 0 0.298039 0 0 0 0 0.494118 0 0 0 0 1 0 0 0 0.3 0"/>
<feBlend mode="normal" in2="BackgroundImageFix" result="effect1_dropShadow_1591_793"/>
<feBlend mode="normal" in="SourceGraphic" in2="effect1_dropShadow_1591_793" result="shape"/>
</filter>
</defs>
</svg>
