<svg width="32" height="32" viewBox="0 0 32 32" fill="none" xmlns="http://www.w3.org/2000/svg">
<path d="M10.3766 1.78299L1.68522 10.6348C1.40953 10.9156 1.41365 11.3667 1.69444 11.6424L20.9628 30.5615C21.2436 30.8372 21.6947 30.833 21.9704 30.5523L30.6618 21.7004C30.9375 21.4196 30.9333 20.9685 30.6525 20.6928L11.3842 1.77377C11.1034 1.49808 10.6523 1.50221 10.3766 1.78299Z" stroke="white" stroke-width="1.8" stroke-linecap="round" stroke-linejoin="round"/>
<path d="M11.3254 21.11L21.0205 11.2359" stroke="white" stroke-width="1.8" stroke-linecap="round" stroke-linejoin="round"/>
<path d="M13.2996 11.0137C13.2877 9.71077 12.2218 8.66424 10.9189 8.67616C9.61606 8.68808 8.56953 9.75393 8.58145 11.0568C8.59337 12.3597 9.65922 13.4062 10.9621 13.3943C12.265 13.3824 13.3115 12.3165 13.2996 11.0137Z" stroke="white" stroke-linecap="round" stroke-linejoin="round"/>
<path d="M23.7644 24.7172C23.7525 23.4144 22.6867 22.3678 21.3838 22.3798C20.0809 22.3917 19.0344 23.4575 19.0463 24.7604C19.0582 26.0633 20.1241 27.1098 21.4269 27.0979C22.7298 27.086 23.7763 26.0201 23.7644 24.7172Z" stroke="white" stroke-linecap="round" stroke-linejoin="round"/>
</svg>
