<svg width="14" height="17" viewBox="0 0 14 17" fill="none" xmlns="http://www.w3.org/2000/svg">
<path d="M1 15.5004H12.6001" stroke="#DADADA" stroke-opacity="0.7" stroke-width="1.5" stroke-linecap="round"/>
<path d="M11.3942 5.43072L11.9322 4.89422C12.144 4.68242 12.3121 4.43098 12.4267 4.15424C12.5414 3.8775 12.6004 3.58088 12.6005 3.28133C12.6005 2.98177 12.5415 2.68515 12.4269 2.40838C12.3123 2.13162 12.1443 1.88013 11.9325 1.66829C11.7207 1.45645 11.4693 1.2884 11.1926 1.17373C10.9158 1.05907 10.6192 1.00003 10.3197 1C10.0201 0.999966 9.72347 1.05893 9.44671 1.17354C9.16994 1.28814 8.91846 1.45614 8.70662 1.66793L8.16866 2.20589C8.16866 2.20589 8.23609 3.3485 9.24385 4.35626C10.2516 5.36402 11.3942 5.43145 11.3942 5.43145L6.45184 10.3738C6.11689 10.7088 5.95014 10.8755 5.76526 11.0198C5.54776 11.1895 5.31213 11.3352 5.06273 11.4541C4.85175 11.5549 4.62699 11.6295 4.17821 11.7789L2.27434 12.414M8.16866 2.20516L3.22628 7.14827C2.89133 7.48322 2.72385 7.64997 2.5803 7.83485C2.41044 8.05255 2.26482 8.28812 2.14602 8.53738C2.04524 8.74836 1.97056 8.97311 1.82049 9.42189L1.18611 11.3258M1.18611 11.3258L1.03168 11.7905C0.995479 11.8989 0.990188 12.0152 1.0164 12.1264C1.04261 12.2376 1.09929 12.3393 1.18007 12.42C1.26086 12.5008 1.36255 12.5575 1.47375 12.5837C1.58495 12.6099 1.70125 12.6046 1.80961 12.5684L2.27434 12.414M1.18611 11.3258L2.27434 12.414" stroke="#DADADA" stroke-opacity="0.7" stroke-width="1.5"/>
</svg>
