<svg width="14" height="14" viewBox="0 0 14 14" fill="none" xmlns="http://www.w3.org/2000/svg">
<path d="M8.37038 7.00778L0 5.5V0.834807C0.000101816 0.69248 0.0365648 0.552539 0.10593 0.428259C0.175295 0.303979 0.275261 0.199482 0.396347 0.12468C0.517432 0.0498785 0.655621 0.00725275 0.797804 0.000846742C0.939986 -0.00555927 1.08145 0.0244669 1.20877 0.0880767L13.5392 6.25327C13.6777 6.32275 13.7941 6.42938 13.8755 6.56126C13.9569 6.69313 14 6.84504 14 7C14 7.15496 13.9569 7.30687 13.8755 7.43874C13.7941 7.57061 13.6777 7.67725 13.5392 7.74673L1.21033 13.9119C1.083 13.9755 0.941542 14.0056 0.799359 13.9992C0.657176 13.9927 0.518988 13.9501 0.397902 13.8753C0.276817 13.8005 0.17685 13.696 0.107485 13.5717C0.0381203 13.4475 0.00165758 13.3075 0.00155576 13.1652L0 8.5L8.37038 7.00778Z" fill="white"/>
</svg>
