<svg width="108" height="114" viewBox="0 0 108 114" fill="none" xmlns="http://www.w3.org/2000/svg">
<circle cx="46" cy="2" r="2" fill="#AD69EE"/>
<circle cx="58" cy="2" r="2" fill="#AD69EE"/>
<circle cx="70" cy="2" r="2" fill="#AD69EE"/>
<circle cx="82" cy="2" r="2" fill="#AD69EE"/>
<circle cx="94" cy="2" r="2" fill="#AD69EE"/>
<circle cx="106" cy="2" r="2" fill="#AD69EE"/>
<circle cx="46" cy="12" r="2" fill="#AD69EE"/>
<circle cx="58" cy="12" r="2" fill="#AD69EE"/>
<circle cx="70" cy="12" r="2" fill="#AD69EE"/>
<circle cx="82" cy="12" r="2" fill="#AD69EE"/>
<circle cx="94" cy="12" r="2" fill="#AD69EE"/>
<circle cx="106" cy="12" r="2" fill="#AD69EE"/>
<circle cx="94" cy="22" r="2" fill="#AD69EE"/>
<circle cx="106" cy="22" r="2" fill="#AD69EE"/>
<circle cx="94" cy="32" r="2" fill="#AD69EE"/>
<circle cx="106" cy="32" r="2" fill="#AD69EE"/>
<circle cx="94" cy="42" r="2" fill="#AD69EE"/>
<circle cx="106" cy="42" r="2" fill="#AD69EE"/>
<circle cx="94" cy="52" r="2" fill="#AD69EE"/>
<circle cx="106" cy="52" r="2" fill="#AD69EE"/>
<circle cx="94" cy="62" r="2" fill="#AD69EE"/>
<circle cx="106" cy="62" r="2" fill="#AD69EE"/>
<circle cx="94" cy="72" r="2" fill="#AD69EE"/>
<circle cx="106" cy="72" r="2" fill="#AD69EE"/>
<circle cx="94" cy="82" r="2" fill="#AD69EE"/>
<circle cx="106" cy="82" r="2" fill="#AD69EE"/>
<circle cx="94" cy="92" r="2" fill="#AD69EE"/>
<circle cx="106" cy="92" r="2" fill="#AD69EE"/>
<circle cx="46" cy="102" r="2" fill="#AD69EE"/>
<circle cx="58" cy="102" r="2" fill="#AD69EE"/>
<circle cx="70" cy="102" r="2" fill="#AD69EE"/>
<circle cx="82" cy="102" r="2" fill="#AD69EE"/>
<circle cx="94" cy="102" r="2" fill="#AD69EE"/>
<circle cx="106" cy="102" r="2" fill="#AD69EE"/>
<circle cx="46" cy="112" r="2" fill="#AD69EE"/>
<circle cx="58" cy="112" r="2" fill="#AD69EE"/>
<circle cx="70" cy="112" r="2" fill="#AD69EE"/>
<circle cx="82" cy="112" r="2" fill="#AD69EE"/>
<circle cx="94" cy="112" r="2" fill="#AD69EE"/>
<circle cx="106" cy="112" r="2" fill="#AD69EE"/>
<g filter="url(#filter0_d_1591_838)">
<rect x="10" y="19" width="77" height="77" rx="7" fill="#8A29E6"/>
</g>
<path d="M56.8891 41.63C56.8891 42.5927 56.5066 43.516 55.8259 44.1968C55.1451 44.8776 54.2218 45.26 53.2591 45.26C52.2963 45.26 51.373 44.8776 50.6923 44.1968C50.0115 43.516 49.6291 42.5927 49.6291 41.63C49.6291 40.6673 50.0115 39.744 50.6923 39.0632C51.373 38.3824 52.2963 38 53.2591 38C54.2218 38 55.1451 38.3824 55.8259 39.0632C56.5066 39.744 56.8891 40.6673 56.8891 41.63ZM33.5371 76.524C34.5121 75.644 43.8151 62.86 43.7001 62.559C43.6201 62.35 38.9881 60.079 38.9481 60.142L30.9131 72.683C28.1971 76.921 32.2851 77.655 33.5371 76.525V76.524ZM45.4201 71.599L54.1071 60.83C54.8431 59.916 53.5511 58.698 52.6161 58.258C50.1541 57.098 43.1811 54.482 42.5541 54.482C41.5051 54.482 40.4131 55.62 40.4131 56.712C40.4131 58.092 41.0921 58.644 44.4961 60.034C46.2141 60.735 47.6601 61.384 47.6201 61.448L42.0971 70.381C41.1811 71.862 44.2751 73.019 45.4201 71.599ZM37.1691 55.237C37.6971 54.755 39.2891 53.241 40.7051 51.871C42.1551 50.469 43.4181 49.433 43.5951 49.501C43.7681 49.567 46.2301 50.944 49.0671 52.561C54.3701 55.584 55.6091 56.053 56.7231 55.456C57.0121 55.302 58.5411 53.556 60.1211 51.576C62.5461 48.539 62.9941 47.848 62.9941 47.146C62.9941 46.06 62.2921 45.353 61.2141 45.353C60.5321 45.353 59.9541 45.721 57.7901 47.533C56.3581 48.732 55.0531 49.77 54.8901 49.84C54.5771 49.973 54.3221 49.837 48.9401 46.662C45.0271 44.354 43.9861 43.995 42.3401 44.39C40.9491 44.724 40.0621 45.597 36.3541 50.278C35.1431 51.908 32.9641 53.638 34.1061 55.735C35.0941 56.595 35.8031 56.48 37.1691 55.237Z" fill="white"/>
<defs>
<filter id="filter0_d_1591_838" x="0" y="16" width="97" height="97" filterUnits="userSpaceOnUse" color-interpolation-filters="sRGB">
<feFlood flood-opacity="0" result="BackgroundImageFix"/>
<feColorMatrix in="SourceAlpha" type="matrix" values="0 0 0 0 0 0 0 0 0 0 0 0 0 0 0 0 0 0 127 0" result="hardAlpha"/>
<feOffset dy="7"/>
<feGaussianBlur stdDeviation="5"/>
<feComposite in2="hardAlpha" operator="out"/>
<feColorMatrix type="matrix" values="0 0 0 0 0.541176 0 0 0 0 0.160784 0 0 0 0 0.901961 0 0 0 0.3 0"/>
<feBlend mode="normal" in2="BackgroundImageFix" result="effect1_dropShadow_1591_838"/>
<feBlend mode="normal" in="SourceGraphic" in2="effect1_dropShadow_1591_838" result="shape"/>
</filter>
</defs>
</svg>
