<svg width="74" height="74" viewBox="0 0 74 74" fill="none" xmlns="http://www.w3.org/2000/svg">
<g filter="url(#filter0_d_4859_610)">
<rect x="10" y="3" width="54" height="54" rx="5" fill="#8A29E6"/>
</g>
<path d="M29.2207 25.5845V24.6445C29.2207 23.9691 29.3672 23.3547 29.6602 22.8013C29.9531 22.2479 30.3804 21.8044 30.9419 21.4707C31.5034 21.137 32.1789 20.9702 32.9683 20.9702C33.7821 20.9702 34.4657 21.137 35.019 21.4707C35.5806 21.8044 36.0078 22.2479 36.3008 22.8013C36.5938 23.3547 36.7402 23.9691 36.7402 24.6445V25.5845C36.7402 26.2437 36.5938 26.8499 36.3008 27.4033C36.016 27.9567 35.5928 28.4002 35.0312 28.7339C34.4779 29.0675 33.7983 29.2344 32.9927 29.2344C32.1951 29.2344 31.5116 29.0675 30.9419 28.7339C30.3804 28.4002 29.9531 27.9567 29.6602 27.4033C29.3672 26.8499 29.2207 26.2437 29.2207 25.5845ZM31.2593 24.6445V25.5845C31.2593 25.91 31.3203 26.2192 31.4424 26.5122C31.5726 26.8052 31.7679 27.0412 32.0283 27.2202C32.2887 27.3993 32.6102 27.4888 32.9927 27.4888C33.3833 27.4888 33.7007 27.3993 33.9448 27.2202C34.1971 27.0412 34.3843 26.8052 34.5063 26.5122C34.6284 26.2192 34.6895 25.91 34.6895 25.5845V24.6445C34.6895 24.3109 34.6243 23.9976 34.4941 23.7046C34.3721 23.4035 34.1849 23.1634 33.9326 22.9844C33.6803 22.8053 33.3589 22.7158 32.9683 22.7158C32.5939 22.7158 32.2765 22.8053 32.0161 22.9844C31.7638 23.1634 31.5726 23.4035 31.4424 23.7046C31.3203 23.9976 31.2593 24.3109 31.2593 24.6445ZM37.79 35.5942V34.6421C37.79 33.9748 37.9365 33.3644 38.2295 32.811C38.5306 32.2576 38.9619 31.8141 39.5234 31.4805C40.085 31.1468 40.7604 30.98 41.5498 30.98C42.3636 30.98 43.0472 31.1468 43.6006 31.4805C44.1621 31.8141 44.5853 32.2576 44.8701 32.811C45.1631 33.3644 45.3096 33.9748 45.3096 34.6421V35.5942C45.3096 36.2616 45.1631 36.8719 44.8701 37.4253C44.5853 37.9787 44.1662 38.4222 43.6128 38.7559C43.0594 39.0895 42.384 39.2563 41.5864 39.2563C40.7808 39.2563 40.0931 39.0895 39.5234 38.7559C38.9619 38.4222 38.5306 37.9787 38.2295 37.4253C37.9365 36.8719 37.79 36.2616 37.79 35.5942ZM39.8408 34.6421V35.5942C39.8408 35.9198 39.9059 36.229 40.0361 36.522C40.1745 36.8149 40.3739 37.055 40.6343 37.2422C40.8947 37.4212 41.208 37.5107 41.5742 37.5107C41.9893 37.5107 42.3229 37.4212 42.5752 37.2422C42.8275 37.055 43.0065 36.819 43.1123 36.5342C43.2262 36.2412 43.2832 35.9279 43.2832 35.5942V34.6421C43.2832 34.3084 43.2181 33.9951 43.0879 33.7021C42.9658 33.4092 42.7746 33.1732 42.5142 32.9941C42.2619 32.8151 41.9404 32.7256 41.5498 32.7256C41.1673 32.7256 40.8499 32.8151 40.5977 32.9941C40.3454 33.1732 40.1541 33.4092 40.0239 33.7021C39.9019 33.9951 39.8408 34.3084 39.8408 34.6421ZM42.2822 23.7656L33.603 37.6572L32.1016 36.7905L40.7808 22.8989L42.2822 23.7656Z" fill="white"/>
<defs>
<filter id="filter0_d_4859_610" x="0" y="0" width="74" height="74" filterUnits="userSpaceOnUse" color-interpolation-filters="sRGB">
<feFlood flood-opacity="0" result="BackgroundImageFix"/>
<feColorMatrix in="SourceAlpha" type="matrix" values="0 0 0 0 0 0 0 0 0 0 0 0 0 0 0 0 0 0 127 0" result="hardAlpha"/>
<feOffset dy="7"/>
<feGaussianBlur stdDeviation="5"/>
<feComposite in2="hardAlpha" operator="out"/>
<feColorMatrix type="matrix" values="0 0 0 0 0.541176 0 0 0 0 0.160784 0 0 0 0 0.901961 0 0 0 0.17 0"/>
<feBlend mode="normal" in2="BackgroundImageFix" result="effect1_dropShadow_4859_610"/>
<feBlend mode="normal" in="SourceGraphic" in2="effect1_dropShadow_4859_610" result="shape"/>
</filter>
</defs>
</svg>
