<svg width="72" height="83" viewBox="0 0 72 83" fill="none" xmlns="http://www.w3.org/2000/svg">
<g filter="url(#filter0_d_1504_2608)">
<path d="M39.0316 37.8576L45.1184 6H38.2618L34.2199 27.2457L35.5696 32.5517L36.9193 37.8576H39.0316Z" fill="url(#paint0_linear_1504_2608)"/>
<path d="M26.1603 16.6338L32.3193 37.8576H36.9193L35.5696 32.5517L34.2199 27.2457L28.0128 6H23L26.1603 16.6338Z" fill="url(#paint1_linear_1504_2608)"/>
</g>
<g filter="url(#filter1_d_1504_2608)">
<circle cx="35.7085" cy="47.0249" r="5.4878" fill="#FFC24C"/>
</g>
<path d="M35.489 43.7559L36.2282 46.031H38.6205L36.6851 47.4372L37.4244 49.7124L35.489 48.3062L33.5536 49.7124L34.2928 47.4372L32.3574 46.031H34.7497L35.489 43.7559Z" fill="white"/>
<defs>
<filter id="filter0_d_1504_2608" x="13" y="0" width="42.1187" height="51.8574" filterUnits="userSpaceOnUse" color-interpolation-filters="sRGB">
<feFlood flood-opacity="0" result="BackgroundImageFix"/>
<feColorMatrix in="SourceAlpha" type="matrix" values="0 0 0 0 0 0 0 0 0 0 0 0 0 0 0 0 0 0 127 0" result="hardAlpha"/>
<feOffset dy="4"/>
<feGaussianBlur stdDeviation="5"/>
<feComposite in2="hardAlpha" operator="out"/>
<feColorMatrix type="matrix" values="0 0 0 0 0 0 0 0 0 0 0 0 0 0 0 0 0 0 0.2 0"/>
<feBlend mode="normal" in2="BackgroundImageFix" result="effect1_dropShadow_1504_2608"/>
<feBlend mode="normal" in="SourceGraphic" in2="effect1_dropShadow_1504_2608" result="shape"/>
</filter>
<filter id="filter1_d_1504_2608" x="0.220703" y="11.5371" width="70.9756" height="70.9756" filterUnits="userSpaceOnUse" color-interpolation-filters="sRGB">
<feFlood flood-opacity="0" result="BackgroundImageFix"/>
<feColorMatrix in="SourceAlpha" type="matrix" values="0 0 0 0 0 0 0 0 0 0 0 0 0 0 0 0 0 0 127 0" result="hardAlpha"/>
<feOffset/>
<feGaussianBlur stdDeviation="15"/>
<feComposite in2="hardAlpha" operator="out"/>
<feColorMatrix type="matrix" values="0 0 0 0 1 0 0 0 0 0.760784 0 0 0 0 0.298039 0 0 0 0.7 0"/>
<feBlend mode="normal" in2="BackgroundImageFix" result="effect1_dropShadow_1504_2608"/>
<feBlend mode="normal" in="SourceGraphic" in2="effect1_dropShadow_1504_2608" result="shape"/>
</filter>
<linearGradient id="paint0_linear_1504_2608" x1="34.0592" y1="6" x2="34.0592" y2="37.8576" gradientUnits="userSpaceOnUse">
<stop offset="0.405" stop-color="#FF4CA2"/>
<stop offset="1" stop-color="#4D1780"/>
</linearGradient>
<linearGradient id="paint1_linear_1504_2608" x1="34.0592" y1="6" x2="34.0592" y2="37.8576" gradientUnits="userSpaceOnUse">
<stop offset="0.09" stop-color="#4C7EFF"/>
<stop offset="1" stop-color="#00C1CF"/>
</linearGradient>
</defs>
</svg>
