<svg width="54" height="54" viewBox="0 0 54 54" fill="none" xmlns="http://www.w3.org/2000/svg">
<rect width="54" height="54" fill="#1E1E1E"/>
<rect width="1280" height="832" transform="translate(-365 -681)" fill="white"/>
<g filter="url(#filter0_d_61_2)">
<rect x="-19" y="-336" width="600" height="270" rx="20" fill="white"/>
</g>
<g filter="url(#filter1_d_61_2)">
<rect x="-20" y="-15" width="195" height="114" rx="12" fill="white"/>
</g>
<path d="M57.8877 16.373L54.9141 25H53.1162L56.8623 15.0469H58.0107L57.8877 16.373ZM60.376 25L57.3955 16.373L57.2656 15.0469H58.4209L62.1807 25H60.376ZM60.2324 21.3086V22.6689H54.8184V21.3086H60.2324ZM64.8945 14.5V25H63.2402V14.5H64.8945ZM71.1494 23.2568V17.6035H72.8037V25H71.2451L71.1494 23.2568ZM71.3818 21.7188L71.9355 21.7051C71.9355 22.2018 71.8809 22.6598 71.7715 23.0791C71.6621 23.4938 71.4935 23.8561 71.2656 24.166C71.0378 24.4714 70.7461 24.7106 70.3906 24.8838C70.0352 25.0524 69.609 25.1367 69.1123 25.1367C68.7523 25.1367 68.4219 25.0843 68.1211 24.9795C67.8203 24.8747 67.5605 24.7129 67.3418 24.4941C67.1276 24.2754 66.9613 23.9906 66.8428 23.6396C66.7243 23.2887 66.665 22.8695 66.665 22.3818V17.6035H68.3125V22.3955C68.3125 22.6644 68.3444 22.89 68.4082 23.0723C68.472 23.25 68.5586 23.3936 68.668 23.5029C68.7773 23.6123 68.9049 23.6898 69.0508 23.7354C69.1966 23.7809 69.3516 23.8037 69.5156 23.8037C69.985 23.8037 70.3542 23.7126 70.623 23.5303C70.8965 23.3434 71.0902 23.0928 71.2041 22.7783C71.3226 22.4639 71.3818 22.1107 71.3818 21.7188ZM76.126 19.1826V25H74.4785V17.6035H76.0303L76.126 19.1826ZM75.832 21.0283L75.2988 21.0215C75.3034 20.4974 75.3763 20.0166 75.5176 19.5791C75.6634 19.1416 75.8639 18.7656 76.1191 18.4512C76.3789 18.1367 76.6888 17.8952 77.0488 17.7266C77.4089 17.5534 77.8099 17.4668 78.252 17.4668C78.6074 17.4668 78.9287 17.5169 79.2158 17.6172C79.5075 17.7129 79.7559 17.8701 79.9609 18.0889C80.1706 18.3076 80.3301 18.5924 80.4395 18.9434C80.5488 19.2897 80.6035 19.7158 80.6035 20.2217V25H78.9492V20.2148C78.9492 19.8594 78.8968 19.5791 78.792 19.374C78.6917 19.1644 78.5436 19.0163 78.3477 18.9297C78.1562 18.8385 77.917 18.793 77.6299 18.793C77.3473 18.793 77.0944 18.8522 76.8711 18.9707C76.6478 19.0892 76.4587 19.251 76.3037 19.4561C76.1533 19.6611 76.0371 19.8981 75.9551 20.167C75.873 20.4359 75.832 20.723 75.832 21.0283ZM81.9707 21.3838V21.2266C81.9707 20.6934 82.0482 20.1989 82.2031 19.7432C82.3581 19.2829 82.5814 18.8841 82.873 18.5469C83.1693 18.2051 83.5293 17.9408 83.9531 17.7539C84.3815 17.5625 84.8646 17.4668 85.4023 17.4668C85.9447 17.4668 86.4277 17.5625 86.8516 17.7539C87.2799 17.9408 87.6423 18.2051 87.9385 18.5469C88.2347 18.8841 88.4603 19.2829 88.6152 19.7432C88.7702 20.1989 88.8477 20.6934 88.8477 21.2266V21.3838C88.8477 21.917 88.7702 22.4115 88.6152 22.8672C88.4603 23.3229 88.2347 23.7217 87.9385 24.0635C87.6423 24.4007 87.2822 24.665 86.8584 24.8564C86.4346 25.0433 85.9538 25.1367 85.416 25.1367C84.8737 25.1367 84.3883 25.0433 83.96 24.8564C83.5361 24.665 83.1761 24.4007 82.8799 24.0635C82.5837 23.7217 82.3581 23.3229 82.2031 22.8672C82.0482 22.4115 81.9707 21.917 81.9707 21.3838ZM83.6182 21.2266V21.3838C83.6182 21.7165 83.6523 22.0309 83.7207 22.3271C83.7891 22.6234 83.8962 22.8831 84.042 23.1064C84.1878 23.3298 84.3747 23.5052 84.6025 23.6328C84.8304 23.7604 85.1016 23.8242 85.416 23.8242C85.7214 23.8242 85.9857 23.7604 86.209 23.6328C86.4368 23.5052 86.6237 23.3298 86.7695 23.1064C86.9154 22.8831 87.0225 22.6234 87.0908 22.3271C87.1637 22.0309 87.2002 21.7165 87.2002 21.3838V21.2266C87.2002 20.8984 87.1637 20.5885 87.0908 20.2969C87.0225 20.0007 86.9131 19.7386 86.7627 19.5107C86.6169 19.2829 86.43 19.1051 86.2021 18.9775C85.9788 18.8454 85.7122 18.7793 85.4023 18.7793C85.0924 18.7793 84.8236 18.8454 84.5957 18.9775C84.3724 19.1051 84.1878 19.2829 84.042 19.5107C83.8962 19.7386 83.7891 20.0007 83.7207 20.2969C83.6523 20.5885 83.6182 20.8984 83.6182 21.2266ZM94.3779 22.9971C94.3779 22.833 94.3369 22.6849 94.2549 22.5527C94.1729 22.416 94.0156 22.293 93.7832 22.1836C93.5553 22.0742 93.2181 21.974 92.7715 21.8828C92.3796 21.7962 92.0195 21.6937 91.6914 21.5752C91.3678 21.4521 91.0898 21.304 90.8574 21.1309C90.625 20.9577 90.445 20.7526 90.3174 20.5156C90.1898 20.2786 90.126 20.0052 90.126 19.6953C90.126 19.3945 90.1921 19.1097 90.3242 18.8408C90.4564 18.5719 90.6455 18.335 90.8916 18.1299C91.1377 17.9248 91.4362 17.763 91.7871 17.6445C92.1426 17.526 92.5391 17.4668 92.9766 17.4668C93.5964 17.4668 94.1273 17.5716 94.5693 17.7812C95.016 17.9863 95.3577 18.2666 95.5947 18.6221C95.8317 18.973 95.9502 19.3695 95.9502 19.8115H94.3027C94.3027 19.6156 94.2526 19.4333 94.1523 19.2646C94.0566 19.0915 93.9108 18.9525 93.7148 18.8477C93.5189 18.7383 93.2728 18.6836 92.9766 18.6836C92.694 18.6836 92.4593 18.7292 92.2725 18.8203C92.0902 18.9069 91.9535 19.0208 91.8623 19.1621C91.7757 19.3034 91.7324 19.4583 91.7324 19.627C91.7324 19.75 91.7552 19.8617 91.8008 19.9619C91.8509 20.0576 91.9329 20.1465 92.0469 20.2285C92.1608 20.306 92.3158 20.3789 92.5117 20.4473C92.7122 20.5156 92.9629 20.5817 93.2637 20.6455C93.8288 20.764 94.3141 20.9167 94.7197 21.1035C95.1299 21.2858 95.4443 21.5228 95.6631 21.8145C95.8818 22.1016 95.9912 22.4661 95.9912 22.9082C95.9912 23.2363 95.9206 23.5371 95.7793 23.8105C95.6426 24.0794 95.4421 24.3141 95.1777 24.5146C94.9134 24.7106 94.5967 24.8633 94.2275 24.9727C93.863 25.082 93.4528 25.1367 92.9971 25.1367C92.3271 25.1367 91.7598 25.0182 91.2949 24.7812C90.8301 24.5397 90.4769 24.2321 90.2354 23.8584C89.9984 23.4801 89.8799 23.0882 89.8799 22.6826H91.4727C91.4909 22.988 91.5752 23.2318 91.7256 23.4141C91.8805 23.5918 92.0719 23.7217 92.2998 23.8037C92.5322 23.8812 92.7715 23.9199 93.0176 23.9199C93.3138 23.9199 93.5622 23.8812 93.7627 23.8037C93.9632 23.7217 94.1159 23.6123 94.2207 23.4756C94.3255 23.3343 94.3779 23.1748 94.3779 22.9971ZM105.09 23.5166V19.9893C105.09 19.7249 105.042 19.4971 104.946 19.3057C104.851 19.1143 104.705 18.9661 104.509 18.8613C104.317 18.7565 104.076 18.7041 103.784 18.7041C103.515 18.7041 103.283 18.7497 103.087 18.8408C102.891 18.932 102.738 19.055 102.629 19.21C102.52 19.3649 102.465 19.5404 102.465 19.7363H100.824C100.824 19.4447 100.895 19.1621 101.036 18.8887C101.177 18.6152 101.382 18.3714 101.651 18.1572C101.92 17.943 102.242 17.7744 102.615 17.6514C102.989 17.5283 103.408 17.4668 103.873 17.4668C104.429 17.4668 104.921 17.5602 105.35 17.7471C105.783 17.9339 106.122 18.2165 106.368 18.5947C106.619 18.9684 106.744 19.4378 106.744 20.0029V23.291C106.744 23.6283 106.767 23.9313 106.812 24.2002C106.863 24.4645 106.933 24.6947 107.024 24.8906V25H105.336C105.258 24.8223 105.197 24.5967 105.151 24.3232C105.11 24.0452 105.09 23.7764 105.09 23.5166ZM105.329 20.502L105.343 21.5205H104.16C103.855 21.5205 103.586 21.5501 103.354 21.6094C103.121 21.6641 102.927 21.7461 102.772 21.8555C102.618 21.9648 102.501 22.097 102.424 22.252C102.346 22.4069 102.308 22.5824 102.308 22.7783C102.308 22.9743 102.353 23.1543 102.444 23.3184C102.535 23.4779 102.668 23.6032 102.841 23.6943C103.019 23.7855 103.233 23.8311 103.483 23.8311C103.821 23.8311 104.115 23.7627 104.365 23.626C104.62 23.4847 104.821 23.3138 104.967 23.1133C105.113 22.9082 105.19 22.7145 105.199 22.5322L105.732 23.2637C105.678 23.4505 105.584 23.651 105.452 23.8652C105.32 24.0794 105.147 24.2845 104.933 24.4805C104.723 24.6719 104.47 24.8291 104.174 24.9521C103.882 25.0752 103.545 25.1367 103.162 25.1367C102.679 25.1367 102.248 25.041 101.87 24.8496C101.492 24.6536 101.196 24.3916 100.981 24.0635C100.767 23.7308 100.66 23.3548 100.66 22.9355C100.66 22.5436 100.733 22.1973 100.879 21.8965C101.029 21.5911 101.248 21.3359 101.535 21.1309C101.827 20.9258 102.182 20.7708 102.602 20.666C103.021 20.5566 103.499 20.502 104.037 20.502H105.329ZM111.857 17.6035V18.8066H107.688V17.6035H111.857ZM108.891 15.792H110.538V22.9561C110.538 23.1839 110.57 23.3594 110.634 23.4824C110.702 23.6009 110.796 23.6807 110.914 23.7217C111.033 23.7627 111.172 23.7832 111.331 23.7832C111.445 23.7832 111.554 23.7764 111.659 23.7627C111.764 23.749 111.848 23.7354 111.912 23.7217L111.919 24.9795C111.782 25.0205 111.623 25.057 111.44 25.0889C111.263 25.1208 111.058 25.1367 110.825 25.1367C110.447 25.1367 110.112 25.0706 109.82 24.9385C109.529 24.8018 109.301 24.5807 109.137 24.2754C108.973 23.9701 108.891 23.5645 108.891 23.0586V15.792ZM114.893 17.6035V25H113.238V17.6035H114.893ZM113.129 15.6621C113.129 15.4115 113.211 15.2041 113.375 15.04C113.544 14.8714 113.776 14.7871 114.072 14.7871C114.364 14.7871 114.594 14.8714 114.763 15.04C114.931 15.2041 115.016 15.4115 115.016 15.6621C115.016 15.9082 114.931 16.1133 114.763 16.2773C114.594 16.4414 114.364 16.5234 114.072 16.5234C113.776 16.5234 113.544 16.4414 113.375 16.2773C113.211 16.1133 113.129 15.9082 113.129 15.6621ZM119.104 23.6943L120.915 17.6035H122.624L120.054 25H118.987L119.104 23.6943ZM117.716 17.6035L119.562 23.7217L119.65 25H118.584L116 17.6035H117.716ZM123.219 21.3838V21.2266C123.219 20.6934 123.296 20.1989 123.451 19.7432C123.606 19.2829 123.829 18.8841 124.121 18.5469C124.417 18.2051 124.777 17.9408 125.201 17.7539C125.63 17.5625 126.113 17.4668 126.65 17.4668C127.193 17.4668 127.676 17.5625 128.1 17.7539C128.528 17.9408 128.89 18.2051 129.187 18.5469C129.483 18.8841 129.708 19.2829 129.863 19.7432C130.018 20.1989 130.096 20.6934 130.096 21.2266V21.3838C130.096 21.917 130.018 22.4115 129.863 22.8672C129.708 23.3229 129.483 23.7217 129.187 24.0635C128.89 24.4007 128.53 24.665 128.106 24.8564C127.683 25.0433 127.202 25.1367 126.664 25.1367C126.122 25.1367 125.636 25.0433 125.208 24.8564C124.784 24.665 124.424 24.4007 124.128 24.0635C123.832 23.7217 123.606 23.3229 123.451 22.8672C123.296 22.4115 123.219 21.917 123.219 21.3838ZM124.866 21.2266V21.3838C124.866 21.7165 124.9 22.0309 124.969 22.3271C125.037 22.6234 125.144 22.8831 125.29 23.1064C125.436 23.3298 125.623 23.5052 125.851 23.6328C126.078 23.7604 126.35 23.8242 126.664 23.8242C126.969 23.8242 127.234 23.7604 127.457 23.6328C127.685 23.5052 127.872 23.3298 128.018 23.1064C128.163 22.8831 128.271 22.6234 128.339 22.3271C128.412 22.0309 128.448 21.7165 128.448 21.3838V21.2266C128.448 20.8984 128.412 20.5885 128.339 20.2969C128.271 20.0007 128.161 19.7386 128.011 19.5107C127.865 19.2829 127.678 19.1051 127.45 18.9775C127.227 18.8454 126.96 18.7793 126.65 18.7793C126.34 18.7793 126.072 18.8454 125.844 18.9775C125.62 19.1051 125.436 19.2829 125.29 19.5107C125.144 19.7386 125.037 20.0007 124.969 20.2969C124.9 20.5885 124.866 20.8984 124.866 21.2266ZM135.626 22.9971C135.626 22.833 135.585 22.6849 135.503 22.5527C135.421 22.416 135.264 22.293 135.031 22.1836C134.803 22.0742 134.466 21.974 134.02 21.8828C133.628 21.7962 133.268 21.6937 132.939 21.5752C132.616 21.4521 132.338 21.304 132.105 21.1309C131.873 20.9577 131.693 20.7526 131.565 20.5156C131.438 20.2786 131.374 20.0052 131.374 19.6953C131.374 19.3945 131.44 19.1097 131.572 18.8408C131.704 18.5719 131.894 18.335 132.14 18.1299C132.386 17.9248 132.684 17.763 133.035 17.6445C133.391 17.526 133.787 17.4668 134.225 17.4668C134.844 17.4668 135.375 17.5716 135.817 17.7812C136.264 17.9863 136.606 18.2666 136.843 18.6221C137.08 18.973 137.198 19.3695 137.198 19.8115H135.551C135.551 19.6156 135.501 19.4333 135.4 19.2646C135.305 19.0915 135.159 18.9525 134.963 18.8477C134.767 18.7383 134.521 18.6836 134.225 18.6836C133.942 18.6836 133.707 18.7292 133.521 18.8203C133.338 18.9069 133.201 19.0208 133.11 19.1621C133.024 19.3034 132.98 19.4583 132.98 19.627C132.98 19.75 133.003 19.8617 133.049 19.9619C133.099 20.0576 133.181 20.1465 133.295 20.2285C133.409 20.306 133.564 20.3789 133.76 20.4473C133.96 20.5156 134.211 20.5817 134.512 20.6455C135.077 20.764 135.562 20.9167 135.968 21.1035C136.378 21.2858 136.692 21.5228 136.911 21.8145C137.13 22.1016 137.239 22.4661 137.239 22.9082C137.239 23.2363 137.169 23.5371 137.027 23.8105C136.891 24.0794 136.69 24.3141 136.426 24.5146C136.161 24.7106 135.845 24.8633 135.476 24.9727C135.111 25.082 134.701 25.1367 134.245 25.1367C133.575 25.1367 133.008 25.0182 132.543 24.7812C132.078 24.5397 131.725 24.2321 131.483 23.8584C131.246 23.4801 131.128 23.0882 131.128 22.6826H132.721C132.739 22.988 132.823 23.2318 132.974 23.4141C133.129 23.5918 133.32 23.7217 133.548 23.8037C133.78 23.8812 134.02 23.9199 134.266 23.9199C134.562 23.9199 134.81 23.8812 135.011 23.8037C135.211 23.7217 135.364 23.6123 135.469 23.4756C135.574 23.3343 135.626 23.1748 135.626 22.9971Z" fill="#FF4C4D"/>
<g filter="url(#filter2_d_61_2)">
<rect x="10" y="3" width="34" height="34" rx="5" fill="#FF4C4D"/>
</g>
<path d="M26.5 19.8499C27.6978 19.8499 28.7279 18.782 28.7279 17.3914C28.7279 16.0177 27.6921 15 26.5 15C25.3079 15 24.2718 16.0401 24.2718 17.4027C24.2718 18.782 25.3022 19.8499 26.5 19.8499ZM20.0886 19.9775C21.1247 19.9775 22.0274 19.0434 22.0274 17.8366C22.0274 16.6407 21.1191 15.7563 20.0886 15.7563C19.0525 15.7563 18.139 16.6628 18.1446 17.8475C18.1446 19.0434 19.0469 19.9779 20.0886 19.9779M32.9114 19.9779C33.9531 19.9779 34.8554 19.0437 34.8554 17.8478C34.8554 16.6632 33.9475 15.7567 32.9114 15.7567C31.8809 15.7567 30.9726 16.6411 30.9726 17.8366C30.9726 19.0437 31.8753 19.9779 32.9114 19.9779ZM16.9803 25H21.214C20.6346 24.1602 21.3419 22.4693 22.5396 21.546C21.9209 21.1345 21.1247 20.8286 20.0834 20.8286C17.5705 20.8286 16 22.6805 16 24.2212C16 24.7218 16.2786 25 16.9803 25ZM36.0198 25C36.727 25 37 24.7218 37 24.2212C37 22.6805 35.4291 20.8286 32.917 20.8286C31.8752 20.8286 31.0788 21.1345 30.4608 21.546C31.6581 22.4693 32.3658 24.1602 31.7864 25H36.0198ZM22.996 25H29.998C30.8725 25 31.1845 24.7495 31.1845 24.2601C31.1845 22.8254 29.3853 20.8454 26.4944 20.8454C23.6091 20.8454 21.8099 22.8254 21.8099 24.2601C21.8099 24.7495 22.1215 25 22.996 25Z" fill="white"/>
<defs>
<filter id="filter0_d_61_2" x="-69" y="-359" width="700" height="370" filterUnits="userSpaceOnUse" color-interpolation-filters="sRGB">
<feFlood flood-opacity="0" result="BackgroundImageFix"/>
<feColorMatrix in="SourceAlpha" type="matrix" values="0 0 0 0 0 0 0 0 0 0 0 0 0 0 0 0 0 0 127 0" result="hardAlpha"/>
<feOffset dy="27"/>
<feGaussianBlur stdDeviation="25"/>
<feComposite in2="hardAlpha" operator="out"/>
<feColorMatrix type="matrix" values="0 0 0 0 0.541176 0 0 0 0 0.584314 0 0 0 0 0.619608 0 0 0 0.2 0"/>
<feBlend mode="normal" in2="BackgroundImageFix" result="effect1_dropShadow_61_2"/>
<feBlend mode="normal" in="SourceGraphic" in2="effect1_dropShadow_61_2" result="shape"/>
</filter>
<filter id="filter1_d_61_2" x="-40" y="-15" width="235" height="154" filterUnits="userSpaceOnUse" color-interpolation-filters="sRGB">
<feFlood flood-opacity="0" result="BackgroundImageFix"/>
<feColorMatrix in="SourceAlpha" type="matrix" values="0 0 0 0 0 0 0 0 0 0 0 0 0 0 0 0 0 0 127 0" result="hardAlpha"/>
<feOffset dy="20"/>
<feGaussianBlur stdDeviation="10"/>
<feComposite in2="hardAlpha" operator="out"/>
<feColorMatrix type="matrix" values="0 0 0 0 0.541176 0 0 0 0 0.584314 0 0 0 0 0.619608 0 0 0 0.1 0"/>
<feBlend mode="normal" in2="BackgroundImageFix" result="effect1_dropShadow_61_2"/>
<feBlend mode="normal" in="SourceGraphic" in2="effect1_dropShadow_61_2" result="shape"/>
</filter>
<filter id="filter2_d_61_2" x="0" y="0" width="54" height="54" filterUnits="userSpaceOnUse" color-interpolation-filters="sRGB">
<feFlood flood-opacity="0" result="BackgroundImageFix"/>
<feColorMatrix in="SourceAlpha" type="matrix" values="0 0 0 0 0 0 0 0 0 0 0 0 0 0 0 0 0 0 127 0" result="hardAlpha"/>
<feOffset dy="7"/>
<feGaussianBlur stdDeviation="5"/>
<feComposite in2="hardAlpha" operator="out"/>
<feColorMatrix type="matrix" values="0 0 0 0 1 0 0 0 0 0.298039 0 0 0 0 0.301961 0 0 0 0.17 0"/>
<feBlend mode="normal" in2="BackgroundImageFix" result="effect1_dropShadow_61_2"/>
<feBlend mode="normal" in="SourceGraphic" in2="effect1_dropShadow_61_2" result="shape"/>
</filter>
</defs>
</svg>
