<svg width="165" height="81" viewBox="0 0 165 81" fill="none" xmlns="http://www.w3.org/2000/svg">
<g filter="url(#filter0_d_4449_5604)">
<path d="M145.083 27.7307L151.699 27.6432C151.442 29.8604 150.761 31.815 149.654 33.5071C148.563 35.1992 147.08 36.512 145.203 37.4455C143.343 38.3791 141.145 38.8167 138.611 38.7583C136.494 38.7146 134.754 38.2989 133.39 37.5112C132.027 36.7089 130.977 35.6586 130.239 34.3604C129.501 33.0476 129.044 31.5962 128.867 30.0063C128.691 28.4017 128.715 26.768 128.94 25.1051L129.854 19.7007C130.143 17.9357 130.632 16.229 131.321 14.5807C132.011 12.9178 132.925 11.4372 134.064 10.139C135.203 8.8262 136.598 7.79783 138.25 7.0539C139.918 6.30997 141.843 5.95989 144.024 6.00365C146.542 6.04741 148.531 6.57983 149.991 7.6009C151.466 8.60739 152.525 9.95667 153.167 11.6487C153.808 13.3408 154.137 15.2152 154.153 17.272L147.272 17.2501C147.336 16.2582 147.32 15.3173 147.224 14.4275C147.128 13.5232 146.807 12.7865 146.262 12.2176C145.732 11.6342 144.81 11.3205 143.495 11.2768C142.212 11.233 141.153 11.4664 140.319 11.9769C139.501 12.4875 138.844 13.1658 138.346 14.0118C137.865 14.8578 137.496 15.7768 137.24 16.7687C136.999 17.7606 136.807 18.7234 136.662 19.6569L135.82 25.127C135.708 25.8855 135.604 26.7315 135.508 27.6651C135.427 28.5986 135.451 29.503 135.58 30.3782C135.708 31.2534 136.037 31.9828 136.566 32.5662C137.095 33.1497 137.954 33.4706 139.14 33.529C140.536 33.5727 141.626 33.3393 142.412 32.8288C143.198 32.3183 143.784 31.6181 144.169 30.7283C144.57 29.8239 144.874 28.8247 145.083 27.7307Z" fill="url(#paint0_linear_4449_5604)"/>
<path d="M124.031 33.0255L122.997 38.3205H108.225L109.211 33.0255H124.031ZM116.429 6.46289L110.366 38.3205H103.485L109.524 6.46289H116.429ZM124.657 19.3722L123.67 24.5141H110.847L111.81 19.3722H124.657ZM129.036 6.46289L128.001 11.7798H113.253L114.288 6.46289H129.036Z" fill="url(#paint1_linear_4449_5604)"/>
<path d="M97.2067 6.46289L91.1199 38.3205H84.2633L90.3501 6.46289H97.2067ZM105.627 6.46289L104.617 11.7798H81.0635L82.0739 6.46289H105.627Z" fill="url(#paint2_linear_4449_5604)"/>
<path d="M49.3302 6.46289L43.2434 38.3205H36.3867L42.4735 6.46289H49.3302Z" fill="#005C6D"/>
<path d="M34.3655 21.5824L32.1762 34.7105C31.2138 35.6878 30.0831 36.4755 28.7839 37.0736C27.4847 37.6716 26.1134 38.1019 24.6699 38.3645C23.2264 38.6417 21.8069 38.7729 20.4115 38.7583C18.2623 38.7292 16.474 38.328 15.0465 37.5549C13.619 36.7818 12.5043 35.7535 11.7023 34.4698C10.9164 33.1716 10.4032 31.7202 10.1626 30.1157C9.93806 28.5111 9.94608 26.8409 10.1867 25.1051L11.1009 19.6788C11.3896 17.8846 11.8788 16.1634 12.5685 14.5151C13.2581 12.8667 14.1724 11.3935 15.3111 10.0952C16.4499 8.79702 17.8453 7.78324 19.4973 7.0539C21.1654 6.30997 23.1141 5.95989 25.3435 6.00365C27.7815 6.06199 29.7302 6.53607 31.1898 7.42586C32.6493 8.30107 33.7159 9.53366 34.3895 11.1236C35.0632 12.699 35.416 14.5223 35.4481 16.5937H28.7839C28.7999 15.6893 28.7278 14.8433 28.5674 14.0556C28.407 13.2533 28.0621 12.6042 27.5329 12.1082C27.0036 11.5977 26.1535 11.3205 24.9827 11.2768C23.7156 11.233 22.657 11.4664 21.8069 11.9769C20.9729 12.4875 20.2912 13.1585 19.762 13.9899C19.2327 14.8214 18.8237 15.7403 18.535 16.7468C18.2623 17.7387 18.0698 18.7015 17.9576 19.635L17.0915 25.127C16.9792 25.9584 16.891 26.8482 16.8268 27.7964C16.7787 28.7445 16.8589 29.6489 17.0674 30.5095C17.2919 31.3555 17.717 32.0557 18.3425 32.61C18.968 33.1497 19.8983 33.4269 21.1333 33.4415C21.6947 33.4415 22.2079 33.3977 22.673 33.3102C23.1542 33.2081 23.6113 33.0695 24.0444 32.8944C24.4935 32.7048 24.9426 32.5006 25.3917 32.2818L26.6668 26.4179H21.7588L22.6971 21.5824H34.3655Z" fill="url(#paint3_linear_4449_5604)"/>
<path fill-rule="evenodd" clip-rule="evenodd" d="M55.8973 38.3205L59.9392 17.0967L56.7788 6.46289H55.0553L49.0166 38.3205H55.8973Z" fill="#005C6D"/>
<path d="M72.8105 38.3205L78.8973 6.46289H72.0406L67.9988 27.7086L69.3485 33.0145L70.6981 38.3205H72.8105Z" fill="url(#paint4_linear_4449_5604)"/>
<path d="M59.9392 17.0967L66.0982 38.3205H70.6981L69.3485 33.0145L67.9988 27.7086L61.7917 6.46289H56.7788L59.9392 17.0967Z" fill="url(#paint5_linear_4449_5604)"/>
</g>
<g filter="url(#filter1_d_4449_5604)">
<circle cx="69.2681" cy="45.5122" r="5.4878" fill="#FFC24C"/>
</g>
<path d="M69.2683 42.2197L70.0075 44.4949H72.3998L70.4644 45.9011L71.2037 48.1762L69.2683 46.7701L67.3329 48.1762L68.0721 45.9011L66.1367 44.4949H68.529L69.2683 42.2197Z" fill="white"/>
<defs>
<filter id="filter0_d_4449_5604" x="0" y="0" width="164.153" height="52.7637" filterUnits="userSpaceOnUse" color-interpolation-filters="sRGB">
<feFlood flood-opacity="0" result="BackgroundImageFix"/>
<feColorMatrix in="SourceAlpha" type="matrix" values="0 0 0 0 0 0 0 0 0 0 0 0 0 0 0 0 0 0 127 0" result="hardAlpha"/>
<feOffset dy="4"/>
<feGaussianBlur stdDeviation="5"/>
<feComposite in2="hardAlpha" operator="out"/>
<feColorMatrix type="matrix" values="0 0 0 0 0 0 0 0 0 0 0 0 0 0 0 0 0 0 0.2 0"/>
<feBlend mode="normal" in2="BackgroundImageFix" result="effect1_dropShadow_4449_5604"/>
<feBlend mode="normal" in="SourceGraphic" in2="effect1_dropShadow_4449_5604" result="shape"/>
</filter>
<filter id="filter1_d_4449_5604" x="33.7803" y="10.0244" width="70.9756" height="70.9756" filterUnits="userSpaceOnUse" color-interpolation-filters="sRGB">
<feFlood flood-opacity="0" result="BackgroundImageFix"/>
<feColorMatrix in="SourceAlpha" type="matrix" values="0 0 0 0 0 0 0 0 0 0 0 0 0 0 0 0 0 0 127 0" result="hardAlpha"/>
<feOffset/>
<feGaussianBlur stdDeviation="15"/>
<feComposite in2="hardAlpha" operator="out"/>
<feColorMatrix type="matrix" values="0 0 0 0 1 0 0 0 0 0.760784 0 0 0 0 0.298039 0 0 0 0.7 0"/>
<feBlend mode="normal" in2="BackgroundImageFix" result="effect1_dropShadow_4449_5604"/>
<feBlend mode="normal" in="SourceGraphic" in2="effect1_dropShadow_4449_5604" result="shape"/>
</filter>
<linearGradient id="paint0_linear_4449_5604" x1="135.52" y1="25.1956" x2="153.021" y2="13.918" gradientUnits="userSpaceOnUse">
<stop stop-color="#005C6D"/>
<stop offset="1" stop-color="#004854"/>
</linearGradient>
<linearGradient id="paint1_linear_4449_5604" x1="111.007" y1="16.2008" x2="115.21" y2="38.5183" gradientUnits="userSpaceOnUse">
<stop stop-color="#005C6D"/>
<stop offset="1" stop-color="#004854"/>
</linearGradient>
<linearGradient id="paint2_linear_4449_5604" x1="93.2698" y1="13.0199" x2="93.3297" y2="38.3205" gradientUnits="userSpaceOnUse">
<stop stop-color="#005C6D"/>
<stop offset="1" stop-color="#004854"/>
</linearGradient>
<linearGradient id="paint3_linear_4449_5604" x1="22.7241" y1="6" x2="11.558" y2="38.7857" gradientUnits="userSpaceOnUse">
<stop offset="0.318242" stop-color="#005C6D"/>
<stop offset="1" stop-color="#004854"/>
</linearGradient>
<linearGradient id="paint4_linear_4449_5604" x1="63.9569" y1="6.46289" x2="63.9569" y2="38.3205" gradientUnits="userSpaceOnUse">
<stop offset="0.405" stop-color="#FF4CA2"/>
<stop offset="1" stop-color="#4D1780"/>
</linearGradient>
<linearGradient id="paint5_linear_4449_5604" x1="63.9569" y1="6.46289" x2="63.9569" y2="38.3205" gradientUnits="userSpaceOnUse">
<stop offset="0.09" stop-color="#4C7EFF"/>
<stop offset="1" stop-color="#00C1CF"/>
</linearGradient>
</defs>
</svg>
