<svg width="74" height="74" viewBox="0 0 74 74" fill="none" xmlns="http://www.w3.org/2000/svg">
<g filter="url(#filter0_d_4859_609)">
<rect x="10" y="3" width="54" height="54" rx="5" fill="#4C7EFF"/>
</g>
<path d="M30.3823 11.7925V20.353H28.9702V13.4683L26.8784 14.1772V13.0112L30.2124 11.7925H30.3823Z" fill="white"/>
<path d="M48.6582 31.252V32.4707H42.4629V31.4233L45.4717 28.1416C45.8018 27.7692 46.062 27.4476 46.2524 27.1768C46.4429 26.9059 46.5762 26.6626 46.6523 26.4468C46.7327 26.2267 46.7729 26.013 46.7729 25.8057C46.7729 25.5137 46.7179 25.2576 46.6079 25.0376C46.5021 24.8133 46.3455 24.6377 46.1382 24.5107C45.9308 24.3796 45.679 24.314 45.3828 24.314C45.04 24.314 44.7523 24.388 44.5195 24.5361C44.2868 24.6842 44.1112 24.8895 43.9927 25.1519C43.8742 25.41 43.8149 25.7062 43.8149 26.0405H42.2852C42.2852 25.5031 42.4079 25.0122 42.6533 24.5679C42.8988 24.1193 43.2542 23.7638 43.7197 23.5015C44.1852 23.2349 44.7459 23.1016 45.4019 23.1016C46.0197 23.1016 46.5444 23.2052 46.9761 23.4126C47.4077 23.62 47.7357 23.9141 47.96 24.2949C48.1885 24.6758 48.3027 25.1265 48.3027 25.647C48.3027 25.9347 48.2562 26.2204 48.1631 26.5039C48.07 26.7874 47.9367 27.071 47.7632 27.3545C47.5939 27.6338 47.3929 27.9152 47.1602 28.1987C46.9274 28.478 46.6714 28.7616 46.3921 29.0493L44.3926 31.252H48.6582Z" fill="white"/>
<path d="M20.0522 35.5044H20.8257C21.1265 35.5044 21.3753 35.4525 21.5723 35.3486C21.7728 35.2448 21.9214 35.1016 22.0181 34.9189C22.1147 34.7363 22.1631 34.5269 22.1631 34.2905C22.1631 34.0435 22.1183 33.8322 22.0288 33.6567C21.9429 33.4777 21.8104 33.3398 21.6313 33.2432C21.4559 33.1465 21.2321 33.0981 20.96 33.0981C20.7308 33.0981 20.5231 33.1447 20.3369 33.2378C20.1543 33.3273 20.0093 33.4562 19.9019 33.6245C19.7944 33.7892 19.7407 33.9862 19.7407 34.2153H18.4409C18.4409 33.8 18.5501 33.4312 18.7686 33.1089C18.987 32.7866 19.2842 32.5342 19.6602 32.3516C20.0397 32.1654 20.4658 32.0723 20.9385 32.0723C21.4434 32.0723 21.8838 32.1564 22.2598 32.3247C22.6393 32.4894 22.9347 32.7365 23.146 33.0659C23.3573 33.3953 23.4629 33.8035 23.4629 34.2905C23.4629 34.5125 23.411 34.7381 23.3071 34.9673C23.2033 35.1965 23.0493 35.4059 22.8452 35.5957C22.6411 35.7819 22.3869 35.9341 22.0825 36.0522C21.7782 36.1668 21.4255 36.2241 21.0244 36.2241H20.0522V35.5044ZM20.0522 36.5142V35.8052H21.0244C21.4827 35.8052 21.873 35.8589 22.1953 35.9663C22.5212 36.0737 22.7861 36.2223 22.9902 36.4121C23.1943 36.5983 23.3429 36.8114 23.436 37.0513C23.5327 37.2912 23.5811 37.5454 23.5811 37.814C23.5811 38.1792 23.5148 38.505 23.3823 38.7915C23.2534 39.0744 23.069 39.3143 22.8291 39.5112C22.5892 39.7082 22.3081 39.8568 21.9858 39.957C21.6672 40.0573 21.3198 40.1074 20.9438 40.1074C20.6073 40.1074 20.285 40.0609 19.9771 39.9678C19.6691 39.8747 19.3934 39.7368 19.1499 39.5542C18.9064 39.368 18.7131 39.137 18.5698 38.8613C18.4302 38.582 18.3604 38.2598 18.3604 37.8945H19.6548C19.6548 38.1273 19.7085 38.3332 19.8159 38.5122C19.9269 38.6877 20.0809 38.8255 20.2778 38.9258C20.4784 39.026 20.7075 39.0762 20.9653 39.0762C21.2375 39.0762 21.472 39.0278 21.6689 38.9312C21.8659 38.8345 22.0163 38.6912 22.1201 38.5015C22.2275 38.3117 22.2812 38.0825 22.2812 37.814C22.2812 37.5096 22.2222 37.2625 22.104 37.0728C21.9858 36.883 21.8175 36.7433 21.5991 36.6538C21.3807 36.5607 21.1229 36.5142 20.8257 36.5142H20.0522Z" fill="white"/>
<defs>
<filter id="filter0_d_4859_609" x="0" y="0" width="74" height="74" filterUnits="userSpaceOnUse" color-interpolation-filters="sRGB">
<feFlood flood-opacity="0" result="BackgroundImageFix"/>
<feColorMatrix in="SourceAlpha" type="matrix" values="0 0 0 0 0 0 0 0 0 0 0 0 0 0 0 0 0 0 127 0" result="hardAlpha"/>
<feOffset dy="7"/>
<feGaussianBlur stdDeviation="5"/>
<feComposite in2="hardAlpha" operator="out"/>
<feColorMatrix type="matrix" values="0 0 0 0 0.298039 0 0 0 0 0.494118 0 0 0 0 1 0 0 0 0.17 0"/>
<feBlend mode="normal" in2="BackgroundImageFix" result="effect1_dropShadow_4859_609"/>
<feBlend mode="normal" in="SourceGraphic" in2="effect1_dropShadow_4859_609" result="shape"/>
</filter>
</defs>
</svg>
