<svg width="255" height="832" viewBox="0 0 255 832" fill="none" xmlns="http://www.w3.org/2000/svg">
<circle cx="-28.6208" cy="-50.6209" r="198.5" transform="rotate(-90.545 -28.6208 -50.6209)" fill="#006578"/>
<ellipse cx="-37.6775" cy="-49.5253" rx="157.5" ry="163.5" transform="rotate(-90.545 -37.6775 -49.5253)" fill="#E6EFF0"/>
<path d="M125.235 740C196.025 740 255 796.634 255 858C197.268 858 196.025 858 125.235 858C54.4456 858 87.1002 858 -4 858C-4 796.634 54.4456 740 125.235 740Z" fill="#005261"/>
<path d="M125.009 766.997C179.946 766.997 225.715 811.152 225.715 858.997C180.911 858.997 179.946 858.997 125.009 858.997C70.072 858.997 95.414 858.997 24.7146 858.997C24.7146 811.152 70.072 766.997 125.009 766.997Z" fill="#E6EFF0"/>
<path d="M125.412 792.006C162.584 792.006 193.552 821.762 193.552 854.006C163.237 854.006 162.584 854.006 125.412 854.006C88.2411 854.006 105.388 854.006 57.5515 854.006C57.5515 821.762 88.2411 792.006 125.412 792.006Z" fill="#005261"/>
</svg>
