<svg width="300" height="300" viewBox="0 0 300 300" fill="none" xmlns="http://www.w3.org/2000/svg">
<path d="M20.2667 6.13333C8.13334 12.1333 1.86667 23.4667 2.93334 37.3333C3.73334 47.6 9.06667 56.5333 17.8667 62C23.7333 65.6 25.6 66 34.5333 66C45.7333 66 50.2667 64.1333 57.2 57.2C64.1333 50.2667 66 45.7333 66 34.5333C66 25.6 65.6 23.7333 62 17.8667C53.2 3.73333 35.0667 -1.46667 20.2667 6.13333Z" fill="white"/>
<path d="M158.667 15.1999C127.067 21.9999 96.6667 41.0666 76.6667 66.6666C69.6 75.7332 62.5334 89.7332 58.8 102L55.8667 111.2L122.533 177.733L189.067 244.4L198.8 241.467C236.267 230.133 268.267 196.4 282 153.333C286.4 139.6 287.867 117.467 285.467 103.2C278.8 64.9332 246.8 29.8666 207.333 17.3332C195.467 13.5999 171.333 12.5332 158.667 15.1999Z" fill="white"/>
<path d="M55.2 146.667C55.6 152.133 57.4667 162.4 59.4667 169.333C62.2667 179.467 62.8 184.133 62.4 193.6L62 205.2L55.3333 212C51.7333 215.867 39.0667 226.667 27.4667 236.133C15.7333 245.6 5.33334 254.667 4.13334 256.267C1.46667 260.133 1.60001 270.267 4.53334 275.867C10.4 286.933 26.1333 298.533 35.3333 298.667C42.1333 298.667 47.2 294.267 63.0667 274.267C84.4 247.733 91.2 240.4 96.9333 238.533C103.6 236.4 122.533 237.867 133.2 241.333C141.2 243.867 161.333 246.933 162.667 245.733C162.933 245.467 138.667 220.8 108.8 190.933L54.4 136.667L55.2 146.667Z" fill="white"/>
</svg>
