<svg width="21" height="21" viewBox="0 0 21 21" fill="none" xmlns="http://www.w3.org/2000/svg">
<path d="M20 8.6C19.9648 7.35455 19.8469 6.56035 19.4476 5.883C18.8791 4.91875 17.856 4.382 15.8109 3.3104L13.9094 2.3129C12.2399 1.43795 11.4051 1 10.5076 1C9.61009 1 8.77532 1.437 7.10578 2.3129L5.20426 3.3104C3.15918 4.382 2.13616 4.91875 1.5676 5.883C1 6.8463 1 8.04615 1 10.4449V10.556C1 12.9538 1 14.1537 1.5676 15.117C2.13616 16.0813 3.15918 16.618 5.20426 17.6906L7.10578 18.6871C8.77532 19.562 9.61009 20 10.5076 20C11.4051 20 12.2399 19.563 13.9094 18.6871L15.8109 17.6896C17.856 16.6171 18.8791 16.0813 19.4476 15.117C19.8469 14.4397 19.9648 13.6454 20 12.4M19.0645 6.225L15.2614 8.125M15.2614 8.125L14.786 8.3625L10.5076 10.5M15.2614 8.125V11.45M15.2614 8.125L6.22918 3.375M10.5076 10.5L1.95076 6.225M10.5076 10.5V19.525" stroke="white" stroke-width="1.5" stroke-linecap="round"/>
</svg>
