<svg width="220" height="230" viewBox="0 0 220 230" fill="none" xmlns="http://www.w3.org/2000/svg">
<g clip-path="url(#clip0_11_30)">
<path d="M47.7383 0.49412C37.9844 2.47068 30.9375 12.9824 32.5703 23.1797C33.9453 31.9844 40.3047 38.6328 48.7266 40.0703C61.1445 42.2265 72.6172 30.2324 70.5547 17.25C68.75 5.7949 58.4805 -1.70705 47.7383 0.49412Z" fill="white"/>
<path d="M164.613 0.49412C154.859 2.47068 147.813 12.9824 149.445 23.1797C150.82 31.9844 157.18 38.6328 165.602 40.0703C178.02 42.2265 189.492 30.2324 187.43 17.25C185.625 5.7949 175.355 -1.70705 164.613 0.49412Z" fill="white"/>
<path d="M33.2148 54.5801C26.8555 56.0625 20.2812 60.8242 17.2734 66.125L16.5859 67.3828H10.8281C4.03906 67.3828 2.32031 68.0117 0.859375 70.9766C-0.214844 73.2227 -0.214844 75.0195 0.859375 77.2656C2.19141 79.9609 4.21094 80.8594 8.98047 80.8594H12.8047L12.9766 89.2598C13.1055 97.4805 13.1484 97.7949 14.3086 100.266C15.8984 103.635 18.4766 105.836 22.6445 107.363L25.9102 108.576L31.4102 137.641C34.9336 156.283 37.2109 167.424 37.8125 168.682C39.0586 171.377 41.8945 173.982 44.8594 175.15C48.2969 176.498 54.8281 176.498 58.2656 175.15C61.2305 173.982 64.0664 171.377 65.3125 168.682C65.9141 167.424 68.1914 156.283 71.7148 137.641L77.2148 108.576L80.4805 107.363C84.6484 105.836 87.2266 103.635 88.8164 100.266C89.9766 97.7949 90.0195 97.4805 90.1484 89.2598L90.3203 80.8594H110H129.68L129.852 89.2598C129.98 97.4805 130.023 97.7949 131.184 100.266C132.773 103.635 135.352 105.836 139.52 107.363L142.785 108.576L148.285 137.641C151.809 156.283 154.086 167.424 154.688 168.682C155.934 171.377 158.77 173.982 161.734 175.15C165.172 176.498 171.703 176.498 175.141 175.15C178.105 173.982 180.941 171.377 182.188 168.682C182.789 167.424 185.066 156.283 188.59 137.641L194.09 108.576L197.355 107.363C201.523 105.836 204.102 103.635 205.691 100.266C206.852 97.7949 206.895 97.4805 207.023 89.2598L207.195 80.8594H211.02C215.789 80.8594 217.809 79.9609 219.141 77.2656C220.215 75.0195 220.215 73.2227 219.141 70.9766C217.68 68.0117 215.961 67.3828 209.172 67.3828H203.414L202.727 66.125C200.234 61.6777 194.133 56.8711 188.891 55.1192C185.926 54.1758 185.238 54.1309 168.438 54.1309C151.637 54.1309 150.949 54.1758 147.984 55.1192C142.742 56.8711 136.641 61.6777 134.148 66.125L133.461 67.3828H110H86.5391L85.8516 66.125C83.4023 61.8125 77.3867 56.9609 72.2305 55.1641C69.5234 54.2207 68.6641 54.1758 52.6367 54.041C39.6602 53.9961 35.2773 54.0859 33.2148 54.5801Z" fill="white"/>
<path d="M104.543 163.111C92.4258 165.223 82.3711 174.566 78.5898 187.324C77.1289 192.176 77.1289 200.441 78.5898 205.293C80.4375 211.582 83.7031 217.018 87.957 221.016C106.047 237.951 134.148 229.685 141.41 205.293C142.871 200.441 142.871 192.176 141.41 187.324C136.383 170.478 120.871 160.281 104.543 163.111Z" fill="white"/>
</g>
<defs>
<clipPath id="clip0_11_30">
<rect width="220" height="230" fill="white"/>
</clipPath>
</defs>
</svg>
