<svg width="18" height="19" viewBox="0 0 18 19" fill="none" xmlns="http://www.w3.org/2000/svg">
<path d="M15.4818 2.02652H13.5277V0.530729C13.5277 0.25491 13.296 -0.0103005 13.0241 0.000307925C12.7521 0.0109164 12.5204 0.233693 12.5204 0.530729V2.02652H5.4695V0.530729C5.4695 0.25491 5.23783 -0.0103005 4.96587 0.000307925C4.6939 0.0109164 4.46223 0.233693 4.46223 0.530729V2.02652H2.51819C1.85032 2.02652 1.20981 2.30593 0.73756 2.8033C0.265308 3.30067 0 3.97524 0 4.67862V16.3479C0 17.0513 0.265308 17.7258 0.73756 18.2232C1.20981 18.7206 1.85032 19 2.51819 19H15.4818C16.1497 19 16.7902 18.7206 17.2624 18.2232C17.7347 17.7258 18 17.0513 18 16.3479V4.67862C18 3.97524 17.7347 3.30067 17.2624 2.8033C16.7902 2.30593 16.1497 2.02652 15.4818 2.02652ZM16.9927 16.3479C16.9927 17.2284 16.3179 17.9392 15.4818 17.9392H2.51819C1.68215 17.9392 1.00727 17.2284 1.00727 16.3479V7.4156H16.9927V16.3479ZM16.9927 6.35476H1.00727V4.67862C1.00727 3.79812 1.68215 3.08736 2.51819 3.08736H4.46223V3.71326C4.46223 3.98908 4.6939 4.25429 4.96587 4.24368C5.23783 4.23307 5.4695 4.01029 5.4695 3.71326V3.08736H12.5204V3.71326C12.5204 3.98908 12.7521 4.25429 13.0241 4.24368C13.296 4.23307 13.5277 4.01029 13.5277 3.71326V3.08736H15.4818C16.3179 3.08736 16.9927 3.79812 16.9927 4.67862V6.35476Z" fill="white"/>
<path d="M8.48835 14.9879V11.3174C8.48834 11.3033 8.48476 11.2894 8.47798 11.2772C8.47121 11.265 8.46148 11.255 8.44979 11.2481C8.4381 11.2412 8.42487 11.2377 8.41147 11.2379C8.39807 11.2382 8.38497 11.2422 8.37352 11.2495L7.73088 11.6653C7.70798 11.68 7.68178 11.688 7.65498 11.6885C7.62817 11.689 7.60172 11.682 7.57835 11.6682C7.55497 11.6544 7.53551 11.6342 7.52195 11.6099C7.5084 11.5855 7.50124 11.5578 7.50122 11.5296V10.8389C7.50122 10.7276 7.55662 10.6236 7.64828 10.5663L8.41784 10.0815C8.46468 10.0518 8.51829 10.036 8.57296 10.0359H9.20351C9.2432 10.0359 9.28249 10.0441 9.31915 10.0601C9.35582 10.0761 9.38913 10.0996 9.41719 10.1291C9.44525 10.1587 9.46751 10.1937 9.4827 10.2324C9.49788 10.271 9.5057 10.3123 9.5057 10.3541V14.9868C9.5057 15.0712 9.47386 15.1522 9.41719 15.2119C9.36052 15.2716 9.28366 15.3051 9.20351 15.3051H8.79154C8.75186 15.3052 8.71254 15.2971 8.67582 15.2813C8.63911 15.2654 8.60572 15.2421 8.57757 15.2126C8.54942 15.1832 8.52705 15.1482 8.51174 15.1096C8.49643 15.0711 8.48848 15.0297 8.48835 14.9879Z" fill="white"/>
</svg>
