<svg width="27" height="27" viewBox="0 0 27 27" fill="none" xmlns="http://www.w3.org/2000/svg">
<path d="M13.5 0C10.83 0 8.21987 0.791761 5.99981 2.27516C3.77974 3.75856 2.04941 5.86697 1.02763 8.33377C0.00584932 10.8006 -0.261496 13.515 0.259405 16.1337C0.780305 18.7525 2.06605 21.1579 3.95406 23.0459C5.84207 24.9339 8.24754 26.2197 10.8663 26.7406C13.485 27.2615 16.1994 26.9942 18.6662 25.9724C21.133 24.9506 23.2414 23.2203 24.7248 21.0002C26.2082 18.7801 27 16.17 27 13.5C26.9959 9.92083 25.5723 6.48942 23.0414 3.95857C20.5106 1.42771 17.0792 0.00408348 13.5 0ZM25.0232 12.5357H19.3243C19.5656 10.0404 20.4779 7.65686 21.9645 5.63818C23.7299 7.52852 24.8073 9.95823 25.0232 12.5357ZM14.4643 12.5357V1.97679C16.6695 2.15951 18.7749 2.97593 20.5268 4.32771C18.7227 6.70973 17.6365 9.55737 17.3957 12.5357H14.4643ZM12.5357 12.5357H9.60429C9.36354 9.55737 8.27727 6.70973 6.47325 4.32771C8.22525 2.97628 10.3306 2.16019 12.5357 1.97775V12.5357ZM12.5357 14.4643V25.0232C10.3305 24.8405 8.22514 24.0241 6.47325 22.6723C8.27727 20.2903 9.36354 17.4426 9.60429 14.4643H12.5357ZM14.4643 14.4643H17.3957C17.6367 17.4427 18.7234 20.2904 20.5277 22.6723C18.7755 24.0239 16.6697 24.84 14.4643 25.0222V14.4643ZM5.03358 5.63818C6.52086 7.65665 7.43387 10.0402 7.67572 12.5357H1.97776C2.19309 9.95847 3.26986 7.52879 5.03454 5.63818M1.97679 14.4643H7.67572C7.43444 16.9596 6.5221 19.3431 5.0355 21.3618C3.27012 19.4715 2.19266 17.0418 1.97679 14.4643ZM21.9664 21.3618C20.4791 19.3433 19.5661 16.9598 19.3243 14.4643H25.0213C24.806 17.0415 23.7292 19.4712 21.9645 21.3618" fill="white"/>
</svg>
