<svg width="360" height="360" viewBox="0 0 360 360" fill="none" xmlns="http://www.w3.org/2000/svg">
<g clip-path="url(#clip0_11_27)">
<path d="M167.344 0.421875C166.008 0.5625 161.859 1.05469 158.203 1.40625C135 3.9375 109.336 12.6562 88.5937 25.0312C62.2266 40.7812 40.7812 62.2266 25.0312 88.5938C12.7266 109.125 4.57031 133.031 1.26562 158.203C0.140625 166.852 0.140625 193.148 1.26562 201.797C7.03125 245.602 26.2969 282.656 58.9219 312.961C76.9219 329.766 99.3516 342.844 123.75 350.859C143.016 357.258 158.273 359.578 180 359.578C196.031 359.578 203.133 358.945 217.266 356.062C265.711 346.148 308.953 315.07 334.969 271.406C347.273 250.875 355.43 226.969 358.734 201.797C359.859 193.148 359.859 166.852 358.734 158.203C355.43 133.031 347.273 109.125 334.969 88.5938C319.219 62.2266 297.773 40.7812 271.406 25.0312C251.086 12.8672 226.828 4.57031 202.5 1.40625C196.312 0.5625 171.703 -0.0703125 167.344 0.421875ZM207.07 14.6953C238.922 20.1797 267.469 33.8906 291.656 55.1953C292.359 55.8281 292.219 57.2344 291.094 62.2969C289.687 68.2734 285.539 82.3359 285.047 82.8984C284.906 83.0391 281.25 79.5938 276.891 75.1641C245.039 42.9609 203.695 24.0469 150.82 17.2969L143.789 16.4531L150.469 15.1875C162.07 13.0781 166.57 12.7266 182.812 13.0078C194.766 13.1484 200.672 13.5703 207.07 14.6953ZM150.75 29.9531C190.617 34.5234 226.406 48.8672 254.391 71.3672C260.789 76.5703 268.734 84.3047 275.203 91.6875L279.422 96.3984L276.469 102.375C271.336 112.641 263.109 124.734 255.094 133.523L251.086 137.953L240.328 127.125C225.211 111.938 212.555 102.586 193.781 92.8125C153.773 71.9297 108.07 64.0547 57.6562 69.3281L53.7891 69.75L62.9297 60.6797C72.9141 50.8359 81.7734 43.8047 93.0234 36.9141C104.555 29.8828 106.031 29.25 111.797 28.7578C119.32 28.0547 140.133 28.6875 150.75 29.9531ZM312.328 77.6953C318.375 85.4297 322.383 91.5469 327.727 101.32L331.805 108.773L328.641 116.789C324.422 127.617 314.719 146.953 308.672 156.656C281.953 199.406 243.844 230.484 201.305 244.195C193.219 246.867 178.875 250.102 178.242 249.469C177.117 248.344 176.203 238.711 176.203 227.812C176.203 213.398 177.398 205.453 181.336 193.781L183.867 186.047L191.953 184.5C214.383 180.141 234.773 169.594 253.477 152.719C274.922 133.523 292.008 105.539 300.234 76.2891C301.43 72 302.555 68.0625 302.766 67.5C303.187 66.3047 304.523 67.6406 312.328 77.6953ZM110.25 81.2109C154.687 85.7109 190.687 100.477 222.258 127.055C228.234 132.047 238.148 142.102 240.328 145.406C241.383 146.953 241.312 147.164 239.344 148.781C235.687 151.805 224.086 159.398 218.672 162.281C211.008 166.359 200.461 170.086 191.25 171.984L183.164 173.672L181.125 171C180 169.594 175.43 164.742 170.93 160.312C136.617 126.352 80.1562 113.977 26.0859 128.742C23.2734 129.516 20.7422 130.008 20.6016 129.797C20.1094 129.375 23.6953 119.461 27.0703 111.867C30.2344 104.766 35.2266 95.5547 39.5156 88.9453L42.75 83.9531L52.1719 82.6875C57.3047 81.9844 64.0547 81.2109 67.1484 80.9297C76.6406 79.9453 99.6328 80.1562 110.25 81.2109ZM340.594 132.75C345.094 147.797 347.344 163.477 347.344 180.352V192.375L343.266 200.109C312.82 257.273 262.898 296.648 207.914 306.773L202.43 307.828L199.195 302.766C192.305 292.148 185.414 277.523 182.25 266.977C181.195 263.531 181.055 262.125 181.617 261.914C182.109 261.773 186.398 260.859 191.18 259.805C237.305 249.891 283.43 216.633 314.086 171.211C321.609 160.031 331.805 141.539 336.375 130.852C337.359 128.391 338.414 126.492 338.555 126.703C338.766 126.914 339.68 129.586 340.594 132.75ZM88.5937 135.984C97.5937 137.109 108.281 139.219 108.281 139.922C108.281 140.203 107.508 142.664 106.523 145.477C94.4297 181.125 94.2891 222.469 106.172 263.391C113.344 287.93 125.789 313.523 141.539 335.742C144.773 340.383 147.445 344.25 147.375 344.32C147.305 344.391 143.156 343.406 138.094 342.141C121.992 337.922 107.93 332.016 93.1641 323.086L85.3594 318.445L80.7187 310.922C47.4609 257.484 37.9687 196.102 54.9141 144.703C57.7969 136.055 57.9375 135.773 60.0469 135.492C65.25 134.859 81.1406 135.141 88.5937 135.984ZM43.5937 138.164C43.5937 138.375 42.4687 142.453 41.1328 147.164C35.7891 166.148 34.1016 180.281 34.6641 202.781C35.2969 231.047 40.8516 256.359 52.4531 283.359C54.4922 288.141 56.1094 292.148 56.0391 292.219C55.6875 292.57 47.1094 281.883 43.0312 276.188C28.0547 254.953 18.7031 231.82 14.2734 204.961C12.4453 193.922 12.4453 165.938 14.2734 155.109C16.1016 144.211 15.8203 144.633 22.2891 142.734C34.3828 139.148 43.5937 137.18 43.5937 138.164ZM127.617 146.039C143.227 152.438 158.484 163.617 169.453 176.625L172.898 180.633L171.141 185.062C162.773 206.297 161.367 234.211 167.273 259.664C173.672 287.016 188.437 313.594 209.25 335.32C213.398 339.609 216.633 343.266 216.492 343.406C216.352 343.547 212.273 344.391 207.422 345.234C198.492 346.781 171 348.047 167.133 347.062C165.305 346.641 159.258 339.398 151.453 328.359C121.43 285.891 106.453 234.984 110.391 188.789C111.656 174.375 113.977 162.844 118.195 149.906C120.656 142.523 119.883 142.875 127.617 146.039ZM337.148 238.008C331.453 253.125 323.508 267.68 313.453 281.18C306.984 289.898 289.898 306.914 280.898 313.664C267.68 323.508 253.195 331.453 238.008 337.078L230.977 339.75L221.344 329.836C216 324.422 211.641 319.711 211.641 319.43C211.641 319.078 214.875 318.094 218.883 317.18C238.359 312.75 258.891 303.82 277.734 291.445C298.758 277.734 321.961 255.234 336.094 235.055C337.781 232.594 339.258 230.766 339.398 230.906C339.539 231.047 338.555 234.281 337.148 238.008Z" fill="white"/>
</g>
<defs>
<clipPath id="clip0_11_27">
<rect width="360" height="360" fill="white"/>
</clipPath>
</defs>
</svg>
