<svg width="257" height="210" viewBox="0 0 257 210" fill="none" xmlns="http://www.w3.org/2000/svg">
<path d="M236.698 128.604C233.353 150.096 218.106 167.842 195.792 179.065C173.482 190.285 144.253 194.886 113.414 190.085C82.5745 185.285 56.1279 172.017 38.2839 154.546C20.4366 137.072 11.3057 115.531 14.6513 94.0389C17.9969 72.5466 33.2434 54.8002 55.5577 43.5779C77.8678 32.3577 107.096 27.7564 137.936 32.557C168.775 37.3576 195.222 50.6255 213.066 68.0962C230.913 85.5702 240.044 107.111 236.698 128.604Z" fill="white" stroke="#D9D9D9" stroke-width="4"/>
<path d="M243.736 107.04C240.804 125.878 225.974 141.337 203.767 150.925C181.589 160.501 152.329 164.071 121.269 159.236C90.2101 154.401 63.4192 142.106 45.2011 126.242C26.9595 110.357 17.5306 91.1226 20.463 72.2847C23.3954 53.4468 38.2248 37.9883 60.4316 28.4C82.6099 18.8239 111.87 15.2543 142.93 20.0891C173.989 24.9239 200.78 37.2187 218.998 53.083C237.24 68.9677 246.668 88.2023 243.736 107.04Z" fill="white" stroke="#DEDEDE" stroke-width="4"/>
<path d="M212.98 98.5444C211.068 110.825 201.121 121.231 185.432 127.784C169.806 134.311 149.021 136.732 126.83 133.278C104.638 129.823 85.5728 121.199 72.6702 110.231C59.7155 99.2193 53.4022 86.2818 55.3137 74.0015C57.2253 61.7213 67.1725 51.315 82.8615 44.7618C98.4873 38.2351 119.272 35.8137 141.464 39.2681C163.655 42.7226 182.721 51.3471 195.623 62.3147C208.578 73.3267 214.891 86.2642 212.98 98.5444Z" fill="white" stroke="#DEDEDE" stroke-width="7"/>
</svg>
