<svg width="20" height="20" viewBox="0 0 20 20" fill="none" xmlns="http://www.w3.org/2000/svg">
<path d="M7.85714 1.42847C7.6677 1.42847 7.48602 1.50372 7.35207 1.63766C7.21811 1.77161 7.14286 1.95328 7.14286 2.1427V6.42954C7.14286 6.61897 7.0676 6.80064 6.93365 6.93458C6.79969 7.06853 6.61801 7.14378 6.42857 7.14378H2.14286C1.95342 7.14378 1.77174 7.21903 1.63778 7.35297C1.50383 7.48692 1.42857 7.66858 1.42857 7.85801V12.1434C1.42857 12.3328 1.50383 12.5145 1.63778 12.6485C1.77174 12.7824 1.95342 12.8577 2.14286 12.8577H6.42857C6.61801 12.8577 6.79969 12.9329 6.93365 13.0668C7.0676 13.2008 7.14286 13.3825 7.14286 13.5719V17.8573C7.14286 18.0467 7.21811 18.2284 7.35207 18.3623C7.48602 18.4963 7.6677 18.5715 7.85714 18.5715H12.1429C12.3323 18.5715 12.514 18.4963 12.6479 18.3623C12.7819 18.2284 12.8571 18.0467 12.8571 17.8573V13.5719C12.8571 13.3825 12.9324 13.2008 13.0664 13.0668C13.2003 12.9329 13.382 12.8577 13.5714 12.8577H17.8571C18.0466 12.8577 18.2283 12.7824 18.3622 12.6485C18.4962 12.5145 18.5714 12.3328 18.5714 12.1434V7.85801C18.5714 7.66858 18.4962 7.48692 18.3622 7.35297C18.2283 7.21903 18.0466 7.14378 17.8571 7.14378H13.5714C13.382 7.14378 13.2003 7.06853 13.0664 6.93458C12.9324 6.80064 12.8571 6.61897 12.8571 6.42954V2.1427C12.8571 1.95328 12.7819 1.77161 12.6479 1.63766C12.514 1.50372 12.3323 1.42847 12.1429 1.42847H7.85714ZM5.71429 2.1427C5.71429 1.57442 5.94005 1.02942 6.34191 0.627584C6.74378 0.225749 7.28882 0 7.85714 0H12.1429C12.7112 0 13.2562 0.225749 13.6581 0.627584C14.0599 1.02942 14.2857 1.57442 14.2857 2.1427V5.71531H17.8571C18.4255 5.71531 18.9705 5.94105 19.3724 6.34289C19.7742 6.74472 20 7.28973 20 7.85801V12.1434C20 12.7117 19.7742 13.2567 19.3724 13.6585C18.9705 14.0604 18.4255 14.2861 17.8571 14.2861H14.2857V17.8573C14.2857 18.4256 14.0599 18.9706 13.6581 19.3724C13.2562 19.7743 12.7112 20 12.1429 20H7.85714C7.28882 20 6.74378 19.7743 6.34191 19.3724C5.94005 18.9706 5.71429 18.4256 5.71429 17.8573V14.2861H2.14286C1.57454 14.2861 1.02949 14.0604 0.627628 13.6585C0.225765 13.2567 0 12.7117 0 12.1434V7.85801C0 7.28973 0.225765 6.74472 0.627628 6.34289C1.02949 5.94105 1.57454 5.71531 2.14286 5.71531H5.71429V2.1427Z" fill="white"/>
</svg>
