<svg width="27" height="27" viewBox="0 0 27 27" fill="none" xmlns="http://www.w3.org/2000/svg">
<path d="M13.5 0C10.83 0 8.21987 0.791761 5.99981 2.27516C3.77974 3.75856 2.04941 5.86697 1.02763 8.33377C0.0058493 10.8006 -0.261496 13.515 0.259405 16.1337C0.780305 18.7525 2.06606 21.1579 3.95406 23.0459C5.84207 24.9339 8.24754 26.2197 10.8663 26.7406C13.485 27.2615 16.1994 26.9942 18.6662 25.9724C21.133 24.9506 23.2414 23.2203 24.7248 21.0002C26.2082 18.7801 27 16.17 27 13.5C26.9962 9.92074 25.5727 6.48915 23.0418 3.95823C20.5108 1.42731 17.0793 0.00377976 13.5 0ZM24.1053 9.25529C22.3752 8.72201 20.5941 8.37135 18.791 8.20904C18.6286 6.40593 18.278 4.62478 17.7447 2.89471C19.178 3.47296 20.48 4.33426 21.5729 5.42713C22.6657 6.51999 23.527 7.82199 24.1053 9.25529ZM24.9231 13.5C24.9236 14.6953 24.7362 15.8833 24.3675 17.0204C23.4259 14.6882 22.1509 12.5051 20.5823 10.5391C22.0121 10.7888 23.416 11.169 24.7764 11.6749C24.874 12.2784 24.9231 12.8887 24.9231 13.5ZM15.3251 2.22361C15.831 3.584 16.2112 4.9879 16.4609 6.41769C14.4949 4.84913 12.3118 3.57412 9.97962 2.6325C11.7038 2.07433 13.5361 1.93418 15.3251 2.22361ZM7.32635 3.89423C10.2215 4.7891 12.9198 6.22701 15.2771 8.13115C10.5901 8.34017 6.04708 9.81413 2.13015 12.3966C2.29875 10.6792 2.85377 9.02225 3.75365 7.54981C4.65352 6.07736 5.87493 4.82763 7.32635 3.89423ZM2.1639 14.9097C6.39292 11.7608 11.5447 10.0991 16.8166 10.1834C16.9009 15.4553 15.2392 20.6071 12.0903 24.8361C9.56845 24.5185 7.22406 23.3705 5.42677 21.5732C3.62947 19.7759 2.48151 17.4315 2.1639 14.9097ZM14.6034 24.8699C17.1863 20.9531 18.6607 16.4101 18.8701 11.7229C20.7738 14.0803 22.2113 16.7786 23.1058 19.6737C22.1724 21.1251 20.9226 22.3465 19.4502 23.2464C17.9777 24.1462 16.3208 24.7013 14.6034 24.8699Z" fill="white"/>
</svg>
