<svg width="20" height="16" viewBox="0 0 20 16" fill="none" xmlns="http://www.w3.org/2000/svg">
<path d="M14.7458 0H5.25424C4.57996 0 3.9333 0.268996 3.45651 0.747812C2.97972 1.22663 2.71186 1.87604 2.71186 2.55319V14.8085C2.71186 15.1245 2.83686 15.4276 3.05937 15.651C3.28187 15.8745 3.58364 16 3.89831 16H5.9322C6.24687 16 6.54864 15.8745 6.77114 15.651C6.99364 15.4276 7.11864 15.1245 7.11864 14.8085V13.2766H12.8814V14.8085C12.8814 15.1245 13.0064 15.4276 13.2289 15.651C13.4514 15.8745 13.7531 16 14.0678 16H16.1017C16.4164 16 16.7181 15.8745 16.9406 15.651C17.1631 15.4276 17.2881 15.1245 17.2881 14.8085V2.55319C17.2881 1.87604 17.0203 1.22663 16.5435 0.747812C16.0667 0.268996 15.42 0 14.7458 0ZM3.72881 12.2553V7.14894H16.2712V12.2553H3.72881ZM3.72881 3.74468H16.2712V6.12766H3.72881V3.74468ZM5.25424 1.02128H14.7458C15.1503 1.02128 15.5383 1.18267 15.8244 1.46996C16.1105 1.75725 16.2712 2.1469 16.2712 2.55319V2.7234H3.72881V2.55319C3.72881 2.1469 3.88953 1.75725 4.1756 1.46996C4.46167 1.18267 4.84967 1.02128 5.25424 1.02128ZM6.1017 14.8085C6.1017 14.8537 6.08384 14.8969 6.05205 14.9289C6.02027 14.9608 5.97716 14.9787 5.9322 14.9787H3.89831C3.85335 14.9787 3.81024 14.9608 3.77846 14.9289C3.74667 14.8969 3.72881 14.8537 3.72881 14.8085V13.2766H6.1017V14.8085ZM16.1017 14.9787H14.0678C14.0228 14.9787 13.9797 14.9608 13.9479 14.9289C13.9162 14.8969 13.8983 14.8537 13.8983 14.8085V13.2766H16.2712V14.8085C16.2712 14.8537 16.2533 14.8969 16.2215 14.9289C16.1898 14.9608 16.1466 14.9787 16.1017 14.9787ZM7.79661 9.70213C7.79661 9.87045 7.74691 10.035 7.65379 10.175C7.56067 10.3149 7.42831 10.424 7.27346 10.4884C7.11861 10.5528 6.94821 10.5697 6.78382 10.5368C6.61943 10.504 6.46843 10.4229 6.34991 10.3039C6.23139 10.1849 6.15068 10.0333 6.11798 9.86816C6.08528 9.70307 6.10206 9.53195 6.1662 9.37644C6.23035 9.22093 6.33897 9.08801 6.47833 8.99449C6.61769 8.90098 6.78154 8.85106 6.94915 8.85106C7.17391 8.85106 7.38947 8.94073 7.5484 9.10033C7.70732 9.25994 7.79661 9.47641 7.79661 9.70213ZM13.8983 9.70213C13.8983 9.87045 13.8486 10.035 13.7555 10.175C13.6624 10.3149 13.53 10.424 13.3752 10.4884C13.2203 10.5528 13.0499 10.5697 12.8855 10.5368C12.7211 10.504 12.5701 10.4229 12.4516 10.3039C12.3331 10.1849 12.2524 10.0333 12.2197 9.86816C12.187 9.70307 12.2038 9.53195 12.2679 9.37644C12.332 9.22093 12.4407 9.08801 12.58 8.99449C12.7194 8.90098 12.8832 8.85106 13.0508 8.85106C13.2756 8.85106 13.4912 8.94073 13.6501 9.10033C13.809 9.25994 13.8983 9.47641 13.8983 9.70213ZM20 3.91489V5.95745C20 6.09288 19.9464 6.22276 19.8511 6.31852C19.7557 6.41429 19.6264 6.46808 19.4915 6.46808C19.3567 6.46808 19.2273 6.41429 19.132 6.31852C19.0366 6.22276 18.9831 6.09288 18.9831 5.95745V3.91489C18.9831 3.77946 19.0366 3.64958 19.132 3.55382C19.2273 3.45805 19.3567 3.40426 19.4915 3.40426C19.6264 3.40426 19.7557 3.45805 19.8511 3.55382C19.9464 3.64958 20 3.77946 20 3.91489ZM1.01695 3.91489V5.95745C1.01695 6.09288 0.963378 6.22276 0.86802 6.31852C0.772663 6.41429 0.64333 6.46808 0.508475 6.46808C0.373619 6.46808 0.244286 6.41429 0.148929 6.31852C0.0535713 6.22276 0 6.09288 0 5.95745V3.91489C0 3.77946 0.0535713 3.64958 0.148929 3.55382C0.244286 3.45805 0.373619 3.40426 0.508475 3.40426C0.64333 3.40426 0.772663 3.45805 0.86802 3.55382C0.963378 3.64958 1.01695 3.77946 1.01695 3.91489Z" fill="white"/>
</svg>
