<svg width="137" height="240" viewBox="0 0 137 240" fill="none" xmlns="http://www.w3.org/2000/svg">
<path d="M45.21 0.221368C45.21 0.345347 45.0274 1.75339 44.799 3.3474C44.5707 4.94142 44.2419 7.26159 44.0684 8.50138C43.8948 9.74117 43.7304 10.8835 43.703 11.0341C43.6574 11.2909 43.6756 11.3175 43.9405 11.3706C44.315 11.4414 44.7716 11.778 45.0091 12.1499C46.1508 13.9476 44.4794 18.2691 40.342 24.2378C37.0266 29.0199 31.6744 35.8476 27.811 40.2488C22.9064 45.8278 19.0522 49.6889 12.9694 55.1174C8.22918 59.3504 6.58518 61.033 5.18778 63.0432C3.97305 64.8054 2.86791 67.2939 2.42038 69.2864L2.25598 69.986L2.47518 70.1542C2.81311 70.4022 4.50278 71.2169 5.49831 71.5977C7.06011 72.191 7.33411 72.5895 6.70391 73.3157C6.33858 73.7319 4.99598 74.6263 3.65338 75.3614C2.23771 76.1318 2.34731 76.0344 2.40211 76.4772C2.59391 78.142 8.18351 83.6768 18.6046 92.5236L19.2622 93.0815L20.614 92.0454C21.3538 91.4697 23.08 90.2034 24.4317 89.2204C36.9444 80.1522 47.9774 74.157 55.7134 72.2088C57.7592 71.6951 59.0196 71.5269 60.7824 71.518C62.3898 71.518 63.0748 71.5977 64.116 71.9254C64.7828 72.1291 65.9427 72.6692 65.9427 72.7755C65.9427 72.8109 65.0933 73.7939 64.0521 74.9629C57.6405 82.189 50.279 90.7082 45.21 96.792C44.1323 98.0849 42.8171 99.6523 42.2874 100.29C41.7485 100.919 40.5338 102.398 39.5839 103.567C28.1398 117.603 21.3264 127.477 20.4222 131.302C20.0386 132.967 20.3856 135.137 21.4816 137.864C22.0205 139.193 23.8106 142.611 24.8792 144.329C27.3361 148.287 30.414 152.494 34.3688 157.294L36.1041 159.401H69.2216H102.348L102.933 158.764C106.961 154.416 111.299 148.172 114.742 141.805C121.492 129.31 125.574 115.451 126.725 101.22C126.798 100.272 126.88 99.2096 126.908 98.873C127.063 96.8628 127.127 92.1693 127.045 89.4418C126.816 82.1271 126.186 76.9819 124.935 72.1556C120.834 56.2686 109.938 42.0022 91.8814 28.8782C84.1363 23.2371 77.1128 18.9422 63.02 11.2201C51.7404 5.04768 48.3428 2.94005 46.0046 0.664149C45.621 0.301069 45.2922 -2.26498e-05 45.2648 -2.26498e-05C45.2374 -2.26498e-05 45.21 0.0973892 45.21 0.221368Z" fill="white"/>
<path d="M7.2336 179.477L7.261 194.868H68.089H128.917L128.944 179.477L128.963 164.095H68.089H7.21533L7.2336 179.477Z" fill="white"/>
<path d="M0 219.69V239.864L68.4817 239.828L136.954 239.784L136.982 219.655L137 199.517H68.5H0V219.69Z" fill="white"/>
</svg>
