<svg width="17" height="18" viewBox="0 0 17 18" fill="none" xmlns="http://www.w3.org/2000/svg">
<path d="M15.734 1.41176H13.383V0.529412C13.383 0.389003 13.3258 0.254345 13.2241 0.155061C13.1223 0.0557771 12.9843 0 12.8404 0C12.6965 0 12.5585 0.0557771 12.4568 0.155061C12.355 0.254345 12.2979 0.389003 12.2979 0.529412V1.41176H4.70213V0.529412C4.70213 0.389003 4.64497 0.254345 4.54322 0.155061C4.44147 0.0557771 4.30347 0 4.15957 0C4.01568 0 3.87768 0.0557771 3.77593 0.155061C3.67418 0.254345 3.61702 0.389003 3.61702 0.529412V1.41176H1.26596C0.930205 1.41176 0.608203 1.54191 0.37079 1.77357C0.133377 2.00524 0 2.31944 0 2.64706V16.7647C0 17.0923 0.133377 17.4065 0.37079 17.6382C0.608203 17.8699 0.930205 18 1.26596 18H15.734C16.0698 18 16.3918 17.8699 16.6292 17.6382C16.8666 17.4065 17 17.0923 17 16.7647V2.64706C17 2.31944 16.8666 2.00524 16.6292 1.77357C16.3918 1.54191 16.0698 1.41176 15.734 1.41176ZM1.26596 2.47059H3.61702V3.35294C3.61702 3.49335 3.67418 3.62801 3.77593 3.72729C3.87768 3.82658 4.01568 3.88235 4.15957 3.88235C4.30347 3.88235 4.44147 3.82658 4.54322 3.72729C4.64497 3.62801 4.70213 3.49335 4.70213 3.35294V2.47059H12.2979V3.35294C12.2979 3.49335 12.355 3.62801 12.4568 3.72729C12.5585 3.82658 12.6965 3.88235 12.8404 3.88235C12.9843 3.88235 13.1223 3.82658 13.2241 3.72729C13.3258 3.62801 13.383 3.49335 13.383 3.35294V2.47059H15.734C15.782 2.47059 15.828 2.48918 15.8619 2.52228C15.8958 2.55537 15.9149 2.60026 15.9149 2.64706V5.64706H1.08511V2.64706C1.08511 2.60026 1.10416 2.55537 1.13808 2.52228C1.17199 2.48918 1.21799 2.47059 1.26596 2.47059ZM15.734 16.9412H1.26596C1.21799 16.9412 1.17199 16.9226 1.13808 16.8895C1.10416 16.8564 1.08511 16.8115 1.08511 16.7647V6.70588H15.9149V16.7647C15.9149 16.8115 15.8958 16.8564 15.8619 16.8895C15.828 16.9226 15.782 16.9412 15.734 16.9412ZM6.87234 9V14.6471C6.87234 14.7875 6.81518 14.9221 6.71343 15.0214C6.61168 15.1207 6.47368 15.1765 6.32979 15.1765C6.18589 15.1765 6.04789 15.1207 5.94614 15.0214C5.8444 14.9221 5.78723 14.7875 5.78723 14.6471V9.85677L5.12532 10.1797C5.06155 10.2108 4.99214 10.2293 4.92105 10.2341C4.84995 10.239 4.77857 10.2302 4.71098 10.2081C4.64338 10.1861 4.5809 10.1513 4.5271 10.1057C4.47329 10.0601 4.42922 10.0046 4.39739 9.94235C4.36557 9.88013 4.34662 9.8124 4.34162 9.74303C4.33662 9.67366 4.34567 9.60401 4.36826 9.53805C4.39084 9.47209 4.42652 9.41112 4.47326 9.35862C4.52 9.30612 4.57687 9.26311 4.64064 9.23206L6.08745 8.52618C6.17018 8.48588 6.26209 8.46687 6.35446 8.47098C6.44684 8.47508 6.5366 8.50215 6.61523 8.54962C6.69387 8.59709 6.75877 8.66339 6.80376 8.74221C6.84876 8.82103 6.87237 8.90977 6.87234 9ZM12.259 11.5809L10.3085 14.1176H12.117C12.2609 14.1176 12.3989 14.1734 12.5007 14.2727C12.6024 14.372 12.6596 14.5067 12.6596 14.6471C12.6596 14.7875 12.6024 14.9221 12.5007 15.0214C12.3989 15.1207 12.2609 15.1765 12.117 15.1765H9.2234C9.12265 15.1765 9.02388 15.1491 8.93817 15.0974C8.85246 15.0457 8.78319 14.9718 8.73813 14.8838C8.69307 14.7959 8.67399 14.6974 8.68304 14.5995C8.69209 14.5016 8.72891 14.4081 8.78936 14.3294L11.3936 10.9412C11.4686 10.845 11.5226 10.7349 11.5521 10.6175C11.5817 10.5002 11.5863 10.3782 11.5655 10.2591C11.5448 10.14 11.4992 10.0263 11.4316 9.92504C11.364 9.82381 11.2758 9.73721 11.1725 9.67061C11.0692 9.60401 10.953 9.55882 10.831 9.53785C10.7091 9.51687 10.584 9.52057 10.4636 9.54869C10.3431 9.57681 10.2299 9.62877 10.1309 9.70135C10.0319 9.77392 9.94925 9.86556 9.88803 9.97059C9.85568 10.0364 9.80972 10.095 9.75304 10.1427C9.69637 10.1903 9.6302 10.226 9.55871 10.2475C9.48721 10.2691 9.41193 10.2759 9.33759 10.2677C9.26325 10.2594 9.19146 10.2363 9.12673 10.1997C9.062 10.163 9.00574 10.1138 8.96146 10.0549C8.91719 9.99605 8.88587 9.9289 8.86948 9.85767C8.85308 9.78644 8.85196 9.71266 8.86618 9.64099C8.8804 9.56931 8.90967 9.50129 8.95213 9.44118C9.08848 9.21276 9.2712 9.01393 9.4891 8.85686C9.70699 8.6998 9.95547 8.58782 10.2193 8.52778C10.4831 8.46774 10.7567 8.46091 11.0233 8.50771C11.29 8.55451 11.544 8.65396 11.7698 8.79995C11.9957 8.94594 12.1886 9.1354 12.3367 9.35671C12.4848 9.57802 12.5851 9.82653 12.6313 10.087C12.6775 10.3475 12.6688 10.6144 12.6055 10.8714C12.5423 11.1285 12.4259 11.3702 12.2635 11.5818L12.259 11.5809Z" fill="#005261"/>
</svg>
