<svg width="27" height="27" viewBox="0 0 27 27" fill="none" xmlns="http://www.w3.org/2000/svg">
<path d="M13.5 8.5L18.255 11.955M13.5 8.5L8.745 11.955M13.5 8.5V4.75M18.255 11.955L16.4387 17.545H10.5625M18.255 11.955L21.625 10.375M8.745 11.955L10.5625 17.545M8.745 11.955L5.375 10.375M13.5 4.75L9.28 1.73M13.5 4.75L17.72 1.73M21.625 10.375L25.9375 14.75M21.625 10.375L22.875 5.23125M10.5625 17.545L8.5 20.375M16.44 17.545L18.5 20.375M18.5 20.375L24.3275 19.75M18.5 20.375L15.375 25.86M8.5 20.375L2.6725 19.75M8.5 20.375L11.625 25.86M5.375 10.375L1.0625 14.75M5.375 10.375L4.125 5.23125M26 13.5C26 20.4037 20.4037 26 13.5 26C6.59625 26 1 20.4037 1 13.5C1 6.59625 6.59625 1 13.5 1C20.4037 1 26 6.59625 26 13.5Z" stroke="white" stroke-width="1.5" stroke-linecap="round" stroke-linejoin="round"/>
</svg>
