<svg width="20" height="20" viewBox="0 0 20 20" fill="none" xmlns="http://www.w3.org/2000/svg">
<path d="M11.8 19H8.2C4.8061 19 3.1087 19 2.0548 17.9182C1 16.8372 1 15.0963 1 11.6154V9.76923C1 6.28831 1 4.54738 2.0548 3.46646C3.1087 2.38462 4.8061 2.38462 8.2 2.38462H11.8C15.1939 2.38462 16.8913 2.38462 17.9452 3.46646C19 4.54738 19 6.28831 19 9.76923V11.6154C19 15.0963 19 16.8372 17.9452 17.9182C17.3575 18.5218 16.57 18.7886 15.4 18.9058M5.5 2.38462V1M14.5 2.38462V1M18.55 7H8.875M1 7H4.4875" stroke="white" stroke-width="1.5" stroke-linecap="round"/>
<path d="M15.2692 14.3847C15.2692 14.4969 15.2246 14.6045 15.1453 14.6838C15.0659 14.7632 14.9583 14.8077 14.8461 14.8077C14.7339 14.8077 14.6263 14.7632 14.5469 14.6838C14.4676 14.6045 14.423 14.4969 14.423 14.3847C14.423 14.2725 14.4676 14.1649 14.5469 14.0855C14.6263 14.0062 14.7339 13.9616 14.8461 13.9616C14.9583 13.9616 15.0659 14.0062 15.1453 14.0855C15.2246 14.1649 15.2692 14.2725 15.2692 14.3847ZM15.2692 10.6924C15.2692 10.8046 15.2246 10.9122 15.1453 10.9915C15.0659 11.0709 14.9583 11.1154 14.8461 11.1154C14.7339 11.1154 14.6263 11.0709 14.5469 10.9915C14.4676 10.9122 14.423 10.8046 14.423 10.6924C14.423 10.5802 14.4676 10.4725 14.5469 10.3932C14.6263 10.3139 14.7339 10.2693 14.8461 10.2693C14.9583 10.2693 15.0659 10.3139 15.1453 10.3932C15.2246 10.4725 15.2692 10.5802 15.2692 10.6924ZM10.6538 14.3847C10.6538 14.4969 10.6092 14.6045 10.5299 14.6838C10.4505 14.7632 10.3429 14.8077 10.2307 14.8077C10.1185 14.8077 10.0109 14.7632 9.93156 14.6838C9.85222 14.6045 9.80765 14.4969 9.80765 14.3847C9.80765 14.2725 9.85222 14.1649 9.93156 14.0855C10.0109 14.0062 10.1185 13.9616 10.2307 13.9616C10.3429 13.9616 10.4505 14.0062 10.5299 14.0855C10.6092 14.1649 10.6538 14.2725 10.6538 14.3847ZM10.6538 10.6924C10.6538 10.8046 10.6092 10.9122 10.5299 10.9915C10.4505 11.0709 10.3429 11.1154 10.2307 11.1154C10.1185 11.1154 10.0109 11.0709 9.93156 10.9915C9.85222 10.9122 9.80765 10.8046 9.80765 10.6924C9.80765 10.5802 9.85222 10.4725 9.93156 10.3932C10.0109 10.3139 10.1185 10.2693 10.2307 10.2693C10.3429 10.2693 10.4505 10.3139 10.5299 10.3932C10.6092 10.4725 10.6538 10.5802 10.6538 10.6924ZM6.03841 14.3847C6.03841 14.4969 5.99384 14.6045 5.9145 14.6838C5.83516 14.7632 5.72755 14.8077 5.61534 14.8077C5.50313 14.8077 5.39552 14.7632 5.31618 14.6838C5.23684 14.6045 5.19226 14.4969 5.19226 14.3847C5.19226 14.2725 5.23684 14.1649 5.31618 14.0855C5.39552 14.0062 5.50313 13.9616 5.61534 13.9616C5.72755 13.9616 5.83516 14.0062 5.9145 14.0855C5.99384 14.1649 6.03841 14.2725 6.03841 14.3847ZM6.03841 10.6924C6.03841 10.8046 5.99384 10.9122 5.9145 10.9915C5.83516 11.0709 5.72754 11.1154 5.61534 11.1154C5.50313 11.1154 5.39552 11.0709 5.31618 10.9915C5.23683 10.9122 5.19226 10.8046 5.19226 10.6924C5.19226 10.5802 5.23683 10.4725 5.31618 10.3932C5.39552 10.3139 5.50313 10.2693 5.61534 10.2693C5.72754 10.2693 5.83516 10.3139 5.9145 10.3932C5.99384 10.4725 6.03841 10.5802 6.03841 10.6924Z" fill="white" stroke="white"/>
</svg>
