<svg width="327" height="143" viewBox="0 0 327 143" fill="none" xmlns="http://www.w3.org/2000/svg">
<g filter="url(#filter0_d_1003_2392)">
<ellipse cx="136.5" cy="101" rx="11.5" ry="12" fill="#FFC24C"/>
</g>
<path d="M136.5 95L137.959 99.1459H142.682L138.861 101.708L140.321 105.854L136.5 103.292L132.679 105.854L134.139 101.708L130.318 99.1459H135.041L136.5 95Z" fill="white"/>
<g filter="url(#filter1_d_1003_2392)">
<path d="M297.029 57.7413L311.057 57.5329C310.513 62.8121 309.068 67.4661 306.721 71.495C304.409 75.5238 301.263 78.6497 297.284 80.8725C293.34 83.0953 288.681 84.1373 283.308 83.9983C278.819 83.8941 275.129 82.9043 272.238 81.0288C269.348 79.1185 267.12 76.6179 265.556 73.5268C263.992 70.4009 263.023 66.9451 262.648 63.1594C262.274 59.3389 262.325 55.449 262.802 51.4896L264.74 38.6216C265.352 34.4191 266.389 30.3555 267.852 26.4308C269.314 22.4714 271.252 18.9462 273.667 15.8551C276.081 12.7292 279.04 10.2807 282.542 8.50935C286.079 6.73804 290.16 5.90449 294.785 6.00868C300.124 6.11288 304.341 7.38058 307.435 9.81178C310.564 12.2083 312.808 15.4209 314.169 19.4498C315.529 23.4786 316.226 27.9416 316.26 32.8388L301.671 32.7867C301.807 30.4249 301.773 28.1848 301.569 26.0661C301.365 23.9128 300.685 22.1588 299.529 20.8043C298.407 19.4151 296.451 18.6683 293.663 18.5641C290.942 18.4599 288.698 19.0156 286.929 20.2312C285.195 21.4468 283.801 23.0619 282.746 25.0763C281.726 27.0907 280.944 29.2788 280.4 31.6405C279.89 34.0023 279.482 36.2946 279.176 38.5174L277.39 51.5417C277.152 53.3478 276.931 55.3622 276.727 57.585C276.557 59.8078 276.608 61.9612 276.88 64.0451C277.152 66.129 277.849 67.8655 278.972 69.2548C280.094 70.6441 281.913 71.4081 284.43 71.5471C287.388 71.6513 289.701 71.0956 291.367 69.88C293.033 68.6644 294.275 66.9972 295.091 64.8786C295.941 62.7253 296.587 60.3462 297.029 57.7413Z" fill="url(#paint0_linear_1003_2392)"/>
<path d="M252.395 70.3488L250.202 82.9564H218.882L220.973 70.3488H252.395ZM236.276 7.10272L223.422 82.9564H208.833L221.636 7.10272H236.276ZM253.722 37.8401L251.63 50.083H224.442L226.482 37.8401H253.722ZM263.005 7.10272L260.812 19.7624H229.543L231.736 7.10272H263.005Z" fill="url(#paint1_linear_1003_2392)"/>
<path d="M195.519 7.10272L182.614 82.9564H168.076L180.981 7.10272H195.519ZM213.373 7.10272L211.23 19.7624H161.291L163.434 7.10272H213.373Z" fill="url(#paint2_linear_1003_2392)"/>
<path d="M94.0091 7.10272L81.1035 82.9564H66.5656L79.4712 7.10272H94.0091Z" fill="#005C6D"/>
<path d="M62.2807 43.102L57.6388 74.3603C55.5984 76.6873 53.2009 78.5628 50.4464 79.9868C47.6918 81.4108 44.7843 82.4354 41.7237 83.0606C38.6631 83.7205 35.6535 84.0331 32.6949 83.9983C28.138 83.9289 24.3462 82.9737 21.3196 81.133C18.293 79.2922 15.9296 76.8436 14.2292 73.7873C12.5629 70.6961 11.4747 67.2404 10.9646 63.4199C10.4885 59.5994 10.5055 55.6227 11.0156 51.4896L12.954 38.5695C13.5661 34.2975 14.6033 30.1992 16.0656 26.2745C17.5279 22.3499 19.4663 18.842 21.8807 15.7509C24.2952 12.6598 27.2538 10.2459 30.7565 8.50935C34.2932 6.73804 38.425 5.90449 43.1519 6.00868C48.321 6.14761 52.4528 7.27638 55.5474 9.39501C58.642 11.4789 60.9035 14.4137 62.3317 18.1994C63.76 21.9505 64.5082 26.2919 64.5762 31.2238H50.4464C50.4804 29.0704 50.3274 27.056 49.9873 25.1805C49.6472 23.2703 48.9161 21.7247 47.7939 20.5438C46.6716 19.3282 44.8693 18.6683 42.3868 18.5641C39.7003 18.4599 37.4558 19.0156 35.6535 20.2312C33.8851 21.4468 32.4398 23.0445 31.3176 25.0242C30.1954 27.0039 29.3282 29.192 28.7161 31.5885C28.138 33.9502 27.7299 36.2425 27.4918 38.4653L25.6555 51.5417C25.4174 53.5214 25.2304 55.64 25.0944 57.8976C24.9923 60.1551 25.1624 62.3085 25.6045 64.3576C26.0806 66.3721 26.9817 68.0392 28.308 69.359C29.6343 70.6441 31.6067 71.3039 34.2252 71.3387C35.4154 71.3387 36.5036 71.2345 37.4898 71.0261C38.51 70.783 39.4792 70.453 40.3974 70.0362C41.3496 69.5847 42.3018 69.0985 43.254 68.5775L45.9575 54.6155H35.5514L37.5408 43.102H62.2807Z" fill="url(#paint3_linear_1003_2392)"/>
<path fill-rule="evenodd" clip-rule="evenodd" d="M107.935 82.9564L116.505 32.422L109.804 7.10272H106.149L93.3459 82.9564H107.935Z" fill="#005C6D"/>
<path d="M143.795 82.9564L156.701 7.10272H142.163L133.593 57.6892L136.455 70.3228L139.316 82.9564H143.795Z" fill="url(#paint4_linear_1003_2392)"/>
<path d="M116.505 32.422L129.563 82.9564H139.316L136.455 70.3228L133.593 57.6892L120.432 7.10272H109.804L116.505 32.422Z" fill="url(#paint5_linear_1003_2392)"/>
</g>
<defs>
<filter id="filter0_d_1003_2392" x="95" y="59" width="83" height="84" filterUnits="userSpaceOnUse" color-interpolation-filters="sRGB">
<feFlood flood-opacity="0" result="BackgroundImageFix"/>
<feColorMatrix in="SourceAlpha" type="matrix" values="0 0 0 0 0 0 0 0 0 0 0 0 0 0 0 0 0 0 127 0" result="hardAlpha"/>
<feOffset/>
<feGaussianBlur stdDeviation="15"/>
<feComposite in2="hardAlpha" operator="out"/>
<feColorMatrix type="matrix" values="0 0 0 0 1 0 0 0 0 0.760784 0 0 0 0 0.298039 0 0 0 0.7 0"/>
<feBlend mode="normal" in2="BackgroundImageFix" result="effect1_dropShadow_1003_2392"/>
<feBlend mode="normal" in="SourceGraphic" in2="effect1_dropShadow_1003_2392" result="shape"/>
</filter>
<filter id="filter1_d_1003_2392" x="0.619812" y="0" width="325.64" height="98.0106" filterUnits="userSpaceOnUse" color-interpolation-filters="sRGB">
<feFlood flood-opacity="0" result="BackgroundImageFix"/>
<feColorMatrix in="SourceAlpha" type="matrix" values="0 0 0 0 0 0 0 0 0 0 0 0 0 0 0 0 0 0 127 0" result="hardAlpha"/>
<feOffset dy="4"/>
<feGaussianBlur stdDeviation="5"/>
<feComposite in2="hardAlpha" operator="out"/>
<feColorMatrix type="matrix" values="0 0 0 0 1 0 0 0 0 1 0 0 0 0 1 0 0 0 0.2 0"/>
<feBlend mode="normal" in2="BackgroundImageFix" result="effect1_dropShadow_1003_2392"/>
<feBlend mode="normal" in="SourceGraphic" in2="effect1_dropShadow_1003_2392" result="shape"/>
</filter>
<linearGradient id="paint0_linear_1003_2392" x1="276.754" y1="51.7051" x2="316.26" y2="29.0355" gradientUnits="userSpaceOnUse">
<stop stop-color="#005C6D"/>
<stop offset="1" stop-color="#004854"/>
</linearGradient>
<linearGradient id="paint1_linear_1003_2392" x1="224.781" y1="30.289" x2="235.919" y2="82.9564" gradientUnits="userSpaceOnUse">
<stop stop-color="#005C6D"/>
<stop offset="1" stop-color="#004854"/>
</linearGradient>
<linearGradient id="paint2_linear_1003_2392" x1="187.172" y1="22.715" x2="187.332" y2="82.9564" gradientUnits="userSpaceOnUse">
<stop stop-color="#005C6D"/>
<stop offset="1" stop-color="#004854"/>
</linearGradient>
<linearGradient id="paint3_linear_1003_2392" x1="37.598" y1="6" x2="8.53044" y2="82.001" gradientUnits="userSpaceOnUse">
<stop offset="0.318242" stop-color="#005C6D"/>
<stop offset="1" stop-color="#004854"/>
</linearGradient>
<linearGradient id="paint4_linear_1003_2392" x1="125.023" y1="7.10272" x2="125.023" y2="82.9564" gradientUnits="userSpaceOnUse">
<stop offset="0.405" stop-color="#FF4CA2"/>
<stop offset="1" stop-color="#4D1780"/>
</linearGradient>
<linearGradient id="paint5_linear_1003_2392" x1="125.023" y1="7.10272" x2="125.023" y2="82.9564" gradientUnits="userSpaceOnUse">
<stop offset="0.09" stop-color="#4C7EFF"/>
<stop offset="1" stop-color="#00C1CF"/>
</linearGradient>
</defs>
</svg>
