<svg width="72" height="75" viewBox="0 0 72 75" fill="none" xmlns="http://www.w3.org/2000/svg">
<path d="M39.2052 31.6423L44.5985 0H38.523L34.9417 21.1021L36.1376 26.3722L37.3335 31.6423H39.2052Z" fill="url(#paint0_linear_851_340)"/>
<path d="M27.8003 10.5619L33.2576 31.6423H37.3335L36.1376 26.3722L34.9417 21.1021L29.4417 0H25L27.8003 10.5619Z" fill="url(#paint1_linear_851_340)"/>
<g filter="url(#filter0_d_851_340)">
<circle cx="35.7848" cy="39.2518" r="5.74818" fill="#FFC24C"/>
</g>
<path d="M35.7847 36.6788L36.3623 38.4567L38.2317 38.4567L36.7194 39.5555L37.297 41.3334L35.7847 40.2346L34.2723 41.3334L34.85 39.5555L33.3376 38.4567L35.207 38.4567L35.7847 36.6788Z" fill="white"/>
<defs>
<filter id="filter0_d_851_340" x="0.0366211" y="3.50366" width="71.4963" height="71.4963" filterUnits="userSpaceOnUse" color-interpolation-filters="sRGB">
<feFlood flood-opacity="0" result="BackgroundImageFix"/>
<feColorMatrix in="SourceAlpha" type="matrix" values="0 0 0 0 0 0 0 0 0 0 0 0 0 0 0 0 0 0 127 0" result="hardAlpha"/>
<feOffset/>
<feGaussianBlur stdDeviation="15"/>
<feComposite in2="hardAlpha" operator="out"/>
<feColorMatrix type="matrix" values="0 0 0 0 1 0 0 0 0 0.760784 0 0 0 0 0.298039 0 0 0 0.7 0"/>
<feBlend mode="normal" in2="BackgroundImageFix" result="effect1_dropShadow_851_340"/>
<feBlend mode="normal" in="SourceGraphic" in2="effect1_dropShadow_851_340" result="shape"/>
</filter>
<linearGradient id="paint0_linear_851_340" x1="34.7993" y1="0" x2="34.7993" y2="31.6423" gradientUnits="userSpaceOnUse">
<stop offset="0.405" stop-color="#FF4CA2"/>
<stop offset="1" stop-color="#4D1780"/>
</linearGradient>
<linearGradient id="paint1_linear_851_340" x1="34.7993" y1="0" x2="34.7993" y2="31.6423" gradientUnits="userSpaceOnUse">
<stop offset="0.09" stop-color="#4C7EFF"/>
<stop offset="1" stop-color="#00C1CF"/>
</linearGradient>
</defs>
</svg>
