<svg width="17" height="19" viewBox="0 0 17 19" fill="none" xmlns="http://www.w3.org/2000/svg">
<path d="M9.49993 16.7857C9.49993 16.9452 9.46852 17.1031 9.4075 17.2504C9.34647 17.3977 9.25703 17.5316 9.14427 17.6443C9.03152 17.7571 8.89765 17.8465 8.75033 17.9076C8.60301 17.9686 8.44511 18 8.28564 18" stroke="#005261" stroke-width="1.2" stroke-linecap="round" stroke-linejoin="round"/>
<path d="M7.07136 16.7857C7.07136 16.9452 7.10277 17.1031 7.16379 17.2504C7.22482 17.3977 7.31426 17.5316 7.42702 17.6443C7.53977 17.7571 7.67363 17.8465 7.82096 17.9076C7.96828 17.9686 8.12618 18 8.28564 18" stroke="#005261" stroke-width="1.2" stroke-linecap="round" stroke-linejoin="round"/>
<path d="M7.07178 15.5714V16.7857" stroke="#005261" stroke-width="1.2" stroke-linecap="round" stroke-linejoin="round"/>
<path d="M9.50001 15.5714L9.5 16.7857" stroke="#005261" stroke-width="1.2" stroke-linecap="round" stroke-linejoin="round"/>
<path d="M15.5713 14.3572C13.1428 15.5715 9.49993 15.5715 8.28564 15.5715" stroke="#005261" stroke-width="1.2" stroke-linecap="round" stroke-linejoin="round"/>
<path d="M15.5714 14.3572C15.5714 11.9286 13.1428 13.1429 13.1428 7.07146C13.1428 4.35624 10.7143 2.21442 9.5 2.21442" stroke="#005261" stroke-width="1.2" stroke-linecap="round" stroke-linejoin="round"/>
<path d="M1 14.3572C3.42857 15.5715 7.07142 15.5715 8.2857 15.5715" stroke="#005261" stroke-width="1.2" stroke-linecap="round" stroke-linejoin="round"/>
<path d="M1 14.357C1 11.9285 3.42857 13.1428 3.42857 7.07134C3.42857 4.35612 5.85713 2.21429 7.07141 2.21429" stroke="#005261" stroke-width="1.2" stroke-linecap="round" stroke-linejoin="round"/>
<path d="M7.07136 2.21429C7.07136 1.89225 7.19929 1.58339 7.42702 1.35567C7.65474 1.12794 7.9636 1.00001 8.28564 1.00001" stroke="#005261" stroke-width="1.2" stroke-linecap="round" stroke-linejoin="round"/>
<path d="M9.49993 2.21429C9.49993 1.89225 9.37199 1.58339 9.14427 1.35567C8.91655 1.12794 8.60769 1.00001 8.28564 1.00001" stroke="#005261" stroke-width="1.2" stroke-linecap="round" stroke-linejoin="round"/>
</svg>
