<svg width="18" height="19" viewBox="0 0 18 19" fill="none" xmlns="http://www.w3.org/2000/svg">
<path d="M15.4818 2.02652H13.5277V0.530729C13.5277 0.25491 13.296 -0.0103005 13.0241 0.000307925C12.7521 0.0109164 12.5204 0.233693 12.5204 0.530729V2.02652H5.4695V0.530729C5.4695 0.25491 5.23783 -0.0103005 4.96587 0.000307925C4.6939 0.0109164 4.46223 0.233693 4.46223 0.530729V2.02652H2.51819C1.85032 2.02652 1.20981 2.30593 0.73756 2.8033C0.265308 3.30067 0 3.97524 0 4.67862V16.3479C0 17.0513 0.265308 17.7258 0.73756 18.2232C1.20981 18.7206 1.85032 19 2.51819 19H15.4818C16.1497 19 16.7902 18.7206 17.2624 18.2232C17.7347 17.7258 18 17.0513 18 16.3479V4.67862C18 3.97524 17.7347 3.30067 17.2624 2.8033C16.7902 2.30593 16.1497 2.02652 15.4818 2.02652ZM16.9927 16.3479C16.9927 17.2284 16.3179 17.9392 15.4818 17.9392H2.51819C1.68215 17.9392 1.00727 17.2284 1.00727 16.3479V7.4156H16.9927V16.3479ZM16.9927 6.35476H1.00727V4.67862C1.00727 3.79812 1.68215 3.08736 2.51819 3.08736H4.46223V3.71326C4.46223 3.98908 4.6939 4.25429 4.96587 4.24368C5.23783 4.23307 5.4695 4.01029 5.4695 3.71326V3.08736H12.5204V3.71326C12.5204 3.98908 12.7521 4.25429 13.0241 4.24368C13.296 4.23307 13.5277 4.01029 13.5277 3.71326V3.08736H15.4818C16.3179 3.08736 16.9927 3.79812 16.9927 4.67862V6.35476Z" fill="#005261"/>
<path d="M8.48811 14.9879V11.3174C8.48809 11.3033 8.48452 11.2894 8.47774 11.2772C8.47096 11.265 8.46123 11.255 8.44954 11.2481C8.43785 11.2412 8.42463 11.2377 8.41123 11.2379C8.39782 11.2382 8.38473 11.2422 8.37328 11.2495L7.73063 11.6653C7.70774 11.68 7.68154 11.688 7.65473 11.6885C7.62793 11.689 7.60148 11.682 7.5781 11.6682C7.55473 11.6544 7.53526 11.6342 7.52171 11.6099C7.50815 11.5855 7.501 11.5578 7.50098 11.5296V10.8389C7.50098 10.7276 7.55638 10.6236 7.64804 10.5663L8.4176 10.0815C8.46443 10.0518 8.51804 10.036 8.57272 10.0359H9.20327C9.24295 10.0359 9.28225 10.0441 9.31891 10.0601C9.35557 10.0761 9.38889 10.0996 9.41695 10.1291C9.44501 10.1587 9.46727 10.1937 9.48245 10.2324C9.49764 10.271 9.50545 10.3123 9.50545 10.3541V14.9868C9.50545 15.0712 9.47362 15.1522 9.41695 15.2119C9.36028 15.2716 9.28341 15.3051 9.20327 15.3051H8.7913C8.75161 15.3052 8.71229 15.2971 8.67558 15.2813C8.63887 15.2654 8.60548 15.2421 8.57733 15.2126C8.54917 15.1832 8.5268 15.1482 8.51149 15.1096C8.49619 15.0711 8.48824 15.0297 8.48811 14.9879Z" fill="#005261"/>
</svg>
