<svg width="17" height="19" viewBox="0 0 17 19" fill="none" xmlns="http://www.w3.org/2000/svg">
<path d="M9.49944 16.7861C9.49944 16.9456 9.46803 17.1035 9.40701 17.2508C9.34598 17.3981 9.25654 17.532 9.14378 17.6448C9.03103 17.7575 8.89717 17.847 8.74984 17.908C8.60252 17.969 8.44462 18.0004 8.28516 18.0004" stroke="#005261" stroke-width="1.2" stroke-linecap="round" stroke-linejoin="round"/>
<path d="M7.07087 16.7861C7.07087 16.9456 7.10228 17.1035 7.1633 17.2508C7.22433 17.3981 7.31377 17.532 7.42653 17.6448C7.53928 17.7575 7.67315 17.847 7.82047 17.908C7.96779 17.969 8.12569 18.0004 8.28516 18.0004" stroke="#005261" stroke-width="1.2" stroke-linecap="round" stroke-linejoin="round"/>
<path d="M7.07129 15.5713V16.7856" stroke="#005261" stroke-width="1.2" stroke-linecap="round" stroke-linejoin="round"/>
<path d="M9.50001 15.5713L9.5 16.7856" stroke="#005261" stroke-width="1.2" stroke-linecap="round" stroke-linejoin="round"/>
<path d="M15.5709 14.3574C13.1423 15.5717 9.49944 15.5717 8.28516 15.5717" stroke="#005261" stroke-width="1.2" stroke-linecap="round" stroke-linejoin="round"/>
<path d="M15.5714 14.3576C15.5714 11.929 13.1428 13.1433 13.1428 7.07189C13.1428 4.35666 10.7143 2.21484 9.5 2.21484" stroke="#005261" stroke-width="1.2" stroke-linecap="round" stroke-linejoin="round"/>
<path d="M1 14.3574C3.42857 15.5717 7.07142 15.5717 8.2857 15.5717" stroke="#005261" stroke-width="1.2" stroke-linecap="round" stroke-linejoin="round"/>
<path d="M1 14.3566C1 11.928 3.42857 13.1423 3.42857 7.07091C3.42857 4.35569 5.85713 2.21387 7.07141 2.21387" stroke="#005261" stroke-width="1.2" stroke-linecap="round" stroke-linejoin="round"/>
<path d="M7.07087 2.21387C7.07087 1.89182 7.19881 1.58296 7.42653 1.35524C7.65425 1.12752 7.96311 0.999584 8.28516 0.999584" stroke="#005261" stroke-width="1.2" stroke-linecap="round" stroke-linejoin="round"/>
<path d="M9.49944 2.21387C9.49944 1.89182 9.37151 1.58296 9.14378 1.35524C8.91606 1.12752 8.6072 0.999584 8.28516 0.999584" stroke="#005261" stroke-width="1.2" stroke-linecap="round" stroke-linejoin="round"/>
</svg>
