<svg width="21" height="18" viewBox="0 0 21 18" fill="none" xmlns="http://www.w3.org/2000/svg">
<path d="M13.4231 5V3C13.4231 2.46957 13.2306 1.96086 12.888 1.58579C12.5454 1.21071 12.0807 1 11.5962 1H2.82692C2.34239 1 1.87771 1.21071 1.53509 1.58579C1.19248 1.96086 1 2.46957 1 3V15C1 15.5304 1.19248 16.0391 1.53509 16.4142C1.87771 16.7893 2.34239 17 2.82692 17H11.5962C12.0807 17 12.5454 16.7893 12.888 16.4142C13.2306 16.0391 13.4231 15.5304 13.4231 15V13M16.3462 5L20 9M20 9L16.3462 13M20 9H7.53125" stroke="#005261" stroke-width="1.2" stroke-linecap="round" stroke-linejoin="round"/>
</svg>
