<svg width="36" height="36" viewBox="0 0 36 36" fill="none" xmlns="http://www.w3.org/2000/svg">
<circle cx="18" cy="18" r="18" fill="#005C6D"/>
<path d="M13.482 27.377C13.2914 27.3089 13.1493 27.2038 12.7457 26.8431C12.1274 26.2886 12.0468 26.158 12.0492 25.7441C12.0528 25.5239 12.0766 25.3991 12.1394 25.2901C12.1977 25.1887 13.6118 23.9695 16.5362 21.5063L20.8477 17.8765L16.6532 14.0847C13.3903 11.138 12.4375 10.2583 12.3744 10.1242C12.3153 10.0092 12.2871 9.86819 12.2897 9.70495C12.2961 9.31395 12.4255 9.12649 13.0395 8.61389C13.4724 8.25361 13.6 8.17244 13.8102 8.108C14.1299 8.00763 14.3825 8.01233 14.6988 8.12074C14.9414 8.2012 15.1647 8.39902 19.9818 12.7492C25.5502 17.7742 25.233 17.4569 25.2248 17.958C25.2166 18.4591 25.544 18.1538 19.8146 22.9685C14.8538 27.1405 14.6286 27.3262 14.3835 27.3976C14.0683 27.4905 13.7895 27.4853 13.482 27.377Z" fill="white"/>
</svg>
