<?xml version="1.0" encoding="UTF-8"?>
<svg version="1.1" xmlns="http://www.w3.org/2000/svg" width="881" height="857">
<path d="M0 0 C1.2163916 0.17160645 2.4327832 0.34321289 3.68603516 0.52001953 C49.6784801 7.12918171 94.16175067 20.84391654 136 41 C136.8667334 41.41217773 137.7334668 41.82435547 138.62646484 42.24902344 C169.94873916 57.18502437 199.55158349 76.53054881 226 99 C227.07019327 99.89597576 228.14051321 100.79180024 229.2109375 101.6875 C243.61494685 113.81579058 257.9393349 126.60865014 270.203125 140.92578125 C272.1746243 143.20157718 274.21134395 145.40922667 276.25 147.625 C281.83621393 153.82560294 286.92805608 160.37829543 292 167 C292.7415332 167.96413818 292.7415332 167.96413818 293.49804688 168.94775391 C336.91480562 225.53761544 365.13712068 291.85684513 376.25 362.3125 C376.40114258 363.26398926 376.55228516 364.21547852 376.70800781 365.19580078 C379.63909843 384.96246721 380.40793767 404.66443947 380.375 424.625 C380.37418427 426.49535919 380.37418427 426.49535919 380.37335205 428.40350342 C380.33186455 449.17944884 379.36185884 469.49284983 376 490 C375.89109436 490.67063477 375.78218872 491.34126953 375.66998291 492.03222656 C366.50579325 547.9142781 346.56842597 602.2272928 316 650 C315.6282666 650.58330078 315.2565332 651.16660156 314.87353516 651.76757812 C301.08646171 673.25291902 285.20027472 693.16991922 268 712 C267.12472656 712.96808594 266.24945312 713.93617188 265.34765625 714.93359375 C257.63628621 723.44100252 249.77897929 731.76930853 241.0390625 739.23828125 C238.7730777 741.19605739 236.57856506 743.22228948 234.375 745.25 C228.7174035 750.35310006 222.75419829 755.01408627 216.72314453 759.66210938 C215.15600887 760.87887099 213.60626487 762.11794956 212.05859375 763.359375 C151.12800883 811.71440644 76.36792833 839.74683447 0 851 C-1.7951001 851.27118652 -1.7951001 851.27118652 -3.62646484 851.54785156 C-41.63834538 857.01304405 -83.01552184 856.61576375 -121 851 C-122.2163916 850.82839355 -123.4327832 850.65678711 -124.68603516 850.47998047 C-170.6784801 843.87081829 -215.16175067 830.15608346 -257 810 C-257.8667334 809.58782227 -258.7334668 809.17564453 -259.62646484 808.75097656 C-290.94873916 793.81497563 -320.55158349 774.46945119 -347 752 C-348.07019327 751.10402424 -349.14051321 750.20819976 -350.2109375 749.3125 C-364.61494685 737.18420942 -378.9393349 724.39134986 -391.203125 710.07421875 C-393.1746243 707.79842282 -395.21134395 705.59077333 -397.25 703.375 C-402.83621393 697.17439706 -407.92805608 690.62170457 -413 684 C-413.49435547 683.35724121 -413.98871094 682.71448242 -414.49804688 682.05224609 C-457.91480562 625.46238456 -486.13712068 559.14315487 -497.25 488.6875 C-497.47671387 487.26026611 -497.47671387 487.26026611 -497.70800781 485.80419922 C-500.63909843 466.03753279 -501.40793767 446.33556053 -501.375 426.375 C-501.37445618 425.12809387 -501.37391235 423.88118774 -501.37335205 422.59649658 C-501.33186455 401.82055116 -500.36185884 381.50715017 -497 361 C-496.89109436 360.32936523 -496.78218872 359.65873047 -496.66998291 358.96777344 C-487.50579325 303.0857219 -467.56842597 248.7727072 -437 201 C-436.6282666 200.41669922 -436.2565332 199.83339844 -435.87353516 199.23242188 C-422.08646171 177.74708098 -406.20027472 157.83008078 -389 139 C-388.12472656 138.03191406 -387.24945313 137.06382812 -386.34765625 136.06640625 C-378.63628621 127.55899748 -370.77897929 119.23069147 -362.0390625 111.76171875 C-359.7730777 109.80394261 -357.57856506 107.77771052 -355.375 105.75 C-349.7174035 100.64689994 -343.75419829 95.98591373 -337.72314453 91.33789062 C-336.15600887 90.12112901 -334.60626487 88.88205044 -333.05859375 87.640625 C-272.12800883 39.28559356 -197.36792833 11.25316553 -121 0 C-119.8032666 -0.18079102 -118.6065332 -0.36158203 -117.37353516 -0.54785156 C-79.36165462 -6.01304405 -37.98447816 -5.61576375 0 0 Z " fill="#005261" transform="translate(501,3)"/>
<path d="M0 0 C4.8312199 2.47996901 8.09750691 5.46139258 10.25 10.5 C13.0635837 24.45307837 4.86560688 38.0963004 -0.47265625 50.53125 C-1.09243347 51.97612793 -1.09243347 51.97612793 -1.72473145 53.45019531 C-2.73284125 55.80026474 -3.74127009 58.15019669 -4.75 60.5 C-3.7822294 60.49723462 -2.81445881 60.49446924 -1.81736183 60.49162006 C21.7975059 60.42483939 45.41236129 60.37563667 69.0273037 60.34456348 C80.44759871 60.32913497 91.86783112 60.30812273 103.28808594 60.27368164 C113.2490953 60.24365581 123.21005929 60.22439587 133.17111266 60.21773452 C138.43894487 60.21384448 143.70664734 60.20478726 148.97443771 60.18280983 C153.94680147 60.16223575 158.91898375 60.15620784 163.89138603 60.16067696 C165.70280002 60.15986101 167.51422097 60.15402133 169.32559776 60.14238358 C201.87206943 59.94378257 229.96655296 69.37403206 254 91.75 C264.3840759 102.5532496 271.76486301 116.90432564 276.0625 131.125 C276.2697168 131.8053833 276.47693359 132.4857666 276.69042969 133.18676758 C279.53995476 143.22377516 279.40576972 153.50055417 279.42700195 163.85961914 C279.43328157 165.28177042 279.43992964 166.70392012 279.44691467 168.12606812 C279.4677795 172.76241959 279.47830051 177.39877074 279.48828125 182.03515625 C279.49233539 183.64262851 279.49645249 185.25010061 279.50063133 186.85757256 C279.51964442 194.41436604 279.53388347 201.97115 279.5422433 209.52796274 C279.55200119 218.20097552 279.57829915 226.87373212 279.61874419 235.54665476 C279.64906754 242.28422334 279.66372741 249.02171913 279.66702431 255.75935453 C279.66935626 259.76783306 279.67807125 263.77603674 279.70348549 267.78444099 C279.89639411 299.84512258 279.89639411 299.84512258 275.25 313.5 C274.96439209 314.35166245 274.67878418 315.20332489 274.38452148 316.08079529 C265.44891047 340.26015081 248.47682809 358.90364772 225.2578125 369.74609375 C219.38840008 372.37353067 213.38116882 374.55909012 207.25 376.5 C205.75146484 376.99886719 205.75146484 376.99886719 204.22265625 377.5078125 C191.41990726 381.01045942 178.32322482 380.79285401 165.17480469 380.7746582 C163.08061543 380.77901351 160.98642777 380.78419937 158.89224243 380.79014587 C153.24380166 380.80345345 147.59542813 380.80412419 141.94697475 380.80158257 C137.2201151 380.80050807 132.49326879 380.80540803 127.76641202 380.810188 C116.61509772 380.82125287 105.46381712 380.82173646 94.3125 380.81567383 C82.82551027 380.80962473 71.33864273 380.82197577 59.85167384 380.8432439 C49.96595887 380.86087119 40.08028277 380.8668598 30.19455266 380.86360615 C24.30010602 380.86179628 18.40574673 380.86440085 12.51131439 380.87832069 C6.97243786 380.89091411 1.43375206 380.88894051 -4.10512161 380.87590981 C-6.13275594 380.87354847 -8.16040378 380.87626277 -10.18802261 380.88453293 C-24.85224136 380.94001658 -36.09861811 380.39510741 -47.75 370.5 C-56.04156252 361.11744241 -56.6643928 348.40479779 -55.93017578 336.50732422 C-55.13608212 327.66038912 -51.32335014 319.8366343 -44.86328125 313.7109375 C-37.75193297 308.03862433 -30.74458726 306.04299036 -21.80691528 306.12818909 C-20.50867602 306.12245224 -20.50867602 306.12245224 -19.1842097 306.1165995 C-16.30248946 306.10736095 -13.42125556 306.1192766 -10.53955078 306.13110352 C-8.46595054 306.128634 -6.39235154 306.12479405 -4.3187561 306.11968994 C0.13811279 306.11136561 4.59485384 306.112148 9.05172348 306.11987495 C16.10380696 306.13147739 23.15572667 306.11927888 30.20779419 306.10325623 C47.72335834 306.06709525 65.2389185 306.06083109 82.7545166 306.06335449 C96.36956535 306.06506664 109.98447999 306.05791847 123.59949124 306.02337593 C130.60492605 306.00660445 137.61003344 306.00835745 144.61546683 306.02419865 C148.97976 306.03000625 153.34389879 306.0192363 157.70816422 306.00395203 C159.72611671 306.00023411 161.74409539 306.00330971 163.76202393 306.01382256 C180.13450141 306.13481583 180.13450141 306.13481583 194.6875 299.1875 C201.15128793 292.40840535 200.6909901 285.20350057 200.66992188 276.2878418 C200.67727066 274.95329075 200.68585924 273.61874604 200.69558716 272.28421021 C200.71772952 268.67450755 200.72073745 265.06503367 200.71883965 261.45527244 C200.71871958 258.43368423 200.72729853 255.41214386 200.73561716 252.39056903 C200.75482589 245.25652174 200.75774467 238.12259145 200.75097656 230.98852539 C200.74434091 223.6487675 200.76718637 216.3095128 200.80429029 208.96985692 C200.83506465 202.65111115 200.84633889 196.33252659 200.84245348 190.01370746 C200.84039355 186.24737901 200.84574679 182.4814421 200.87034607 178.71518517 C200.89273886 175.16986101 200.89063332 171.62535 200.87041855 168.0800209 C200.86542604 166.17353192 200.88493755 164.26702691 200.90542603 162.36064148 C200.81981778 153.52876271 199.14387042 146.39387042 192.75 140 C187.67432596 136.95459558 183.45573086 136.20551704 177.58744812 136.2215271 C176.82363526 136.2157347 176.05982239 136.2099423 175.27286369 136.20397437 C172.71791756 136.18699263 170.16315227 136.18409945 167.6081543 136.18115234 C165.77492328 136.17185291 163.94169649 136.16168421 162.10847473 136.15071106 C157.13373184 136.12339878 152.15901729 136.10825797 147.18421912 136.09528303 C141.98449943 136.07965791 136.78483766 136.0528657 131.5851593 136.0272522 C121.73970868 135.9804535 111.89424717 135.94371464 102.04874212 135.91057932 C90.8396138 135.87236568 79.63054363 135.82295352 68.42146432 135.77259517 C45.36435264 135.66925906 22.30720361 135.58000409 -0.75 135.5 C-0.27054932 136.45366455 0.20890137 137.4073291 0.70288086 138.38989258 C2.48095277 141.92793805 4.25637792 145.46730608 6.03100586 149.00708008 C6.79948943 150.53901808 7.56869059 152.07059632 8.33862305 153.60180664 C9.44508637 155.80260571 10.54896379 158.00468504 11.65234375 160.20703125 C12.16957253 161.23374687 12.16957253 161.23374687 12.69725037 162.28120422 C16.32853428 169.54291563 16.93852688 175.4172932 16.25 183.5 C13.84586755 189.0094702 9.25536026 192.34467022 4.25 195.5 C-2.90082553 197.88360851 -9.01084762 196.23640746 -15.75 193.5 C-19.17087937 191.78921526 -22.45813274 189.88310047 -25.75 187.9375 C-26.66934326 187.40302246 -27.58868652 186.86854492 -28.53588867 186.31787109 C-31.27896317 184.72033719 -34.0152135 183.1116709 -36.75 181.5 C-38.18341523 180.65985159 -39.61699405 179.81998219 -41.05078125 178.98046875 C-43.77352446 177.38343391 -46.49308005 175.78111519 -49.2109375 174.17578125 C-62.96769916 166.05628123 -76.78731246 158.04309755 -90.625 150.0625 C-91.6987085 149.44318604 -92.77241699 148.82387207 -93.87866211 148.18579102 C-99.42864633 144.98625184 -104.98188983 141.79250648 -110.5390625 138.60546875 C-116.95443465 134.92370384 -123.35577901 131.21835557 -129.75 127.5 C-130.66974609 126.96826172 -131.58949219 126.43652344 -132.53710938 125.88867188 C-135.03332128 124.43979573 -137.51824967 122.97347436 -140 121.5 C-141.06250977 120.88753418 -141.06250977 120.88753418 -142.14648438 120.26269531 C-147.42776717 117.08409759 -151.95385807 113.09228387 -154.75 107.5 C-155.23032374 101.79910837 -155.59919279 96.41068378 -153.25 91.125 C-147.45202198 85.03712308 -141.16836847 80.24870178 -133.99609375 75.90234375 C-127.25313568 71.72769083 -120.59980787 67.45402091 -114.03515625 63.00390625 C-113.21536285 62.44841599 -112.39556946 61.89292572 -111.55093384 61.32060242 C-109.85041132 60.16659799 -108.15045932 59.01175246 -106.4510498 57.85610962 C-88.24952302 45.48323969 -69.92509831 33.30400945 -51.53149414 21.21899414 C-50.66194595 20.64761215 -49.79239777 20.07623016 -48.89649963 19.48753357 C-47.20666653 18.37775392 -45.51628212 17.26881319 -43.82530212 16.16078186 C-40.00029694 13.65162011 -36.18742657 11.12810425 -32.40429688 8.55615234 C-31.72808289 8.09814743 -31.0518689 7.64014252 -30.35516357 7.16825867 C-29.12217609 6.3310047 -27.89236401 5.48904181 -26.66680908 4.64094543 C-18.15686469 -1.13076101 -9.95834005 -3.7720985 0 0 Z " fill="#FEFEFE" transform="translate(359.75,262.5)"/>
</svg>
